<svg xmlns="http://www.w3.org/2000/svg" xmlns:xlink="http://www.w3.org/1999/xlink" viewBox="0 0 111.22 91.36"><defs><style>.cls-1{fill:#9f0012;}.cls-2{fill:none;}.cls-3{fill:#fff6e4;}.cls-4{isolation:isolate;}.cls-5{clip-path:url(#clip-path);}.cls-6{fill:#cc112e;opacity:0.41;}.cls-10,.cls-7{fill:#8e0015;}.cls-8{fill:#af3c21;}.cls-9{clip-path:url(#clip-path-2);}.cls-10{opacity:0.2;}.cls-10,.cls-13{mix-blend-mode:multiply;}.cls-11,.cls-12{fill:#d62343;}.cls-11{opacity:0.76;mix-blend-mode:soft-light;}.cls-12{opacity:0.48;}.cls-13,.cls-21{fill:#91081a;}.cls-13{opacity:0.4;}.cls-14{fill:#ce1e29;}.cls-15{fill:#faf6ea;}.cls-16{fill:#d1274e;}.cls-17{fill:#f06f85;}.cls-18{fill:#f1dabb;}.cls-19{clip-path:url(#clip-path-3);}.cls-20{fill:#8c1322;}.cls-22{fill:#d82e3f;}.cls-23{clip-path:url(#clip-path-4);}.cls-24{fill:#fcecca;}.cls-25{clip-path:url(#clip-path-5);}.cls-26{fill:#ecb362;}.cls-27{fill:#efe0bb;}.cls-28{fill:#a81223;}.cls-29{fill:#bc0011;}.cls-30{fill:#d87982;}.cls-31{fill:#c21528;}.cls-32{fill:#d60013;}.cls-33{fill:#f28791;}.cls-34{fill:#de1840;}.cls-35{fill:#ec002a;}.cls-36{fill:#ff8ea3;}.cls-37{fill:#de263a;}.cls-38{fill:#ec0f22;}.cls-39{fill:#ff9ea7;}.cls-40{fill:#a41222;}.cls-41{fill:#b80010;}.cls-42{fill:#d4767f;}.cls-43{fill:#8a0f1d;}.cls-44{fill:#9e000e;}.cls-45{fill:#ba6870;}.cls-46{fill:#de182e;}.cls-47{fill:#ec0015;}.cls-48{fill:#ff8e99;}.cls-49{fill:#fff;}.cls-50{fill:#c21537;}.cls-51{fill:#d60026;}.cls-52{fill:#f2879b;}.cls-53{opacity:0.46;}.cls-54{fill:#e27b50;}.cls-55{opacity:0.49;}.cls-56{opacity:0.53;}.cls-57{fill:#c7461f;}.cls-58{opacity:0.57;}</style><clipPath id="clip-path" transform="translate(0 3.9)"><path class="cls-1" d="M73.24,8.58a11.77,11.77,0,0,1,2.05,2.6c1.37,2.71,2.39,4.71.7,7.23-1,1.44-3.88,1.94-5.63,2-16,.27-24.29,6.36-27,16.18-1.09,3.89-2.68,13.51,1.72,23a23.86,23.86,0,0,0,4.12,5.91c6,6.57,15.56,8.41,24.45,8.87,6.59.35,11.78-.45,18.68-5.37a24.54,24.54,0,0,0,9.29-13c2.13-7.83,3.8-17-4.08-27.44-6.51-8.59-10.67-4-9.86-8.73.69-4,4.78-5.69,8.59-7.17a9.23,9.23,0,0,0-1.69-.54,5.75,5.75,0,0,0-2-.26c-1.09.07-.54-.08-1.5.45a25.18,25.18,0,0,0-.83-5.86C88.16,7.9,84.72,11,84.64,10.74A13.13,13.13,0,0,0,81,4.44c-.35,1.52-.68,3.23-1,4.75-.18.77-.71,1.91-.83,1.74a7.25,7.25,0,0,0-2.8-2.56C75.12,7.85,72.85,8.49,73.24,8.58Z"/></clipPath><clipPath id="clip-path-2" transform="translate(0 3.9)"><path class="cls-2" d="M73.24,8.58a11.77,11.77,0,0,1,2.05,2.6c1.37,2.71,2.39,4.71.7,7.23-1,1.44-3.88,1.94-5.63,2-16,.27-24.29,6.36-27,16.18-1.09,3.89-2.68,13.51,1.72,23a23.86,23.86,0,0,0,4.12,5.91c6,6.57,15.56,8.41,24.45,8.87,6.59.35,11.78-.45,18.68-5.37a24.54,24.54,0,0,0,9.29-13c2.13-7.83,3.8-17-4.08-27.44-6.51-8.59-10.67-4-9.86-8.73.69-4,4.78-5.69,8.59-7.17a9.23,9.23,0,0,0-1.69-.54,5.75,5.75,0,0,0-2-.26c-1.09.07-.54-.08-1.5.45a25.18,25.18,0,0,0-.83-5.86C88.16,7.9,84.72,11,84.64,10.74A13.13,13.13,0,0,0,81,4.44c-.35,1.52-.68,3.23-1,4.75-.18.77-.71,1.91-.83,1.74a7.25,7.25,0,0,0-2.8-2.56C75.12,7.85,72.85,8.49,73.24,8.58Z"/></clipPath><clipPath id="clip-path-3" transform="translate(0 3.9)"><path class="cls-2" d="M33.71,4.64c-.44.1-2.1,2.51-2.3,2.9-1.53,3-2.68,5.27-.79,8.08,1.09,1.62,4.35,2.17,6.3,2.21,17.95.3,27.16,7.12,30.21,18.09,1.21,4.35,3,15.11-1.93,25.68a26.43,26.43,0,0,1-4.6,6.6c-6.71,7.36-17.4,9.41-27.34,9.93-7.38.38-13.18-.51-20.89-6A27.5,27.5,0,0,1,2,57.64C-.41,48.88-2.27,38.6,6.55,27c7.27-9.61,11.92-4.44,11-9.75-.77-4.5-5.34-6.37-9.6-8a9.66,9.66,0,0,1,1.89-.6,6.38,6.38,0,0,1,2.21-.29c1.22.08.6-.09,1.67.5a29,29,0,0,1,.93-6.55C17,3.87,20.87,7.39,21,7.05a14.54,14.54,0,0,1,4.14-7c.38,1.7.75,3.61,1.14,5.31.2.86.79,2.14.93,2A8,8,0,0,1,30.29,4.4C31.59,3.82,34.14,4.53,33.71,4.64Z"/></clipPath><clipPath id="clip-path-4" transform="translate(0 3.9)"><path class="cls-2" d="M63.06,71A39.13,39.13,0,0,1,79.58,57.82c7.49-3.15,14-6.39,21.8-8.67,2.56-.75,6.86-2.43,8.08-.06.66,1.29-.56,4.24-1,5.62A37.9,37.9,0,0,1,80.27,79.59c-5.4,1.06-11,.9-16.45.74-2.67-.08-6.12-.84-6.4-3.5C59.77,74.59,61.17,73.67,63.06,71Z"/></clipPath><clipPath id="clip-path-5" transform="translate(0 3.9)"><path class="cls-3" d="M41.75,66.93c-3.33,3-9.06,3.88-13.5,3.23A21.47,21.47,0,0,1,16.49,64C8.87,56.59,7.88,43.27,12,33.44c1.55-3.74,4.28-7.35,8.14-8.86,2.71-1,6.57-2.56,9.07-.6,1.33,1.05,1.35,2.76,1.1,4.44a12.51,12.51,0,0,1-1.61,4.76c-2.3,3.8-.94,5.27-.87,6.63.15,2.83,1.22,4.84,2.06,7.54.3,0-.25-4.22.5-5.58,1.5-2.7,2-2.49,2.4-4,.49-2,.2-2.32.79-4.25.52-1.69,2.38-2.66,3-4.32.33-.88.32-5,.92-5.74a3.68,3.68,0,0,1,2.69-1c4.79-.33,10.37,1.7,14.48,4.19,3.77,2.3,6.26,6.54,7.48,10.79s2.6,6.64.5,15.57C60.22,63.24,58.72,64.23,53,67.43,49.62,69.34,43,69.53,41.75,66.93Z"/></clipPath></defs><g class="cls-4"><g id="Capa_2" data-name="Capa 2"><g id="Layer_1" data-name="Layer 1"><g id="Layer_26" data-name="Layer 26"><path class="cls-1" d="M73.24,8.58a11.77,11.77,0,0,1,2.05,2.6c1.37,2.71,2.39,4.71.7,7.23-1,1.44-3.88,1.94-5.63,2-16,.27-24.29,6.36-27,16.18-1.09,3.89-2.68,13.51,1.72,23a23.86,23.86,0,0,0,4.12,5.91c6,6.57,15.56,8.41,24.45,8.87,6.59.35,11.78-.45,18.68-5.37a24.54,24.54,0,0,0,9.29-13c2.13-7.83,3.8-17-4.08-27.44-6.51-8.59-10.67-4-9.86-8.73.69-4,4.78-5.69,8.59-7.17a9.23,9.23,0,0,0-1.69-.54,5.75,5.75,0,0,0-2-.26c-1.09.07-.54-.08-1.5.45a25.18,25.18,0,0,0-.83-5.86C88.16,7.9,84.72,11,84.64,10.74A13.13,13.13,0,0,0,81,4.44c-.35,1.52-.68,3.23-1,4.75-.18.77-.71,1.91-.83,1.74a7.25,7.25,0,0,0-2.8-2.56C75.12,7.85,72.85,8.49,73.24,8.58Z" transform="translate(0 3.9)"/><g class="cls-5"><path class="cls-6" d="M97,28a27.85,27.85,0,0,0-5.65-5c-.72-.48-1.46-.9-2.22-1.31a5.7,5.7,0,0,1,.18-.83,10.18,10.18,0,0,1,3.29-4c1-.74,1.92-1.43,2.87-2.21.79-.65,1.59-1.29,2.44-1.88a1.41,1.41,0,0,0-.7-2.6,17.78,17.78,0,0,0-5.44.46,14.68,14.68,0,0,0-5.11,3.28c-2.7,2.39-5.94,7.33-4.17,11.06.28,3.24,1.89,5.9,3.81,8.48q.69.91,1.35,1.86c.48.76.91,1.54,1.31,2.34a22.24,22.24,0,0,1,.88,7.88,44.46,44.46,0,0,1-1.57,7.29c-.64,2.51-1.3,5-1.94,7.52-1,3.89,4.28,5.45,6,2.26a3.78,3.78,0,0,0,1.63-.61,3.21,3.21,0,0,0,3.63-2.39c.81,3,6.12,3,6.65-.28C106,48.23,104.38,36.72,97,28Zm-8.68-6.75-.33-.19Z" transform="translate(0 3.9)"/><path class="cls-7" d="M80,13c-.66-3.7-3.5-8.14-7.34-9.06a1.37,1.37,0,0,0-1.53,2c.31.55.65,1.07,1,1.6a2.51,2.51,0,0,0-2.1.42,3.19,3.19,0,0,0-1.63.41,3.29,3.29,0,0,0-1.15,4.4l.11.24c.75,2-1.53,4-3.29,4.9a22,22,0,0,1-3.49,1.42,3.58,3.58,0,0,0-2.2-.34,8.52,8.52,0,0,0-5.59,3.71,3,3,0,0,0-.1,2.94,3.27,3.27,0,0,0,3,4C53.71,33,51.52,37.3,54,40.81c1.77,2.56,5.07,1.91,6.2-.81a29,29,0,0,1,5.92-9.59c2.71-2.68,6.35-3.46,9.42-5.55C79.49,22.14,80.79,17.62,80,13Z" transform="translate(0 3.9)"/><path class="cls-8" d="M98,8a21.91,21.91,0,0,0-5.4-2.49,27.2,27.2,0,0,0-6.1-.72A26.81,26.81,0,0,1,80,4.19l-1.66-.48A3.45,3.45,0,0,0,77,3.3l-.57,0a11.33,11.33,0,0,0-1.32-.17,2.62,2.62,0,0,0-1-.05,2.2,2.2,0,0,0-.37.06l-.7.09c-1.63.26-2.29,2.44-1.51,3.73a3.46,3.46,0,0,0,3.26,1.72A21.43,21.43,0,0,1,78,10.29c1.65,1.14,2.85,2.85,4.84,3.46,2.22.68,4.32-.09,6.52-.39a31.92,31.92,0,0,1,7.18,0C99.4,13.59,100.28,9.34,98,8Z" transform="translate(0 3.9)"/></g><g class="cls-9"><path class="cls-10" d="M69.88,13.17c.71.6,1.44,1.16,2.19,1.69a3.41,3.41,0,0,0,.76,2.91c.27.34.55.65.85,1,.64,2,3,3.07,5.1,3.72a11.78,11.78,0,0,0,6.12.41c1.84-.19,3.55-.88,4.31-2.56a3.8,3.8,0,0,0,.35-1.4,11.15,11.15,0,0,0,4.37-.66,3.48,3.48,0,0,0,2.43-2.82,2.11,2.11,0,0,1,0-.25,3.51,3.51,0,0,0,2.05-1.91,3.87,3.87,0,0,0,.24-.88,3.66,3.66,0,0,0,.21-.55,3.32,3.32,0,0,0-2.27-4,27,27,0,0,1-3.48-1.75,3.42,3.42,0,0,0-4.06.52c-1.41-.34-2.82-.65-4.25-.91a29.46,29.46,0,0,0-9.6-1.23,3,3,0,0,0-2.94,3c0,.12,0,.24,0,.36C69.71,7.4,67.76,11.36,69.88,13.17Z" transform="translate(0 3.9)"/><path class="cls-11" d="M97.7,21.11a3.62,3.62,0,0,0-1.3-.49,1.54,1.54,0,0,0-1.93,1.46,6,6,0,0,1-1.06,4.19,9.6,9.6,0,0,0-2.34,1.44,26.85,26.85,0,0,1-4.54,1,37.85,37.85,0,0,1-4,.52c-1.61.11-3.39-.15-5,.28a6.68,6.68,0,0,0-4.74,6.85c.33,6.35,6.89,9,12.45,8.53a20.24,20.24,0,0,0,13.14-6.57c3.55-4,7.46-11.75,2.9-16.36A3.6,3.6,0,0,0,97.7,21.11Z" transform="translate(0 3.9)"/><path class="cls-12" d="M93.65,46.08a9.16,9.16,0,0,0-6.41.87,32.84,32.84,0,0,0-5.11,2.62,6.19,6.19,0,0,0-2.8,5.24c.07,1.46.92,3.34,2.37,3.83a1,1,0,0,0,1.14-.6,3.62,3.62,0,0,0,2.64,1.25,26.91,26.91,0,0,0,6.9-1c2-.52,4.42-1,5.89-2.46a5.4,5.4,0,0,0,.68-6.3A7.61,7.61,0,0,0,93.65,46.08Z" transform="translate(0 3.9)"/><path class="cls-13" d="M69.5,49.14a34.3,34.3,0,0,1-3.28-5.07,35.44,35.44,0,0,1-3.95-12.36A38.74,38.74,0,0,1,62,24.57c.13-2.2.16-4.44,1.37-6.37,1.45-2.31-2-5-3.83-2.95a11.4,11.4,0,0,0-1.2,1.61,3.63,3.63,0,0,0-1.24-1.13,3.49,3.49,0,0,0-3.36-2.47c-7.31.79-11.23,7.29-14.22,13.32-3.35,6.74-5.35,14-3.88,21.5a51.53,51.53,0,0,0,3.65,10.58,48,48,0,0,0,5,8.9A28.44,28.44,0,0,0,51.47,75a9.17,9.17,0,0,0,6.66,1.29,8,8,0,0,0,6.47.94C69,76,72.66,71.86,74.72,67.94c2.49-4.74,2.77-10-.93-14.15C72.39,52.21,70.81,50.81,69.5,49.14Z" transform="translate(0 3.9)"/></g><path class="cls-14" d="M33.71,4.64c-.44.1-2.1,2.51-2.3,2.9-1.53,3-2.68,5.27-.79,8.08,1.09,1.62,4.35,2.17,6.3,2.21,17.95.3,27.16,7.12,30.21,18.09,1.21,4.35,3,15.11-1.93,25.68a26.43,26.43,0,0,1-4.6,6.6c-6.71,7.36-17.4,9.41-27.34,9.93-7.38.38-13.18-.51-20.89-6A27.5,27.5,0,0,1,2,57.64C-.41,48.88-2.27,38.6,6.55,27c7.27-9.61,11.92-4.44,11-9.75-.77-4.5-5.34-6.37-9.6-8a9.66,9.66,0,0,1,1.89-.6,6.38,6.38,0,0,1,2.21-.29c1.22.08.6-.09,1.67.5a29,29,0,0,1,.93-6.55C17,3.87,20.87,7.39,21,7.05a14.54,14.54,0,0,1,4.14-7c.38,1.7.75,3.61,1.14,5.31.2.86.79,2.14.93,2A8,8,0,0,1,30.29,4.4C31.59,3.82,34.14,4.53,33.71,4.64Z" transform="translate(0 3.9)"/><path class="cls-15" d="M41.75,66.93c-3.33,3-9.06,3.88-13.5,3.23A21.47,21.47,0,0,1,16.49,64C8.87,56.59,7.88,43.27,12,33.44c1.55-3.74,4.28-7.35,8.14-8.86,2.71-1,6.57-2.56,9.07-.6,1.33,1.05,1.35,2.76,1.1,4.44a12.51,12.51,0,0,1-1.61,4.76c-2.3,3.8-.94,5.27-.87,6.63.15,2.83,1.22,4.84,2.06,7.54.3,0-.25-4.22.5-5.58,1.5-2.7,2-2.49,2.4-4,.49-2,.2-2.32.79-4.25.52-1.69,2.38-2.66,3-4.32.33-.88.32-5,.92-5.74a3.68,3.68,0,0,1,2.69-1c4.79-.33,10.37,1.7,14.48,4.19,3.77,2.3,6.26,6.54,7.48,10.79s2.6,6.64.5,15.57C60.22,63.24,58.72,64.23,53,67.43,49.62,69.34,43,69.53,41.75,66.93Z" transform="translate(0 3.9)"/><path class="cls-16" d="M87,73.78a46.19,46.19,0,0,0,22.81-24.44c2,3,.74,7-.91,10.13A43.41,43.41,0,0,1,85.3,80.28a38.67,38.67,0,0,1-14.7,2.11c-2.25-.11-13.37-2-13.29-5.19,0-1.14,11.86,1,14,.82A45.74,45.74,0,0,0,87,73.78Z" transform="translate(0 3.9)"/><path class="cls-3" d="M63.06,71A39.13,39.13,0,0,1,79.58,57.82c7.49-3.15,14-6.39,21.8-8.67,2.56-.75,6.86-2.43,8.08-.06.66,1.29-.56,4.24-1,5.62A37.9,37.9,0,0,1,80.27,79.59c-5.4,1.06-11,.9-16.45.74-2.67-.08-6.12-.84-6.4-3.5C59.77,74.59,61.17,73.67,63.06,71Z" transform="translate(0 3.9)"/><path class="cls-17" d="M42.22,68.83c-3.64,3.3-9.89,4.24-14.75,3.53a23.55,23.55,0,0,1-12.85-6.69C6.3,57.53,5.21,43,9.68,32.23c1.7-4.08,4.68-8,8.9-9.67,3-1.15,7.18-2.8,9.9-.66,1.46,1.14,8.4.23,9.05-.56a4,4,0,0,1,2.94-1.05c5.24-.37,11.33,1.85,15.82,4.58,4.13,2.5,6.84,7.14,8.18,11.78s2.84,7.26.55,17C62.4,64.79,60.76,65.88,54.54,69.38,50.82,71.46,43.64,71.67,42.22,68.83Z" transform="translate(0 3.9)"/><path class="cls-18" d="M42,68.09c-3.51,3.2-9.56,4.1-14.26,3.42A22.82,22.82,0,0,1,15.35,65c-8-7.86-9.1-21.94-4.78-32.33,1.64-3.94,4.53-7.76,8.61-9.35,2.86-1.12,6.94-2.71,9.57-.64,1.42,1.1,8.13.22,8.75-.54a3.9,3.9,0,0,1,2.85-1c5.06-.36,10.95,1.79,15.29,4.43,4,2.42,6.62,6.9,7.92,11.39s2.74,7,.52,16.46C61.55,64.19,60,65.24,54,68.62,50.36,70.64,43.41,70.83,42,68.09Z" transform="translate(0 3.9)"/><g class="cls-19"><path class="cls-20" d="M30.94,1c-1.39.33-2.83-.47-4.17-.77A14.11,14.11,0,0,0,21.71.11a60.06,60.06,0,0,0-9.56,2.51,2.48,2.48,0,0,0-1.49,3.2c-.49.15-1,.34-1.51.56a.72.72,0,0,0,0,1.37c1.28.38,2.52.78,3.82,1.14A27.24,27.24,0,0,1,16.39,10c2.13.9,4.12,2.9,6.57,2.6,2.11-.27,3.39-2,4.5-3.59a11.25,11.25,0,0,1,5.08-4.19C34.78,3.86,33.14.47,30.94,1Z" transform="translate(0 3.9)"/><path class="cls-21" d="M5.21,11.21C6.84,12,8.48,12.83,10,13.78c1.14.69,3.12,2.1,3.08,3.64,0,1.2-1.39,2.17-2.2,2.85A34.5,34.5,0,0,0,6.72,24C1.06,30.53.15,39.5.54,47.82.93,55.94,2.93,64,8.41,70.24c4.87,5.53,11.9,9.14,19,10.7a52.21,52.21,0,0,0,14.76.94c2.65-.19,5.29-.54,7.91-1,2.3-.39,5-1.41,6.2-3.48a1.25,1.25,0,0,0-.43-1.67c-1.77-1.16-4.24-1.14-6.28-.83s-4.36.73-6.58.93a48.82,48.82,0,0,1-12.89-.36c-6.82-1.22-13.4-4.31-18-9.62C7,59.93,5.86,51.74,5.79,44.15A30.52,30.52,0,0,1,7.73,32c1.43-3.35,3.71-5.58,6.47-7.85,3.24-2.65,5.32-6.61,2.5-10.44C14.25,10.36,9.46,8.07,5.42,9.64c-.63.24-.93,1.21-.21,1.57Z" transform="translate(0 3.9)"/><path class="cls-22" d="M31,13.14c-.67,2,1.72,3.6,3.28,4.28,2.79,1.21,6,1.57,9,2.15,5.54,1.09,11.48,1.5,15.87,5.44,8.91,8,8.37,21,6.32,31.71a30.13,30.13,0,0,1-2.9,9,21.21,21.21,0,0,1-2.81,4C58.6,71,57.17,72,56.44,73.58s.45,3.34,2.15,2.8c2.89-.92,5.54-4,7.34-6.31a24.16,24.16,0,0,0,3.83-8.26,58.65,58.65,0,0,0,2-19.86A31.56,31.56,0,0,0,65.93,25.2a23.24,23.24,0,0,0-14.35-9c-3.87-.78-7.83-1.26-11.75-1.74-1.62-.2-3.24-.33-4.85-.53a31.8,31.8,0,0,1-3.66-1,.26.26,0,0,0-.32.18Z" transform="translate(0 3.9)"/></g><g class="cls-23"><path class="cls-24" d="M110.39,49A7.51,7.51,0,0,0,107,45.22a3.93,3.93,0,0,0-4.32.42A8.34,8.34,0,0,0,101.32,44a3.29,3.29,0,0,0-5.42,1.44c-1.55,4.77-1.49,9.82-3.76,14.4A29,29,0,0,1,83.83,70a34.76,34.76,0,0,1-13.22,6C66,77.1,60.7,78.05,56,76.71c-.89-.26-1.3.8-.82,1.42,1.86,2.41,5.09,3.23,8.21,3.57l-.09.18a3.26,3.26,0,0,0,1.32,4c3.64,2.39,8.27,1.52,12.24.54a45.09,45.09,0,0,0,9.83-3.78,52.91,52.91,0,0,0,16-13.11,56.18,56.18,0,0,0,6-8.8C110.79,57.11,112.19,53,110.39,49Zm-6.14,2Z" transform="translate(0 3.9)"/></g><path class="cls-3" d="M41.75,66.93c-3.33,3-9.06,3.88-13.5,3.23A21.47,21.47,0,0,1,16.49,64C8.87,56.59,7.88,43.27,12,33.44c1.55-3.74,4.28-7.35,8.14-8.86,2.71-1,6.57-2.56,9.07-.6,1.33,1.05,1.35,2.76,1.1,4.44a12.51,12.51,0,0,1-1.61,4.76c-2.3,3.8-.94,5.27-.87,6.63.15,2.83,1.22,4.84,2.06,7.54.3,0-.25-4.22.5-5.58,1.5-2.7,2-2.49,2.4-4,.49-2,.2-2.32.79-4.25.52-1.69,2.38-2.66,3-4.32.33-.88.32-5,.92-5.74a3.68,3.68,0,0,1,2.69-1c4.79-.33,10.37,1.7,14.48,4.19,3.77,2.3,6.26,6.54,7.48,10.79s2.6,6.64.5,15.57C60.22,63.24,58.72,64.23,53,67.43,49.62,69.34,43,69.53,41.75,66.93Z" transform="translate(0 3.9)"/><g class="cls-25"><path class="cls-26" d="M32.68,24.73a11.71,11.71,0,0,0,3.4.27,20.46,20.46,0,0,1,4.17.72,66,66,0,0,1,6.77,2c3.93,1.45,8,3.83,10.42,7.31,2.86,4.09,3.53,9.12,3.2,14S59.15,59.21,56.3,63.25a11.2,11.2,0,0,1-5.43,4.21,9.32,9.32,0,0,1-3.43.56,13,13,0,0,1-1.66-.2c-.73-.11-1.43,0-2.16-.07-1.71-.17-2.52,2.22-1.38,3.31a6.54,6.54,0,0,0,3.72,2A13.38,13.38,0,0,0,50.51,73a16.16,16.16,0,0,0,7.64-3.86c4.56-4,6.6-10.25,7.49-16.07,1-6.3.79-12.91-2.27-18.65-2.7-5.06-7.43-8.51-12.66-10.63a35,35,0,0,0-9.07-2.26c-2.7-.31-7.9-.82-9.43,2.1a.8.8,0,0,0,.47,1.15Z" transform="translate(0 3.9)"/><path class="cls-27" d="M39.07,68.34a43,43,0,0,1-6.25-3,24.94,24.94,0,0,1-2.7-2.64,22.48,22.48,0,0,1-3.82-7.56,90.33,90.33,0,0,1-3.17-11.68,28.69,28.69,0,0,1,4.32-15.36,3.2,3.2,0,0,0,1.22-1L30,25.45a2.13,2.13,0,0,0,.55-.71l.51-.66c1.28-1.66-.86-4.39-2.79-3.63a8.92,8.92,0,0,0-1.51.78.94.94,0,0,0-1-.47c-1,.16-2,.4-3,.64A9.73,9.73,0,0,0,19.54,23a21.82,21.82,0,0,0-5,4.54,25.21,25.21,0,0,0-5.23,13.2c-.9,9.09,1.26,20.31,8.63,26.4,4.52,3.72,10.24,5.16,16,5.25l.11.08a1.93,1.93,0,0,0,1.31.34c.77.23,1.54.42,2.31.59A2.64,2.64,0,0,0,39.07,68.34Z" transform="translate(0 3.9)"/></g><path class="cls-28" d="M21.66,65.26c.38-1.92,3.91-2.36,4.48-.33s.24,3.51-1.63,4.16S21.25,67.3,21.66,65.26Z" transform="translate(0 3.9)"/><path class="cls-29" d="M22.52,65.29c.19-1,1.91-1.16,2.19-.16s.12,1.71-.8,2S22.32,66.28,22.52,65.29Z" transform="translate(0 3.9)"/><path class="cls-30" d="M22.75,65.19c.11-.55,1.12-.67,1.28-.09s.07,1-.47,1.19S22.63,65.77,22.75,65.19Z" transform="translate(0 3.9)"/><path class="cls-31" d="M20.29,61.27c.39-1.93,3.91-2.36,4.48-.33s.25,3.5-1.62,4.16S19.89,63.3,20.29,61.27Z" transform="translate(0 3.9)"/><path class="cls-32" d="M21.15,61.29c.19-.94,1.92-1.15,2.2-.16s.12,1.72-.8,2S21,62.29,21.15,61.29Z" transform="translate(0 3.9)"/><path class="cls-33" d="M21.38,61.2c.11-.55,1.12-.68,1.29-.09s.07,1-.47,1.18S21.27,61.78,21.38,61.2Z" transform="translate(0 3.9)"/><path class="cls-31" d="M18.49,60.81c1.74-.9,4.27,1.6,3,3.31s-2.59,2.36-4.27,1.3S16.64,61.75,18.49,60.81Z" transform="translate(0 3.9)"/><path class="cls-32" d="M19,61.5c.85-.44,2.09.78,1.48,1.62s-1.27,1.15-2.09.63S18.09,62,19,61.5Z" transform="translate(0 3.9)"/><path class="cls-33" d="M19.22,61.62c.5-.26,1.22.46.86.94s-.74.68-1.22.38S18.69,61.89,19.22,61.62Z" transform="translate(0 3.9)"/><path class="cls-31" d="M15.61,61.05c-1.12-1.61,1-4.45,2.87-3.45s2.69,2.25,1.86,4.06S16.79,62.76,15.61,61.05Z" transform="translate(0 3.9)"/><path class="cls-32" d="M16.22,60.45c-.55-.79.5-2.18,1.41-1.69s1.32,1.11.91,2S16.8,61.29,16.22,60.45Z" transform="translate(0 3.9)"/><path class="cls-33" d="M16.31,60.22c-.32-.46.29-1.27.82-1s.77.65.54,1.16S16.65,60.71,16.31,60.22Z" transform="translate(0 3.9)"/><path class="cls-31" d="M18.45,56.82c.23-2,3.71-2.66,4.44-.68s.51,3.48-1.3,4.27S18.2,58.88,18.45,56.82Z" transform="translate(0 3.9)"/><path class="cls-32" d="M19.31,56.78c.11-1,1.82-1.3,2.17-.33s.25,1.7-.64,2.09S19.19,57.78,19.31,56.78Z" transform="translate(0 3.9)"/><path class="cls-33" d="M19.53,56.66c.07-.55,1.06-.76,1.27-.19s.15,1-.37,1.22S19.46,57.25,19.53,56.66Z" transform="translate(0 3.9)"/><path class="cls-31" d="M11.53,54.67C11.77,52.73,15.25,52,16,54s.51,3.48-1.31,4.27S11.29,56.73,11.53,54.67Z" transform="translate(0 3.9)"/><path class="cls-32" d="M12.39,54.63c.12-1,1.82-1.3,2.18-.32s.25,1.7-.64,2.08S12.27,55.64,12.39,54.63Z" transform="translate(0 3.9)"/><path class="cls-33" d="M12.62,54.52c.06-.56,1.06-.76,1.27-.19s.14,1-.38,1.22S12.54,55.11,12.62,54.52Z" transform="translate(0 3.9)"/><path class="cls-31" d="M14.86,54.41c.23-1.95,3.71-2.66,4.44-.68S19.81,57.21,18,58,14.61,56.47,14.86,54.41Z" transform="translate(0 3.9)"/><path class="cls-32" d="M15.72,54.37c.11-1,1.82-1.3,2.17-.33s.25,1.7-.64,2.09S15.6,55.37,15.72,54.37Z" transform="translate(0 3.9)"/><path class="cls-33" d="M15.94,54.25c.07-.55,1.06-.76,1.27-.19s.15,1-.37,1.22S15.87,54.84,15.94,54.25Z" transform="translate(0 3.9)"/><path class="cls-31" d="M8.63,49.05c.23-1.95,3.71-2.66,4.44-.67s.51,3.47-1.31,4.27S8.38,51.11,8.63,49.05Z" transform="translate(0 3.9)"/><path class="cls-32" d="M9.48,49c.12-.95,1.82-1.3,2.18-.33s.25,1.7-.64,2.09S9.36,50,9.48,49Z" transform="translate(0 3.9)"/><path class="cls-33" d="M9.71,48.9c.06-.56,1.06-.76,1.27-.2s.14,1-.38,1.23S9.64,49.49,9.71,48.9Z" transform="translate(0 3.9)"/><path class="cls-31" d="M13.19,51.92c-1.4-1.38.16-4.57,2.18-3.93S18.44,49.7,18,51.62,14.68,53.37,13.19,51.92Z" transform="translate(0 3.9)"/><path class="cls-32" d="M13.69,51.21c-.69-.67.07-2.23,1.06-1.92s1.5.84,1.27,1.78S14.41,51.92,13.69,51.21Z" transform="translate(0 3.9)"/><path class="cls-33" d="M13.73,51c-.4-.4,0-1.31.62-1.13s.88.49.74,1S14.16,51.38,13.73,51Z" transform="translate(0 3.9)"/><path class="cls-31" d="M11.25,47.24c-1.4-1.37.16-4.56,2.17-3.93S16.49,45,16,47,12.73,48.7,11.25,47.24Z" transform="translate(0 3.9)"/><path class="cls-32" d="M11.74,46.54c-.69-.67.08-2.24,1.06-1.92s1.5.83,1.27,1.77S12.46,47.25,11.74,46.54Z" transform="translate(0 3.9)"/><path class="cls-33" d="M11.78,46.29c-.4-.39.05-1.3.63-1.12s.87.49.74,1S12.21,46.71,11.78,46.29Z" transform="translate(0 3.9)"/><path class="cls-28" d="M10,42.86c-1.4-1.37.16-4.56,2.18-3.93s3.06,1.71,2.58,3.64S11.46,44.32,10,42.86Z" transform="translate(0 3.9)"/><path class="cls-29" d="M10.47,42.16c-.68-.68.08-2.24,1.07-1.93S13,41.07,12.8,42,11.2,42.87,10.47,42.16Z" transform="translate(0 3.9)"/><path class="cls-30" d="M10.52,41.91c-.4-.39,0-1.3.62-1.12s.88.49.74,1S10.94,42.33,10.52,41.91Z" transform="translate(0 3.9)"/><path class="cls-31" d="M14.85,44.71c-1.4-1.37.16-4.56,2.18-3.93s3.06,1.71,2.58,3.64S16.33,46.17,14.85,44.71Z" transform="translate(0 3.9)"/><path class="cls-32" d="M15.34,44c-.68-.68.08-2.24,1.07-1.93s1.5.84,1.26,1.78S16.07,44.72,15.34,44Z" transform="translate(0 3.9)"/><path class="cls-33" d="M15.39,43.76c-.4-.39,0-1.3.62-1.12s.88.49.74,1S15.81,44.18,15.39,43.76Z" transform="translate(0 3.9)"/><path class="cls-31" d="M11.64,38.19c-1.4-1.38.16-4.57,2.17-3.93S16.88,36,16.4,37.89,13.12,39.64,11.64,38.19Z" transform="translate(0 3.9)"/><path class="cls-32" d="M12.13,37.48c-.69-.67.08-2.23,1.06-1.92s1.5.84,1.27,1.78S12.85,38.19,12.13,37.48Z" transform="translate(0 3.9)"/><path class="cls-33" d="M12.17,37.24c-.4-.4.05-1.31.63-1.13s.87.49.74,1S12.6,37.65,12.17,37.24Z" transform="translate(0 3.9)"/><path class="cls-31" d="M13.67,37.87c.88-1.75,4.39-1.24,4.4.87s-.69,3.44-2.67,3.58S12.74,39.73,13.67,37.87Z" transform="translate(0 3.9)"/><path class="cls-32" d="M14.49,38.12c.43-.85,2.15-.6,2.16.43s-.34,1.68-1.31,1.75S14,39,14.49,38.12Z" transform="translate(0 3.9)"/><path class="cls-33" d="M14.74,38.09c.25-.5,1.25-.35,1.26.25s-.2,1-.77,1S14.47,38.62,14.74,38.09Z" transform="translate(0 3.9)"/><path class="cls-34" d="M13.38,31.35c.88-1.76,4.39-1.25,4.4.87s-.69,3.44-2.67,3.57S12.44,33.2,13.38,31.35Z" transform="translate(0 3.9)"/><path class="cls-35" d="M14.2,31.6c.43-.86,2.15-.61,2.15.43s-.33,1.68-1.3,1.75S13.74,32.51,14.2,31.6Z" transform="translate(0 3.9)"/><path class="cls-36" d="M14.44,31.57c.26-.5,1.26-.36,1.26.25s-.19,1-.76,1S14.18,32.1,14.44,31.57Z" transform="translate(0 3.9)"/><path class="cls-37" d="M15.42,34.17c.88-1.75,4.4-1.24,4.41.87s-.7,3.44-2.67,3.58S14.49,36,15.42,34.17Z" transform="translate(0 3.9)"/><path class="cls-38" d="M16.24,34.42c.43-.86,2.15-.61,2.16.43s-.34,1.68-1.31,1.75S15.79,35.33,16.24,34.42Z" transform="translate(0 3.9)"/><path class="cls-39" d="M16.49,34.39c.25-.5,1.26-.35,1.26.25s-.2,1-.76,1S16.22,34.92,16.49,34.39Z" transform="translate(0 3.9)"/><path class="cls-31" d="M16.59,28.52c.88-1.75,4.39-1.24,4.41.87s-.7,3.45-2.68,3.58S15.66,30.38,16.59,28.52Z" transform="translate(0 3.9)"/><path class="cls-32" d="M17.41,28.77c.43-.85,2.15-.6,2.16.43s-.34,1.69-1.31,1.75S17,29.68,17.41,28.77Z" transform="translate(0 3.9)"/><path class="cls-33" d="M17.66,28.74c.25-.5,1.26-.35,1.26.25s-.2,1-.77,1S17.39,29.27,17.66,28.74Z" transform="translate(0 3.9)"/><path class="cls-31" d="M26.57,25.57c.88-1.76,4.4-1.25,4.41.87s-.69,3.44-2.67,3.57S25.64,27.42,26.57,25.57Z" transform="translate(0 3.9)"/><path class="cls-32" d="M27.4,25.82c.43-.86,2.15-.61,2.15.43s-.34,1.68-1.31,1.75S26.94,26.73,27.4,25.82Z" transform="translate(0 3.9)"/><path class="cls-33" d="M27.64,25.79c.25-.5,1.26-.36,1.26.25s-.2,1-.76,1S27.38,26.32,27.64,25.79Z" transform="translate(0 3.9)"/><path class="cls-31" d="M21.85,25.6c.88-1.75,4.39-1.24,4.4.87s-.69,3.44-2.67,3.58S20.92,27.46,21.85,25.6Z" transform="translate(0 3.9)"/><path class="cls-32" d="M22.67,25.85c.43-.85,2.15-.6,2.16.43S24.49,28,23.52,28,22.21,26.76,22.67,25.85Z" transform="translate(0 3.9)"/><path class="cls-33" d="M22.92,25.82c.25-.5,1.25-.35,1.26.25s-.2,1-.77,1S22.65,26.35,22.92,25.82Z" transform="translate(0 3.9)"/><path class="cls-31" d="M24.71,30.74c-.86-1.76,1.68-4.24,3.36-3s2.32,2.64,1.23,4.29S25.62,32.61,24.71,30.74Z" transform="translate(0 3.9)"/><path class="cls-32" d="M25.41,30.24c-.42-.86.82-2.08,1.65-1.45s1.13,1.29.59,2.1S25.85,31.16,25.41,30.24Z" transform="translate(0 3.9)"/><path class="cls-33" d="M25.53,30c-.24-.51.48-1.22,1-.85s.66.75.35,1.23S25.79,30.56,25.53,30Z" transform="translate(0 3.9)"/><path class="cls-28" d="M19.5,31.82c-.86-1.77,1.68-4.25,3.36-3s2.32,2.64,1.23,4.29S20.41,33.68,19.5,31.82Z" transform="translate(0 3.9)"/><path class="cls-29" d="M20.2,31.32c-.42-.87.82-2.08,1.65-1.46s1.13,1.29.59,2.1S20.64,32.23,20.2,31.32Z" transform="translate(0 3.9)"/><path class="cls-30" d="M20.32,31.1c-.24-.5.48-1.22,1-.85s.66.75.35,1.23S20.58,31.63,20.32,31.1Z" transform="translate(0 3.9)"/><path class="cls-40" d="M18.84,31.41c1.32-1.44,4.56,0,4,2.05s-1.61,3.12-3.55,2.71S17.43,32.94,18.84,31.41Z" transform="translate(0 3.9)"/><path class="cls-41" d="M19.56,31.88c.65-.71,2.23,0,2,1s-.79,1.53-1.74,1.33S18.87,32.63,19.56,31.88Z" transform="translate(0 3.9)"/><path class="cls-42" d="M19.8,31.92c.38-.41,1.31,0,1.15.58s-.46.9-1,.78S19.4,32.36,19.8,31.92Z" transform="translate(0 3.9)"/><path class="cls-31" d="M24.27,31.66c1.32-1.45,4.56,0,4,2s-1.6,3.12-3.54,2.71S22.86,33.19,24.27,31.66Z" transform="translate(0 3.9)"/><path class="cls-32" d="M25,32.13c.65-.71,2.23,0,2,1s-.78,1.52-1.73,1.32S24.3,32.87,25,32.13Z" transform="translate(0 3.9)"/><path class="cls-33" d="M25.23,32.16c.38-.41,1.31,0,1.15.59s-.46.89-1,.77S24.83,32.6,25.23,32.16Z" transform="translate(0 3.9)"/><path class="cls-31" d="M18.89,37.3c1.32-1.44,4.56,0,4,2.05s-1.6,3.12-3.54,2.71S17.48,38.83,18.89,37.3Z" transform="translate(0 3.9)"/><path class="cls-32" d="M19.61,37.77c.65-.7,2.23,0,1.95,1s-.78,1.53-1.73,1.33S18.92,38.52,19.61,37.77Z" transform="translate(0 3.9)"/><path class="cls-33" d="M19.85,37.81c.38-.41,1.31,0,1.15.59s-.46.89-1,.77S19.45,38.25,19.85,37.81Z" transform="translate(0 3.9)"/><path class="cls-31" d="M23.56,35.38c1.32-1.45,4.56,0,4,2S26,40.54,24,40.13,22.15,36.91,23.56,35.38Z" transform="translate(0 3.9)"/><path class="cls-32" d="M24.28,35.85c.65-.71,2.23,0,1.95,1s-.78,1.52-1.73,1.32S23.59,36.59,24.28,35.85Z" transform="translate(0 3.9)"/><path class="cls-33" d="M24.52,35.88c.38-.41,1.31,0,1.15.59s-.46.89-1,.77S24.12,36.32,24.52,35.88Z" transform="translate(0 3.9)"/><path class="cls-31" d="M21.1,41c1.32-1.44,4.56,0,4,2s-1.61,3.12-3.55,2.7S19.69,42.48,21.1,41Z" transform="translate(0 3.9)"/><path class="cls-32" d="M21.82,41.42c.65-.71,2.23,0,1.95,1S23,44,22,43.75,21.13,42.17,21.82,41.42Z" transform="translate(0 3.9)"/><path class="cls-33" d="M22.06,41.46c.38-.42,1.31,0,1.15.58s-.46.9-1,.78S21.66,41.9,22.06,41.46Z" transform="translate(0 3.9)"/><path class="cls-31" d="M15.64,44.65c1.33-1.44,4.57,0,4,2.05S18,49.82,16.09,49.4,14.24,46.18,15.64,44.65Z" transform="translate(0 3.9)"/><path class="cls-32" d="M16.36,45.12c.65-.71,2.24,0,2,1s-.79,1.53-1.74,1.33S15.68,45.87,16.36,45.12Z" transform="translate(0 3.9)"/><path class="cls-33" d="M16.61,45.16c.38-.42,1.31,0,1.14.58s-.46.9-1,.78S16.21,45.6,16.61,45.16Z" transform="translate(0 3.9)"/><path class="cls-31" d="M22,44.16c1.33-1.44,4.57,0,4,2.05s-1.61,3.12-3.55,2.71S20.57,45.69,22,44.16Z" transform="translate(0 3.9)"/><path class="cls-32" d="M22.69,44.63c.65-.7,2.24,0,2,1s-.79,1.53-1.74,1.33S22,45.38,22.69,44.63Z" transform="translate(0 3.9)"/><path class="cls-33" d="M22.94,44.67c.38-.41,1.31,0,1.14.59s-.46.89-1,.77S22.54,45.11,22.94,44.67Z" transform="translate(0 3.9)"/><path class="cls-31" d="M24.86,37.85c1.95-.17,3.36,3.09,1.57,4.21s-3.29,1.22-4.44-.4S22.79,38,24.86,37.85Z" transform="translate(0 3.9)"/><path class="cls-32" d="M25.08,38.68c1-.08,1.64,1.51.76,2.06s-1.61.6-2.17-.19S24.06,38.77,25.08,38.68Z" transform="translate(0 3.9)"/><path class="cls-33" d="M25.23,38.88c.56-.05,1,.88.45,1.2s-.94.35-1.27-.11S24.64,38.93,25.23,38.88Z" transform="translate(0 3.9)"/><path class="cls-31" d="M22.6,33.25c1.95-.17,3.36,3.09,1.57,4.21s-3.3,1.21-4.45-.4S20.53,33.43,22.6,33.25Z" transform="translate(0 3.9)"/><path class="cls-32" d="M22.81,34.08c1-.08,1.65,1.51.77,2.06S22,36.74,21.4,36,21.8,34.17,22.81,34.08Z" transform="translate(0 3.9)"/><path class="cls-33" d="M23,34.27c.56,0,1,.89.45,1.21s-1,.35-1.27-.12S22.38,34.33,23,34.27Z" transform="translate(0 3.9)"/><path class="cls-40" d="M20,40.11c2-.17,3.36,3.09,1.57,4.21s-3.3,1.22-4.45-.4S17.9,40.29,20,40.11Z" transform="translate(0 3.9)"/><path class="cls-41" d="M20.18,41c1-.09,1.65,1.51.77,2.06s-1.61.59-2.17-.2S19.17,41,20.18,41Z" transform="translate(0 3.9)"/><path class="cls-42" d="M20.34,41.14c.56,0,1,.88.45,1.2s-.94.35-1.27-.11S19.75,41.19,20.34,41.14Z" transform="translate(0 3.9)"/><path class="cls-31" d="M18.14,36.68c1.95-.17,3.36,3.09,1.57,4.21s-3.29,1.22-4.44-.4S16.07,36.86,18.14,36.68Z" transform="translate(0 3.9)"/><path class="cls-32" d="M18.36,37.51c.95-.08,1.64,1.52.76,2.06s-1.61.6-2.17-.19S17.34,37.6,18.36,37.51Z" transform="translate(0 3.9)"/><path class="cls-33" d="M18.51,37.71c.56-.05,1,.88.45,1.2s-.94.35-1.27-.11S17.92,37.76,18.51,37.71Z" transform="translate(0 3.9)"/><path class="cls-31" d="M19.82,47.23c1.95-.18,3.36,3.08,1.57,4.2S18.1,52.65,16.94,51,17.75,47.41,19.82,47.23Z" transform="translate(0 3.9)"/><path class="cls-32" d="M20,48.06c1-.09,1.65,1.51.77,2.06s-1.61.59-2.17-.2S19,48.15,20,48.06Z" transform="translate(0 3.9)"/><path class="cls-33" d="M20.19,48.25c.56,0,1,.89.45,1.21s-.94.34-1.27-.12S19.6,48.3,20.19,48.25Z" transform="translate(0 3.9)"/><path class="cls-31" d="M13.1,49.78c2-.17,3.36,3.09,1.57,4.21s-3.29,1.22-4.44-.4S11,50,13.1,49.78Z" transform="translate(0 3.9)"/><path class="cls-32" d="M13.32,50.61c.95-.08,1.64,1.52.76,2.06s-1.61.6-2.17-.19S12.3,50.7,13.32,50.61Z" transform="translate(0 3.9)"/><path class="cls-33" d="M13.47,50.81c.56-.05,1,.88.45,1.2s-.94.35-1.27-.11S12.88,50.86,13.47,50.81Z" transform="translate(0 3.9)"/><path class="cls-40" d="M14.2,45.62c1.95-.17,3.36,3.09,1.57,4.21s-3.3,1.21-4.45-.4S12.13,45.8,14.2,45.62Z" transform="translate(0 3.9)"/><path class="cls-41" d="M14.41,46.45c1-.08,1.65,1.51.77,2.06s-1.61.6-2.18-.19S13.4,46.54,14.41,46.45Z" transform="translate(0 3.9)"/><path class="cls-42" d="M14.57,46.64c.56,0,1,.89.45,1.21s-.95.35-1.28-.12S14,46.7,14.57,46.64Z" transform="translate(0 3.9)"/><path class="cls-31" d="M25,47.23c2-.18,3.37,3.08,1.57,4.2s-3.29,1.22-4.44-.39S22.94,47.41,25,47.23Z" transform="translate(0 3.9)"/><path class="cls-32" d="M25.22,48.06c1-.09,1.65,1.51.77,2.06s-1.61.59-2.18-.2S24.21,48.15,25.22,48.06Z" transform="translate(0 3.9)"/><path class="cls-33" d="M25.38,48.25c.55,0,1,.89.45,1.21s-.95.34-1.28-.12S24.78,48.3,25.38,48.25Z" transform="translate(0 3.9)"/><path class="cls-31" d="M22.37,48.2c2-.17,3.37,3.09,1.57,4.21s-3.29,1.21-4.44-.4S20.31,48.38,22.37,48.2Z" transform="translate(0 3.9)"/><path class="cls-32" d="M22.59,49c1-.08,1.65,1.51.77,2.06s-1.61.6-2.18-.19S21.58,49.12,22.59,49Z" transform="translate(0 3.9)"/><path class="cls-33" d="M22.75,49.23c.56,0,1,.88.45,1.2s-.95.35-1.28-.11S22.15,49.28,22.75,49.23Z" transform="translate(0 3.9)"/><path class="cls-43" d="M20.33,49.64c2-.18,3.36,3.08,1.57,4.2s-3.29,1.22-4.44-.39S18.26,49.82,20.33,49.64Z" transform="translate(0 3.9)"/><path class="cls-44" d="M20.55,50.47c.95-.09,1.64,1.51.76,2.06s-1.61.59-2.17-.2S19.53,50.56,20.55,50.47Z" transform="translate(0 3.9)"/><path class="cls-45" d="M20.7,50.66c.56,0,1,.89.45,1.21s-.94.34-1.27-.12S20.11,50.71,20.7,50.66Z" transform="translate(0 3.9)"/><path class="cls-31" d="M20.87,52.61c1.95-.18,3.36,3.08,1.57,4.2S19.14,58,18,56.42,18.8,52.79,20.87,52.61Z" transform="translate(0 3.9)"/><path class="cls-32" d="M21.08,53.44c1-.09,1.65,1.51.77,2.06s-1.61.59-2.18-.2S20.07,53.53,21.08,53.44Z" transform="translate(0 3.9)"/><path class="cls-33" d="M21.24,53.63c.56-.05,1,.89.45,1.21s-1,.34-1.27-.12S20.65,53.68,21.24,53.63Z" transform="translate(0 3.9)"/><path class="cls-31" d="M43.26,51.14c2-.17,3.37,3.09,1.57,4.21s-3.29,1.22-4.44-.39S41.19,51.33,43.26,51.14Z" transform="translate(0 3.9)"/><path class="cls-32" d="M43.48,52c1-.09,1.64,1.51.77,2.06s-1.62.59-2.18-.2S42.47,52.07,43.48,52Z" transform="translate(0 3.9)"/><path class="cls-33" d="M43.63,52.17c.56-.05,1,.88.45,1.2s-.94.35-1.27-.11S43,52.22,43.63,52.17Z" transform="translate(0 3.9)"/><path class="cls-31" d="M36.66,55.68c2-.17,3.36,3.09,1.57,4.21s-3.29,1.22-4.44-.4S34.59,55.86,36.66,55.68Z" transform="translate(0 3.9)"/><path class="cls-32" d="M36.88,56.51c.95-.08,1.64,1.52.76,2.06s-1.61.6-2.17-.19S35.86,56.6,36.88,56.51Z" transform="translate(0 3.9)"/><path class="cls-33" d="M37,56.71c.56-.05,1,.88.45,1.2s-.94.35-1.27-.11S36.44,56.76,37,56.71Z" transform="translate(0 3.9)"/><path class="cls-31" d="M37,58.6c2-.17,3.37,3.09,1.57,4.21s-3.29,1.22-4.44-.4S34.88,58.78,37,58.6Z" transform="translate(0 3.9)"/><path class="cls-32" d="M37.17,59.43c.95-.08,1.64,1.52.77,2.06s-1.62.6-2.18-.19S36.15,59.52,37.17,59.43Z" transform="translate(0 3.9)"/><path class="cls-33" d="M37.32,59.63c.56-.05,1,.88.45,1.2s-.94.35-1.27-.11S36.73,59.68,37.32,59.63Z" transform="translate(0 3.9)"/><path class="cls-31" d="M43.09,59.19c1.95-.17,3.36,3.09,1.57,4.2s-3.3,1.22-4.45-.39S41,59.37,43.09,59.19Z" transform="translate(0 3.9)"/><path class="cls-32" d="M43.3,60c1-.08,1.65,1.51.77,2.06s-1.61.59-2.17-.2S42.29,60.11,43.3,60Z" transform="translate(0 3.9)"/><path class="cls-33" d="M43.46,60.21c.56-.05,1,.89.45,1.21s-.94.34-1.27-.12S42.87,60.26,43.46,60.21Z" transform="translate(0 3.9)"/><path class="cls-31" d="M40.07,58.8c2-.17,3.36,3.09,1.57,4.21s-3.3,1.21-4.45-.4S38,59,40.07,58.8Z" transform="translate(0 3.9)"/><path class="cls-32" d="M40.28,59.63c1-.08,1.65,1.51.77,2.06s-1.61.59-2.17-.2S39.27,59.72,40.28,59.63Z" transform="translate(0 3.9)"/><path class="cls-33" d="M40.44,59.82c.56,0,1,.89.45,1.21s-.94.35-1.27-.12S39.85,59.87,40.44,59.82Z" transform="translate(0 3.9)"/><path class="cls-46" d="M39.58,62.3c2-.17,3.37,3.09,1.57,4.21s-3.29,1.22-4.44-.4S37.51,62.48,39.58,62.3Z" transform="translate(0 3.9)"/><path class="cls-47" d="M39.8,63.13c1-.08,1.64,1.52.77,2.06s-1.62.6-2.18-.19S38.78,63.22,39.8,63.13Z" transform="translate(0 3.9)"/><path class="cls-48" d="M40,63.33c.56,0,1,.88.45,1.2s-.94.35-1.27-.11S39.36,63.38,40,63.33Z" transform="translate(0 3.9)"/><path class="cls-31" d="M46,61.91c2-.17,3.36,3.09,1.57,4.21s-3.3,1.22-4.45-.4S43.94,62.09,46,61.91Z" transform="translate(0 3.9)"/><path class="cls-32" d="M46.22,62.75c1-.09,1.65,1.51.77,2.06s-1.61.59-2.17-.2S45.21,62.83,46.22,62.75Z" transform="translate(0 3.9)"/><path class="cls-33" d="M46.38,62.94c.56,0,1,.88.45,1.2s-.94.35-1.27-.11S45.79,63,46.38,62.94Z" transform="translate(0 3.9)"/><path class="cls-31" d="M51.46,60.55c2-.17,3.37,3.09,1.57,4.21s-3.29,1.22-4.44-.4S49.39,60.73,51.46,60.55Z" transform="translate(0 3.9)"/><path class="cls-32" d="M51.68,61.38c1-.08,1.64,1.51.77,2.06s-1.62.6-2.18-.19S50.66,61.47,51.68,61.38Z" transform="translate(0 3.9)"/><path class="cls-33" d="M51.83,61.58c.56,0,1,.88.45,1.2s-.94.35-1.27-.11S51.24,61.63,51.83,61.58Z" transform="translate(0 3.9)"/><path class="cls-31" d="M47.37,57.14c2-.17,3.37,3.09,1.57,4.21s-3.29,1.22-4.44-.4S45.3,57.32,47.37,57.14Z" transform="translate(0 3.9)"/><path class="cls-32" d="M47.59,58c.95-.08,1.64,1.52.77,2.06s-1.62.6-2.18-.19S46.57,58.06,47.59,58Z" transform="translate(0 3.9)"/><path class="cls-33" d="M47.74,58.17c.56-.05,1,.88.45,1.2s-.94.35-1.27-.11S47.15,58.22,47.74,58.17Z" transform="translate(0 3.9)"/><path class="cls-31" d="M47.08,53c2-.17,3.36,3.09,1.57,4.21s-3.29,1.22-4.45-.4S45,53.13,47.08,53Z" transform="translate(0 3.9)"/><path class="cls-32" d="M47.29,53.79c1-.09,1.65,1.51.77,2.06s-1.61.59-2.17-.2S46.28,53.87,47.29,53.79Z" transform="translate(0 3.9)"/><path class="cls-33" d="M47.45,54c.56,0,1,.88.45,1.2s-.94.35-1.27-.11S46.86,54,47.45,54Z" transform="translate(0 3.9)"/><path class="cls-31" d="M48.64,47.6c2-.17,3.36,3.09,1.57,4.21s-3.3,1.21-4.45-.4S46.57,47.78,48.64,47.6Z" transform="translate(0 3.9)"/><path class="cls-32" d="M48.85,48.43c1-.08,1.65,1.51.77,2.06s-1.61.6-2.17-.19S47.84,48.52,48.85,48.43Z" transform="translate(0 3.9)"/><path class="cls-33" d="M49,48.62c.56,0,1,.89.45,1.21s-.94.35-1.27-.12S48.42,48.68,49,48.62Z" transform="translate(0 3.9)"/><path class="cls-31" d="M46,44.38c2-.17,3.36,3.09,1.57,4.21s-3.3,1.22-4.45-.39S43.94,44.57,46,44.38Z" transform="translate(0 3.9)"/><path class="cls-32" d="M46.22,45.22c1-.09,1.65,1.51.77,2.06s-1.61.59-2.17-.2S45.21,45.31,46.22,45.22Z" transform="translate(0 3.9)"/><path class="cls-33" d="M46.38,45.41c.56,0,1,.88.45,1.2s-.94.35-1.27-.11S45.79,45.46,46.38,45.41Z" transform="translate(0 3.9)"/><path class="cls-31" d="M46.79,37c2-.17,3.36,3.09,1.57,4.21s-3.3,1.22-4.45-.4S44.72,37.16,46.79,37Z" transform="translate(0 3.9)"/><path class="cls-32" d="M47,37.82c1-.09,1.65,1.51.77,2.06s-1.61.59-2.17-.2S46,37.9,47,37.82Z" transform="translate(0 3.9)"/><path class="cls-33" d="M47.16,38c.56,0,1,.88.45,1.2s-.94.35-1.27-.11S46.57,38.06,47.16,38Z" transform="translate(0 3.9)"/><path class="cls-31" d="M47.08,33.19c2-.17,3.36,3.09,1.57,4.2S45.36,38.61,44.2,37,45,33.37,47.08,33.19Z" transform="translate(0 3.9)"/><path class="cls-32" d="M47.29,34c1-.08,1.65,1.51.77,2.06s-1.61.59-2.17-.2S46.28,34.11,47.29,34Z" transform="translate(0 3.9)"/><path class="cls-33" d="M47.45,34.21c.56-.05,1,.89.45,1.21s-.94.34-1.27-.12S46.86,34.26,47.45,34.21Z" transform="translate(0 3.9)"/><path class="cls-31" d="M36.5,28.81c.76-1.81,4.3-1.54,4.46.57s-.46,3.48-2.43,3.75S35.7,30.72,36.5,28.81Z" transform="translate(0 3.9)"/><path class="cls-32" d="M37.34,29c.37-.89,2.1-.76,2.18.28s-.23,1.7-1.19,1.83S36.94,29.94,37.34,29Z" transform="translate(0 3.9)"/><path class="cls-33" d="M37.58,29c.22-.52,1.23-.44,1.28.16s-.13,1-.7,1.07S37.35,29.51,37.58,29Z" transform="translate(0 3.9)"/><path class="cls-31" d="M39.86,29.28c.76-1.81,4.3-1.54,4.45.57s-.46,3.48-2.42,3.75S39.05,31.19,39.86,29.28Z" transform="translate(0 3.9)"/><path class="cls-32" d="M40.69,29.48c.38-.89,2.11-.76,2.18.28s-.22,1.7-1.18,1.83S40.3,30.41,40.69,29.48Z" transform="translate(0 3.9)"/><path class="cls-33" d="M40.94,29.43c.22-.52,1.23-.44,1.27.16s-.13,1-.69,1.07S40.71,30,40.94,29.43Z" transform="translate(0 3.9)"/><path class="cls-31" d="M40.31,30.63c-1.63-1.09-.68-4.51,1.42-4.26s3.33,1.12,3.21,3.1S42,31.79,40.31,30.63Z" transform="translate(0 3.9)"/><path class="cls-32" d="M40.67,29.85c-.8-.53-.33-2.21.69-2.09s1.63.55,1.57,1.52S41.51,30.42,40.67,29.85Z" transform="translate(0 3.9)"/><path class="cls-33" d="M40.67,29.6c-.47-.31-.2-1.29.4-1.22s1,.32.92.89S41.16,29.93,40.67,29.6Z" transform="translate(0 3.9)"/><path class="cls-31" d="M43.71,30c.76-1.81,4.3-1.54,4.45.57S47.7,34,45.74,34.3,42.9,31.89,43.71,30Z" transform="translate(0 3.9)"/><path class="cls-32" d="M44.54,30.17c.38-.88,2.11-.75,2.19.28s-.23,1.71-1.19,1.84S44.15,31.11,44.54,30.17Z" transform="translate(0 3.9)"/><path class="cls-33" d="M44.79,30.13c.22-.52,1.23-.44,1.27.16s-.13,1-.69,1.07S44.56,30.67,44.79,30.13Z" transform="translate(0 3.9)"/><path class="cls-37" d="M43.52,26.08c.76-1.81,4.3-1.54,4.45.57s-.45,3.48-2.42,3.75S42.71,28,43.52,26.08Z" transform="translate(0 3.9)"/><path class="cls-38" d="M44.36,26.27c.37-.88,2.1-.75,2.18.28s-.23,1.71-1.19,1.84S44,27.21,44.36,26.27Z" transform="translate(0 3.9)"/><path class="cls-39" d="M44.6,26.23c.22-.52,1.23-.44,1.27.16s-.13,1-.69,1.07S44.37,26.77,44.6,26.23Z" transform="translate(0 3.9)"/><path class="cls-31" d="M47,33.19c.76-1.81,4.3-1.54,4.45.57s-.46,3.48-2.42,3.75S46.21,35.1,47,33.19Z" transform="translate(0 3.9)"/><path class="cls-32" d="M47.86,33.39c.37-.89,2.1-.75,2.18.28s-.23,1.7-1.19,1.83S47.46,34.32,47.86,33.39Z" transform="translate(0 3.9)"/><path class="cls-33" d="M48.1,33.34c.22-.52,1.23-.44,1.27.16s-.13,1-.69,1.08S47.87,33.89,48.1,33.34Z" transform="translate(0 3.9)"/><path class="cls-31" d="M37.09,39.32c.76-1.8,4.3-1.53,4.45.58s-.46,3.48-2.42,3.74S36.28,41.24,37.09,39.32Z" transform="translate(0 3.9)"/><path class="cls-32" d="M37.92,39.52c.38-.88,2.11-.75,2.18.28s-.22,1.71-1.18,1.84S37.53,40.46,37.92,39.52Z" transform="translate(0 3.9)"/><path class="cls-33" d="M38.17,39.47c.22-.51,1.23-.43,1.27.17s-.13,1-.69,1.07S37.94,40,38.17,39.47Z" transform="translate(0 3.9)"/><path class="cls-31" d="M43.67,54.9c2-.17,3.37,3.09,1.57,4.21s-3.29,1.22-4.44-.4S41.6,55.08,43.67,54.9Z" transform="translate(0 3.9)"/><path class="cls-32" d="M43.89,55.73c1-.08,1.64,1.52.77,2.06s-1.62.6-2.18-.19S42.87,55.82,43.89,55.73Z" transform="translate(0 3.9)"/><path class="cls-33" d="M44,55.93c.56,0,1,.88.45,1.2s-.94.35-1.27-.11S43.45,56,44,55.93Z" transform="translate(0 3.9)"/><path class="cls-31" d="M24.27,50.73c2-.17,3.37,3.09,1.57,4.21s-3.29,1.22-4.44-.4S22.21,50.91,24.27,50.73Z" transform="translate(0 3.9)"/><path class="cls-32" d="M24.49,51.56c1-.08,1.65,1.52.77,2.06s-1.61.6-2.18-.19S23.48,51.65,24.49,51.56Z" transform="translate(0 3.9)"/><path class="cls-33" d="M24.65,51.76c.55,0,1,.88.44,1.2s-.94.35-1.27-.11S24.05,51.81,24.65,51.76Z" transform="translate(0 3.9)"/><path class="cls-28" d="M46.76,50.25c2-.17,3.37,3.09,1.57,4.21s-3.29,1.22-4.44-.4S44.69,50.43,46.76,50.25Z" transform="translate(0 3.9)"/><path class="cls-29" d="M47,51.08c1-.08,1.65,1.52.77,2.06s-1.62.6-2.18-.19S46,51.17,47,51.08Z" transform="translate(0 3.9)"/><path class="cls-49" d="M47.13,51.28c.56-.05,1,.88.45,1.2s-.94.35-1.27-.11S46.54,51.33,47.13,51.28Z" transform="translate(0 3.9)"/><path class="cls-31" d="M39.07,47.82c2-.17,3.36,3.09,1.57,4.21s-3.29,1.21-4.44-.4S37,48,39.07,47.82Z" transform="translate(0 3.9)"/><path class="cls-32" d="M39.29,48.65c1-.08,1.64,1.51.76,2.06s-1.61.6-2.17-.2S38.27,48.74,39.29,48.65Z" transform="translate(0 3.9)"/><path class="cls-33" d="M39.44,48.84c.56-.05,1,.89.45,1.21s-.94.35-1.27-.12S38.85,48.9,39.44,48.84Z" transform="translate(0 3.9)"/><path class="cls-37" d="M23.73,55.15c2-.18,3.37,3.08,1.57,4.2S22,60.57,20.86,59,21.66,55.33,23.73,55.15Z" transform="translate(0 3.9)"/><path class="cls-38" d="M24,56c.95-.09,1.65,1.51.77,2.06s-1.61.59-2.18-.2S22.94,56.07,24,56Z" transform="translate(0 3.9)"/><path class="cls-49" d="M24.1,56.17c.56-.05,1,.89.45,1.21s-.94.34-1.27-.12S23.51,56.22,24.1,56.17Z" transform="translate(0 3.9)"/><path class="cls-31" d="M28.92,57.7c1.95-.17,3.36,3.09,1.57,4.21s-3.29,1.22-4.45-.4S26.85,57.88,28.92,57.7Z" transform="translate(0 3.9)"/><path class="cls-32" d="M29.13,58.53c1-.08,1.65,1.52.77,2.06s-1.61.6-2.17-.19S28.12,58.62,29.13,58.53Z" transform="translate(0 3.9)"/><path class="cls-33" d="M29.29,58.73c.56,0,1,.88.45,1.2s-.94.35-1.27-.11S28.7,58.78,29.29,58.73Z" transform="translate(0 3.9)"/><path class="cls-40" d="M26.51,58.94c1.95-.17,3.36,3.09,1.57,4.21s-3.3,1.22-4.45-.4S24.44,59.12,26.51,58.94Z" transform="translate(0 3.9)"/><path class="cls-41" d="M26.72,59.78c1-.09,1.65,1.51.77,2.06s-1.61.59-2.17-.2S25.71,59.86,26.72,59.78Z" transform="translate(0 3.9)"/><path class="cls-42" d="M26.88,60c.56,0,1,.88.45,1.2s-.94.35-1.27-.11S26.29,60,26.88,60Z" transform="translate(0 3.9)"/><path class="cls-31" d="M29.42,62.23c1-1.7,4.46-1,4.34,1.14s-.9,3.39-2.88,3.4S28.37,64,29.42,62.23Z" transform="translate(0 3.9)"/><path class="cls-32" d="M30.22,62.53c.49-.83,2.19-.48,2.13.56s-.44,1.66-1.41,1.66S29.71,63.41,30.22,62.53Z" transform="translate(0 3.9)"/><path class="cls-33" d="M30.47,62.51c.28-.48,1.28-.27,1.24.33s-.25,1-.82,1S30.17,63,30.47,62.51Z" transform="translate(0 3.9)"/><path class="cls-31" d="M29.3,53.63c1-1.69,4.46-1,4.34,1.14s-.9,3.4-2.88,3.41S28.25,55.43,29.3,53.63Z" transform="translate(0 3.9)"/><path class="cls-32" d="M30.1,53.94c.48-.83,2.19-.48,2.13.55s-.44,1.66-1.41,1.67S29.59,54.81,30.1,53.94Z" transform="translate(0 3.9)"/><path class="cls-33" d="M30.35,53.92c.28-.49,1.28-.28,1.24.33s-.26,1-.82,1S30.05,54.43,30.35,53.92Z" transform="translate(0 3.9)"/><path class="cls-40" d="M26.62,52.51c1-1.69,4.46-1,4.34,1.14s-.9,3.4-2.88,3.41S25.57,54.31,26.62,52.51Z" transform="translate(0 3.9)"/><path class="cls-41" d="M27.42,52.82c.49-.83,2.19-.48,2.13.55S29.11,55,28.14,55,26.91,53.69,27.42,52.82Z" transform="translate(0 3.9)"/><path class="cls-42" d="M27.67,52.8c.28-.49,1.28-.28,1.24.33s-.25,1-.82,1S27.37,53.31,27.67,52.8Z" transform="translate(0 3.9)"/><path class="cls-31" d="M31.24,57.24c1-1.7,4.47-1,4.35,1.14s-.9,3.39-2.89,3.4S30.2,59,31.24,57.24Z" transform="translate(0 3.9)"/><path class="cls-32" d="M32.05,57.54c.48-.83,2.18-.48,2.13.56s-.45,1.66-1.42,1.66S31.54,58.42,32.05,57.54Z" transform="translate(0 3.9)"/><path class="cls-33" d="M32.3,57.52c.28-.48,1.27-.28,1.24.33s-.26,1-.83,1S32,58,32.3,57.52Z" transform="translate(0 3.9)"/><path class="cls-31" d="M32.22,49.83c1-1.69,4.46-1,4.34,1.14s-.9,3.4-2.88,3.41S31.17,51.63,32.22,49.83Z" transform="translate(0 3.9)"/><path class="cls-32" d="M33,50.14c.49-.83,2.19-.48,2.13.56s-.44,1.66-1.41,1.66S32.51,51,33,50.14Z" transform="translate(0 3.9)"/><path class="cls-33" d="M33.27,50.12c.28-.48,1.28-.28,1.24.33s-.25,1-.82,1S33,50.64,33.27,50.12Z" transform="translate(0 3.9)"/><path class="cls-46" d="M29.78,50.22c1-1.69,4.47-1,4.35,1.14s-.9,3.4-2.89,3.41S28.74,52,29.78,50.22Z" transform="translate(0 3.9)"/><path class="cls-47" d="M30.59,50.53c.48-.83,2.18-.48,2.12.56s-.44,1.66-1.41,1.66S30.08,51.41,30.59,50.53Z" transform="translate(0 3.9)"/><path class="cls-48" d="M30.84,50.51c.28-.48,1.27-.28,1.24.33s-.26,1-.83,1S30.54,51,30.84,50.51Z" transform="translate(0 3.9)"/><path class="cls-31" d="M26.08,49c1-1.7,4.47-1,4.35,1.14s-.9,3.39-2.89,3.4S25,50.75,26.08,49Z" transform="translate(0 3.9)"/><path class="cls-32" d="M26.89,49.26c.48-.83,2.18-.47,2.12.56s-.44,1.66-1.41,1.67S26.38,50.14,26.89,49.26Z" transform="translate(0 3.9)"/><path class="cls-33" d="M27.14,49.25c.28-.49,1.27-.28,1.24.32s-.26,1-.83,1S26.84,49.76,27.14,49.25Z" transform="translate(0 3.9)"/><path class="cls-31" d="M24.91,45.94c1-1.7,4.47-1,4.35,1.14s-.9,3.39-2.89,3.4S23.87,47.73,24.91,45.94Z" transform="translate(0 3.9)"/><path class="cls-32" d="M25.72,46.24c.48-.83,2.18-.47,2.13.56s-.45,1.66-1.42,1.67S25.21,47.12,25.72,46.24Z" transform="translate(0 3.9)"/><path class="cls-33" d="M26,46.23c.28-.49,1.27-.28,1.24.32s-.26,1-.83,1S25.67,46.74,26,46.23Z" transform="translate(0 3.9)"/><path class="cls-37" d="M23.25,44.74c1-1.7,4.47-1,4.35,1.14s-.9,3.39-2.89,3.4S22.21,46.53,23.25,44.74Z" transform="translate(0 3.9)"/><path class="cls-38" d="M24.06,45c.48-.83,2.18-.48,2.12.56s-.44,1.66-1.41,1.66S23.55,45.92,24.06,45Z" transform="translate(0 3.9)"/><path class="cls-39" d="M24.31,45c.28-.48,1.27-.28,1.24.33s-.26,1-.83,1S24,45.54,24.31,45Z" transform="translate(0 3.9)"/><path class="cls-31" d="M23.35,42.11c1-1.7,4.46-1,4.35,1.14s-.91,3.39-2.89,3.4S22.31,43.9,23.35,42.11Z" transform="translate(0 3.9)"/><path class="cls-32" d="M24.16,42.41c.48-.83,2.18-.48,2.12.56s-.44,1.66-1.41,1.66S23.64,43.29,24.16,42.41Z" transform="translate(0 3.9)"/><path class="cls-49" d="M24.4,42.39c.29-.48,1.28-.27,1.25.33s-.26,1-.83,1S24.11,42.91,24.4,42.39Z" transform="translate(0 3.9)"/><path class="cls-31" d="M31.34,45.65c1-1.7,4.46-1,4.35,1.14s-.91,3.39-2.89,3.4S30.3,47.44,31.34,45.65Z" transform="translate(0 3.9)"/><path class="cls-32" d="M32.15,46c.48-.83,2.18-.47,2.12.56s-.44,1.66-1.41,1.66S31.64,46.83,32.15,46Z" transform="translate(0 3.9)"/><path class="cls-33" d="M32.39,45.93c.29-.48,1.28-.27,1.25.33s-.26,1-.83,1S32.1,46.45,32.39,45.93Z" transform="translate(0 3.9)"/><path class="cls-31" d="M33.68,45.16c1-1.7,4.46-1,4.34,1.14s-.9,3.39-2.88,3.4S32.63,47,33.68,45.16Z" transform="translate(0 3.9)"/><path class="cls-32" d="M34.48,45.46c.49-.83,2.19-.47,2.13.56s-.44,1.66-1.41,1.67S34,46.34,34.48,45.46Z" transform="translate(0 3.9)"/><path class="cls-33" d="M34.73,45.45C35,45,36,45.17,36,45.77s-.25,1-.82,1S34.43,46,34.73,45.45Z" transform="translate(0 3.9)"/><path class="cls-31" d="M31.05,43.8c1-1.7,4.46-1,4.34,1.14s-.9,3.39-2.88,3.4S30,45.59,31.05,43.8Z" transform="translate(0 3.9)"/><path class="cls-32" d="M31.85,44.1c.49-.83,2.19-.47,2.13.56s-.44,1.66-1.41,1.66S31.34,45,31.85,44.1Z" transform="translate(0 3.9)"/><path class="cls-33" d="M32.1,44.08c.28-.48,1.28-.27,1.25.33s-.26,1-.83,1S31.8,44.6,32.1,44.08Z" transform="translate(0 3.9)"/><path class="cls-31" d="M36.78,42.68c1-1.7,4.46-1,4.34,1.14s-.9,3.39-2.89,3.4S35.73,44.47,36.78,42.68Z" transform="translate(0 3.9)"/><path class="cls-32" d="M37.58,43c.48-.83,2.18-.48,2.13.56s-.45,1.66-1.42,1.66S37.07,43.86,37.58,43Z" transform="translate(0 3.9)"/><path class="cls-33" d="M37.83,43c.28-.48,1.28-.27,1.24.33s-.26,1-.82,1S37.53,43.48,37.83,43Z" transform="translate(0 3.9)"/><path class="cls-31" d="M34.65,41c1-1.69,4.47-1,4.35,1.14s-.9,3.4-2.89,3.41S33.61,42.77,34.65,41Z" transform="translate(0 3.9)"/><path class="cls-32" d="M35.46,41.28c.48-.83,2.18-.48,2.12.55s-.44,1.67-1.41,1.67S35,42.15,35.46,41.28Z" transform="translate(0 3.9)"/><path class="cls-33" d="M35.71,41.26C36,40.78,37,41,37,41.59s-.26,1-.83,1S35.41,41.77,35.71,41.26Z" transform="translate(0 3.9)"/><path class="cls-28" d="M36.11,46c1-1.7,4.47-1,4.35,1.14s-.9,3.39-2.89,3.4S35.07,47.83,36.11,46Z" transform="translate(0 3.9)"/><path class="cls-29" d="M36.92,46.34c.48-.83,2.18-.48,2.12.56s-.44,1.66-1.41,1.66S36.41,47.22,36.92,46.34Z" transform="translate(0 3.9)"/><path class="cls-30" d="M37.17,46.32c.28-.48,1.27-.27,1.24.33s-.26,1-.83,1S36.87,46.84,37.17,46.32Z" transform="translate(0 3.9)"/><path class="cls-31" d="M47.14,38.81c1-1.7,4.47-1,4.35,1.14s-.91,3.39-2.89,3.4S46.1,40.6,47.14,38.81Z" transform="translate(0 3.9)"/><path class="cls-32" d="M48,39.11c.48-.83,2.18-.47,2.12.56s-.44,1.66-1.41,1.67S47.44,40,48,39.11Z" transform="translate(0 3.9)"/><path class="cls-33" d="M48.19,39.1c.29-.49,1.28-.28,1.25.32s-.26,1-.83,1S47.9,39.61,48.19,39.1Z" transform="translate(0 3.9)"/><path class="cls-31" d="M46.75,42.9c1-1.7,4.47-1,4.35,1.14s-.9,3.39-2.89,3.4S45.71,44.69,46.75,42.9Z" transform="translate(0 3.9)"/><path class="cls-32" d="M47.56,43.2c.48-.83,2.18-.47,2.12.56s-.44,1.66-1.41,1.67S47.05,44.08,47.56,43.2Z" transform="translate(0 3.9)"/><path class="cls-33" d="M47.81,43.19c.28-.49,1.27-.28,1.24.32s-.26,1-.83,1S47.51,43.7,47.81,43.19Z" transform="translate(0 3.9)"/><path class="cls-31" d="M48,53.8c1-1.69,4.46-1,4.34,1.15s-.9,3.39-2.88,3.4S47,55.6,48,53.8Z" transform="translate(0 3.9)"/><path class="cls-32" d="M48.82,54.11c.49-.83,2.19-.48,2.13.56s-.44,1.66-1.41,1.66S48.31,55,48.82,54.11Z" transform="translate(0 3.9)"/><path class="cls-33" d="M49.07,54.09c.28-.48,1.28-.28,1.24.33s-.25,1-.82,1S48.77,54.61,49.07,54.09Z" transform="translate(0 3.9)"/><path class="cls-31" d="M49.77,57.8c1-1.7,4.46-1,4.35,1.14s-.91,3.39-2.89,3.4S48.73,59.59,49.77,57.8Z" transform="translate(0 3.9)"/><path class="cls-32" d="M50.58,58.1c.48-.83,2.18-.47,2.12.56s-.44,1.66-1.41,1.66S50.06,59,50.58,58.1Z" transform="translate(0 3.9)"/><path class="cls-33" d="M50.82,58.08c.29-.48,1.28-.27,1.25.33s-.26,1-.83,1S50.53,58.6,50.82,58.08Z" transform="translate(0 3.9)"/><path class="cls-28" d="M52.6,58.19c1-1.7,4.46-1,4.34,1.14s-.9,3.39-2.89,3.4S51.55,60,52.6,58.19Z" transform="translate(0 3.9)"/><path class="cls-29" d="M53.4,58.49c.48-.83,2.18-.48,2.13.56s-.45,1.66-1.42,1.66S52.89,59.37,53.4,58.49Z" transform="translate(0 3.9)"/><path class="cls-30" d="M53.65,58.47c.28-.48,1.27-.27,1.24.33s-.26,1-.82,1S53.35,59,53.65,58.47Z" transform="translate(0 3.9)"/><path class="cls-31" d="M48.89,50c1-1.7,4.47-1,4.35,1.14s-.9,3.39-2.89,3.4S47.85,51.8,48.89,50Z" transform="translate(0 3.9)"/><path class="cls-32" d="M49.7,50.31c.48-.83,2.18-.47,2.13.56s-.45,1.66-1.42,1.66S49.19,51.19,49.7,50.31Z" transform="translate(0 3.9)"/><path class="cls-33" d="M50,50.29c.28-.48,1.27-.27,1.24.33s-.26,1-.82,1S49.65,50.81,50,50.29Z" transform="translate(0 3.9)"/><path class="cls-31" d="M53.47,47c1-1.7,4.46-1,4.35,1.14s-.91,3.39-2.89,3.4S52.43,48.78,53.47,47Z" transform="translate(0 3.9)"/><path class="cls-32" d="M54.28,47.29c.48-.83,2.18-.47,2.12.56S56,49.51,55,49.52,53.77,48.17,54.28,47.29Z" transform="translate(0 3.9)"/><path class="cls-33" d="M54.52,47.28c.29-.49,1.28-.28,1.25.32s-.26,1-.83,1S54.23,47.79,54.52,47.28Z" transform="translate(0 3.9)"/><path class="cls-31" d="M50.47,49.12c1-1.7,4.47-1,4.35,1.14s-.9,3.39-2.89,3.4S49.43,50.91,50.47,49.12Z" transform="translate(0 3.9)"/><path class="cls-32" d="M51.28,49.42c.48-.83,2.18-.47,2.12.56S53,51.64,52,51.64,50.77,50.3,51.28,49.42Z" transform="translate(0 3.9)"/><path class="cls-33" d="M51.53,49.4c.28-.48,1.27-.27,1.24.33s-.26,1-.83,1S51.23,49.92,51.53,49.4Z" transform="translate(0 3.9)"/><path class="cls-37" d="M49.77,44.85c1-1.7,4.46-1,4.35,1.14s-.91,3.39-2.89,3.4S48.73,46.64,49.77,44.85Z" transform="translate(0 3.9)"/><path class="cls-38" d="M50.58,45.15c.48-.83,2.18-.48,2.12.56s-.44,1.66-1.41,1.66S50.06,46,50.58,45.15Z" transform="translate(0 3.9)"/><path class="cls-39" d="M50.82,45.13c.29-.48,1.28-.27,1.25.33s-.26,1-.83,1S50.53,45.65,50.82,45.13Z" transform="translate(0 3.9)"/><path class="cls-31" d="M57.34,50.38c1-1.69,4.46-1,4.34,1.14s-.9,3.4-2.88,3.41S56.29,52.18,57.34,50.38Z" transform="translate(0 3.9)"/><path class="cls-32" d="M58.14,50.69c.48-.83,2.19-.48,2.13.55s-.44,1.67-1.42,1.67S57.63,51.57,58.14,50.69Z" transform="translate(0 3.9)"/><path class="cls-33" d="M58.39,50.67c.28-.48,1.28-.28,1.24.33s-.26,1-.82,1S58.09,51.18,58.39,50.67Z" transform="translate(0 3.9)"/><path class="cls-31" d="M57.83,42.89c1-1.7,4.46-1,4.34,1.14s-.9,3.39-2.89,3.4S56.78,44.68,57.83,42.89Z" transform="translate(0 3.9)"/><path class="cls-32" d="M58.63,43.19c.48-.83,2.18-.48,2.13.56s-.44,1.66-1.42,1.66S58.12,44.07,58.63,43.19Z" transform="translate(0 3.9)"/><path class="cls-33" d="M58.88,43.17c.28-.48,1.28-.28,1.24.33s-.26,1-.82,1S58.58,43.69,58.88,43.17Z" transform="translate(0 3.9)"/><path class="cls-31" d="M53.86,50.88c1-1.69,4.46-1,4.35,1.14s-.91,3.4-2.89,3.41S52.82,52.68,53.86,50.88Z" transform="translate(0 3.9)"/><path class="cls-32" d="M54.67,51.19c.48-.83,2.18-.48,2.12.55s-.44,1.67-1.41,1.67S54.15,52.07,54.67,51.19Z" transform="translate(0 3.9)"/><path class="cls-33" d="M54.91,51.17c.29-.48,1.28-.28,1.25.33s-.26,1-.83,1S54.62,51.68,54.91,51.17Z" transform="translate(0 3.9)"/><path class="cls-31" d="M53.67,54c1-1.7,4.46-1,4.34,1.14s-.9,3.39-2.88,3.4S52.62,55.79,53.67,54Z" transform="translate(0 3.9)"/><path class="cls-32" d="M54.47,54.3c.48-.83,2.19-.47,2.13.56s-.44,1.66-1.41,1.67S54,55.18,54.47,54.3Z" transform="translate(0 3.9)"/><path class="cls-33" d="M54.72,54.29C55,53.8,56,54,56,54.61s-.26,1-.82,1S54.42,54.8,54.72,54.29Z" transform="translate(0 3.9)"/><path class="cls-40" d="M57.35,54.29c1-1.69,4.46-1,4.34,1.14s-.9,3.4-2.88,3.41S56.3,56.09,57.35,54.29Z" transform="translate(0 3.9)"/><path class="cls-41" d="M58.15,54.59c.48-.83,2.19-.47,2.13.56s-.44,1.66-1.41,1.67S57.64,55.47,58.15,54.59Z" transform="translate(0 3.9)"/><path class="cls-42" d="M58.4,54.58c.28-.49,1.28-.28,1.24.32s-.26,1-.82,1S58.1,55.09,58.4,54.58Z" transform="translate(0 3.9)"/><path class="cls-37" d="M51.13,53.61c1-1.7,4.47-1,4.35,1.14s-.9,3.39-2.89,3.4S50.09,55.4,51.13,53.61Z" transform="translate(0 3.9)"/><path class="cls-38" d="M51.94,53.91c.48-.83,2.18-.47,2.13.56s-.45,1.66-1.42,1.67S51.43,54.79,51.94,53.91Z" transform="translate(0 3.9)"/><path class="cls-39" d="M52.19,53.9c.28-.49,1.27-.28,1.24.32s-.26,1-.83,1S51.89,54.41,52.19,53.9Z" transform="translate(0 3.9)"/><path class="cls-31" d="M55.14,58.56c1-1.69,4.47-1,4.35,1.14s-.9,3.4-2.89,3.41S54.1,60.36,55.14,58.56Z" transform="translate(0 3.9)"/><path class="cls-32" d="M56,58.87c.48-.83,2.18-.48,2.13.55s-.45,1.67-1.42,1.67S55.44,59.74,56,58.87Z" transform="translate(0 3.9)"/><path class="cls-33" d="M56.2,58.85c.28-.48,1.27-.28,1.24.33s-.26,1-.82,1S55.9,59.36,56.2,58.85Z" transform="translate(0 3.9)"/><path class="cls-31" d="M52.3,61.21c1-1.7,4.47-1,4.35,1.14s-.9,3.39-2.89,3.4S51.26,63,52.3,61.21Z" transform="translate(0 3.9)"/><path class="cls-32" d="M53.11,61.51c.48-.83,2.18-.48,2.12.56s-.44,1.66-1.41,1.66S52.6,62.39,53.11,61.51Z" transform="translate(0 3.9)"/><path class="cls-33" d="M53.36,61.49c.28-.48,1.27-.28,1.24.33s-.26,1-.83,1S53.06,62,53.36,61.49Z" transform="translate(0 3.9)"/><path class="cls-31" d="M49.9,42.91c-.95-1.71,1.45-4.32,3.2-3.14s2.45,2.52,1.44,4.23S50.9,44.73,49.9,42.91Z" transform="translate(0 3.9)"/><path class="cls-32" d="M50.57,42.38c-.47-.84.71-2.12,1.57-1.54s1.2,1.23.7,2.07S51.06,43.27,50.57,42.38Z" transform="translate(0 3.9)"/><path class="cls-33" d="M50.68,42.16c-.27-.49.42-1.24.92-.9s.7.72.41,1.21S51,42.68,50.68,42.16Z" transform="translate(0 3.9)"/><path class="cls-31" d="M49.41,37.75c-.95-1.71,1.46-4.33,3.21-3.14s2.45,2.52,1.44,4.22S50.41,39.57,49.41,37.75Z" transform="translate(0 3.9)"/><path class="cls-32" d="M50.08,37.22c-.46-.84.72-2.12,1.57-1.54s1.2,1.23.71,2.07S50.57,38.11,50.08,37.22Z" transform="translate(0 3.9)"/><path class="cls-33" d="M50.2,37c-.28-.49.41-1.24.91-.9s.7.72.42,1.21S50.48,37.52,50.2,37Z" transform="translate(0 3.9)"/><path class="cls-31" d="M46.88,32.79c-1-1.72,1.46-4.33,3.21-3.15s2.44,2.52,1.44,4.23S47.88,34.6,46.88,32.79Z" transform="translate(0 3.9)"/><path class="cls-32" d="M47.55,32.25c-.46-.84.71-2.12,1.57-1.54s1.2,1.24.71,2.07S48,33.14,47.55,32.25Z" transform="translate(0 3.9)"/><path class="cls-33" d="M47.66,32c-.27-.49.42-1.24.92-.9s.7.72.41,1.21S48,32.55,47.66,32Z" transform="translate(0 3.9)"/><path class="cls-31" d="M47.17,30.89c-1-1.72,1.46-4.33,3.21-3.14s2.45,2.51,1.44,4.22S48.17,32.71,47.17,30.89Z" transform="translate(0 3.9)"/><path class="cls-32" d="M47.84,30.35c-.46-.84.72-2.12,1.57-1.53s1.2,1.23.71,2.06S48.33,31.24,47.84,30.35Z" transform="translate(0 3.9)"/><path class="cls-33" d="M48,30.13c-.28-.49.41-1.24.91-.9s.7.72.42,1.21S48.24,30.65,48,30.13Z" transform="translate(0 3.9)"/><path class="cls-31" d="M50.77,35.12c-1-1.71,1.46-4.32,3.21-3.14s2.45,2.52,1.44,4.23S51.78,36.94,50.77,35.12Z" transform="translate(0 3.9)"/><path class="cls-32" d="M51.44,34.59c-.46-.84.72-2.12,1.58-1.54s1.19,1.23.7,2.07S51.94,35.48,51.44,34.59Z" transform="translate(0 3.9)"/><path class="cls-33" d="M51.56,34.37c-.27-.49.42-1.24.92-.9s.7.72.41,1.21S51.85,34.89,51.56,34.37Z" transform="translate(0 3.9)"/><path class="cls-31" d="M53,34.9c-1.86-.62-1.85-4.17.24-4.48s3.51.2,3.92,2.14S55,35.56,53,34.9Z" transform="translate(0 3.9)"/><path class="cls-32" d="M53.17,34.05c-.91-.3-.91-2,.12-2.19s1.71.1,1.91,1S54.13,34.38,53.17,34.05Z" transform="translate(0 3.9)"/><path class="cls-33" d="M53.1,33.81c-.53-.17-.53-1.19.07-1.28s1,.06,1.12.61S53.66,34,53.1,33.81Z" transform="translate(0 3.9)"/><path class="cls-31" d="M53.22,37.33c.81-1.79,4.34-1.41,4.44.7s-.56,3.47-2.53,3.67S52.36,39.22,53.22,37.33Z" transform="translate(0 3.9)"/><path class="cls-32" d="M54.05,37.55c.4-.87,2.13-.69,2.17.34S56,39.59,55,39.69,53.63,38.48,54.05,37.55Z" transform="translate(0 3.9)"/><path class="cls-33" d="M54.3,37.51c.23-.51,1.24-.4,1.27.2s-.16,1-.73,1S54.05,38.05,54.3,37.51Z" transform="translate(0 3.9)"/><path class="cls-31" d="M53.32,42.49c.81-1.79,4.34-1.41,4.44.7s-.56,3.47-2.53,3.68S52.46,44.38,53.32,42.49Z" transform="translate(0 3.9)"/><path class="cls-32" d="M54.15,42.71c.4-.87,2.13-.69,2.17.34s-.27,1.7-1.24,1.8S53.73,43.64,54.15,42.71Z" transform="translate(0 3.9)"/><path class="cls-33" d="M54.39,42.67c.24-.51,1.25-.4,1.27.2s-.16,1-.72,1.05S54.15,43.21,54.39,42.67Z" transform="translate(0 3.9)"/><path class="cls-31" d="M54.57,45.56C53,44.39,54.1,41,56.19,41.36s3.27,1.28,3.06,3.25S56.24,46.79,54.57,45.56Z" transform="translate(0 3.9)"/><path class="cls-32" d="M55,44.79c-.77-.57-.23-2.22.79-2s1.61.62,1.5,1.59S55.78,45.4,55,44.79Z" transform="translate(0 3.9)"/><path class="cls-33" d="M55,44.54c-.45-.33-.14-1.3.46-1.2s.93.37.87.93S55.45,44.9,55,44.54Z" transform="translate(0 3.9)"/><path class="cls-34" d="M56.33,43.22c-1.58-1.17-.47-4.54,1.61-4.19S61.21,40.3,61,42.27,58,44.46,56.33,43.22Z" transform="translate(0 3.9)"/><path class="cls-35" d="M56.72,42.45c-.77-.57-.23-2.22.79-2.05S59.11,41,59,42,57.53,43.06,56.72,42.45Z" transform="translate(0 3.9)"/><path class="cls-36" d="M56.73,42.2c-.45-.33-.14-1.3.46-1.19s.94.36.88.92S57.21,42.56,56.73,42.2Z" transform="translate(0 3.9)"/><path class="cls-31" d="M54.08,37.72c-1.57-1.17-.47-4.55,1.62-4.19S59,34.8,58.76,36.77,55.75,39,54.08,37.72Z" transform="translate(0 3.9)"/><path class="cls-32" d="M54.47,37c-.77-.57-.23-2.22.79-2.05s1.6.62,1.5,1.59S55.29,37.56,54.47,37Z" transform="translate(0 3.9)"/><path class="cls-33" d="M54.48,36.7c-.45-.33-.13-1.3.47-1.2s.93.37.87.93S55,37.06,54.48,36.7Z" transform="translate(0 3.9)"/><path class="cls-28" d="M55.89,39.28c-1.58-1.17-.47-4.55,1.61-4.2s3.28,1.28,3.07,3.25S57.56,40.51,55.89,39.28Z" transform="translate(0 3.9)"/><path class="cls-29" d="M56.28,38.51c-.77-.57-.23-2.22.79-2s1.6.62,1.5,1.59S57.1,39.11,56.28,38.51Z" transform="translate(0 3.9)"/><path class="cls-30" d="M56.29,38.26c-.45-.33-.13-1.3.46-1.2s.94.37.88.93S56.77,38.61,56.29,38.26Z" transform="translate(0 3.9)"/><path class="cls-31" d="M55.06,49.45c-1.57-1.17-.47-4.54,1.62-4.19S60,46.53,59.74,48.5,56.73,50.69,55.06,49.45Z" transform="translate(0 3.9)"/><path class="cls-32" d="M55.45,48.69c-.77-.58-.23-2.23.79-2.06s1.6.63,1.5,1.59S56.27,49.29,55.45,48.69Z" transform="translate(0 3.9)"/><path class="cls-33" d="M55.46,48.44c-.45-.34-.13-1.3.46-1.2s.94.36.88.93S55.94,48.79,55.46,48.44Z" transform="translate(0 3.9)"/><path class="cls-31" d="M57.06,49.73c-1.58-1.16-.47-4.54,1.61-4.19s3.28,1.27,3.07,3.25S58.73,51,57.06,49.73Z" transform="translate(0 3.9)"/><path class="cls-32" d="M57.45,49c-.77-.57-.23-2.23.79-2s1.6.62,1.5,1.58S58.27,49.57,57.45,49Z" transform="translate(0 3.9)"/><path class="cls-33" d="M57.46,48.72c-.45-.34-.13-1.3.46-1.2s.94.36.88.93S57.94,49.07,57.46,48.72Z" transform="translate(0 3.9)"/><path class="cls-31" d="M61.49,77.89c-1.58-1.17-.47-4.55,1.61-4.2s3.27,1.28,3.07,3.25S63.16,79.12,61.49,77.89Z" transform="translate(0 3.9)"/><path class="cls-32" d="M61.88,77.12c-.77-.57-.23-2.22.79-2.05s1.6.62,1.5,1.59S62.7,77.72,61.88,77.12Z" transform="translate(0 3.9)"/><path class="cls-33" d="M61.89,76.87c-.45-.33-.13-1.3.46-1.2s.94.37.88.93S62.37,77.22,61.89,76.87Z" transform="translate(0 3.9)"/><path class="cls-31" d="M68.4,69c2-.81,4.58,2.23,3,4s-3.14,2.35-4.88,1S66.24,69.89,68.4,69Z" transform="translate(0 3.9)"/><path class="cls-32" d="M68.89,69.86c1-.4,2.25,1.09,1.48,2S68.84,73,68,72.3,67.84,70.28,68.89,69.86Z" transform="translate(0 3.9)"/><path class="cls-33" d="M69.12,70c.59-.24,1.31.63.87,1.14s-.9.67-1.4.28S68.51,70.26,69.12,70Z" transform="translate(0 3.9)"/><path class="cls-31" d="M66.21,65.82c2-.8,4.58,2.23,3,4s-3.14,2.36-4.88,1S64.05,66.68,66.21,65.82Z" transform="translate(0 3.9)"/><path class="cls-32" d="M66.7,66.64c1-.39,2.25,1.1,1.48,2s-1.53,1.16-2.39.49S65.65,67.06,66.7,66.64Z" transform="translate(0 3.9)"/><path class="cls-33" d="M66.93,66.8c.58-.23,1.31.64.87,1.15s-.9.67-1.4.28S66.31,67.05,66.93,66.8Z" transform="translate(0 3.9)"/><path class="cls-40" d="M67.38,72.4c2-.81,4.58,2.23,3,4s-3.14,2.35-4.89,1S65.22,73.25,67.38,72.4Z" transform="translate(0 3.9)"/><path class="cls-41" d="M67.87,73.22c1-.4,2.25,1.09,1.48,2s-1.53,1.15-2.39.48S66.82,73.63,67.87,73.22Z" transform="translate(0 3.9)"/><path class="cls-42" d="M68.1,73.37c.58-.23,1.31.64.86,1.15s-.89.67-1.39.28S67.48,73.62,68.1,73.37Z" transform="translate(0 3.9)"/><path class="cls-46" d="M81.11,69.77c2-.81,4.58,2.23,3,4s-3.14,2.35-4.88,1S79,70.62,81.11,69.77Z" transform="translate(0 3.9)"/><path class="cls-47" d="M81.6,70.59c1-.4,2.25,1.09,1.48,2s-1.53,1.15-2.39.48S80.55,71,81.6,70.59Z" transform="translate(0 3.9)"/><path class="cls-48" d="M81.83,70.75c.58-.24,1.31.63.87,1.14s-.9.67-1.4.28S81.21,71,81.83,70.75Z" transform="translate(0 3.9)"/><path class="cls-31" d="M73.51,61.69c2-.81,4.59,2.23,3,4s-3.13,2.35-4.88,1S71.36,62.54,73.51,61.69Z" transform="translate(0 3.9)"/><path class="cls-32" d="M74,62.51c1-.4,2.24,1.09,1.48,2S74,65.62,73.1,65,73,62.93,74,62.51Z" transform="translate(0 3.9)"/><path class="cls-33" d="M74.24,62.67c.58-.24,1.31.63.86,1.14s-.89.67-1.39.28S73.62,62.91,74.24,62.67Z" transform="translate(0 3.9)"/><path class="cls-31" d="M74.68,66.21c2-.8,4.59,2.24,3,4s-3.13,2.35-4.88,1S72.52,67.07,74.68,66.21Z" transform="translate(0 3.9)"/><path class="cls-32" d="M75.18,67c1-.4,2.24,1.09,1.48,1.95s-1.54,1.16-2.39.49S74.12,67.45,75.18,67Z" transform="translate(0 3.9)"/><path class="cls-33" d="M75.41,67.19c.58-.23,1.31.64.86,1.15s-.9.67-1.4.28S74.79,67.44,75.41,67.19Z" transform="translate(0 3.9)"/><path class="cls-46" d="M72.78,69.87c2-.81,4.59,2.23,3,4s-3.13,2.35-4.88,1S70.63,70.72,72.78,69.87Z" transform="translate(0 3.9)"/><path class="cls-47" d="M73.28,70.69c1-.4,2.24,1.09,1.48,2s-1.54,1.15-2.39.48S72.22,71.11,73.28,70.69Z" transform="translate(0 3.9)"/><path class="cls-48" d="M73.51,70.85c.58-.24,1.31.63.86,1.14s-.9.67-1.4.28S72.89,71.09,73.51,70.85Z" transform="translate(0 3.9)"/><path class="cls-31" d="M72.78,73.37c2-.8,4.59,2.23,3,4s-3.13,2.36-4.88,1S70.63,74.22,72.78,73.37Z" transform="translate(0 3.9)"/><path class="cls-32" d="M73.28,74.19c1-.39,2.24,1.1,1.48,2s-1.54,1.15-2.39.49S72.22,74.61,73.28,74.19Z" transform="translate(0 3.9)"/><path class="cls-33" d="M73.51,74.35c.58-.23,1.31.64.86,1.15s-.9.67-1.4.28S72.89,74.59,73.51,74.35Z" transform="translate(0 3.9)"/><path class="cls-31" d="M64,69c2-.81,4.58,2.23,3,4s-3.14,2.36-4.88,1S61.86,69.84,64,69Z" transform="translate(0 3.9)"/><path class="cls-32" d="M64.51,69.81c1-.39,2.25,1.09,1.48,2s-1.53,1.15-2.39.49S63.46,70.23,64.51,69.81Z" transform="translate(0 3.9)"/><path class="cls-33" d="M64.74,70c.59-.23,1.31.64.87,1.14s-.9.68-1.4.29S64.13,70.21,64.74,70Z" transform="translate(0 3.9)"/><path class="cls-31" d="M69,61.15c2-.81,4.59,2.23,3,4s-3.13,2.35-4.88,1S66.83,62,69,61.15Z" transform="translate(0 3.9)"/><path class="cls-32" d="M69.48,62c1-.39,2.24,1.09,1.48,2s-1.54,1.15-2.39.48S68.42,62.39,69.48,62Z" transform="translate(0 3.9)"/><path class="cls-33" d="M69.71,62.13c.58-.23,1.31.64.86,1.14s-.9.68-1.4.29S69.09,62.37,69.71,62.13Z" transform="translate(0 3.9)"/><path class="cls-31" d="M77.75,61.54c2-.81,4.58,2.23,3,4s-3.13,2.36-4.88,1S75.59,62.39,77.75,61.54Z" transform="translate(0 3.9)"/><path class="cls-32" d="M78.24,62.36c1-.39,2.25,1.09,1.48,2s-1.53,1.15-2.39.49S77.19,62.78,78.24,62.36Z" transform="translate(0 3.9)"/><path class="cls-33" d="M78.47,62.52c.59-.23,1.32.64.87,1.14s-.9.68-1.4.29S77.86,62.76,78.47,62.52Z" transform="translate(0 3.9)"/><path class="cls-31" d="M74.24,57.3c2-.8,4.59,2.24,3,4s-3.14,2.35-4.89,1S72.09,58.16,74.24,57.3Z" transform="translate(0 3.9)"/><path class="cls-32" d="M74.74,58.13c1-.4,2.24,1.09,1.48,1.95s-1.54,1.16-2.39.49S73.68,58.54,74.74,58.13Z" transform="translate(0 3.9)"/><path class="cls-33" d="M75,58.28c.58-.23,1.31.64.86,1.15s-.89.67-1.39.28S74.35,58.53,75,58.28Z" transform="translate(0 3.9)"/><path class="cls-40" d="M79.65,56.14c2-.81,4.58,2.23,3,4s-3.14,2.35-4.88,1S77.49,57,79.65,56.14Z" transform="translate(0 3.9)"/><path class="cls-41" d="M80.14,57c1-.4,2.25,1.09,1.48,2s-1.53,1.15-2.39.48S79.09,57.37,80.14,57Z" transform="translate(0 3.9)"/><path class="cls-42" d="M80.37,57.11c.58-.23,1.31.64.87,1.15s-.9.67-1.4.28S79.76,57.36,80.37,57.11Z" transform="translate(0 3.9)"/><path class="cls-46" d="M76.14,59.06c2-.81,4.59,2.23,3,4s-3.13,2.35-4.88,1S74,59.91,76.14,59.06Z" transform="translate(0 3.9)"/><path class="cls-47" d="M76.64,59.88c1-.4,2.24,1.09,1.48,2s-1.54,1.15-2.39.48S75.58,60.3,76.64,59.88Z" transform="translate(0 3.9)"/><path class="cls-48" d="M76.87,60c.58-.23,1.31.63.86,1.14s-.9.67-1.4.28S76.25,60.28,76.87,60Z" transform="translate(0 3.9)"/><path class="cls-31" d="M78.33,65.19c2-.8,4.59,2.23,3,4s-3.14,2.36-4.89,1S76.18,66,78.33,65.19Z" transform="translate(0 3.9)"/><path class="cls-32" d="M78.83,66c1-.39,2.24,1.1,1.48,2s-1.54,1.15-2.39.49S77.77,66.43,78.83,66Z" transform="translate(0 3.9)"/><path class="cls-33" d="M79.06,66.17c.58-.23,1.31.64.86,1.15s-.89.67-1.39.28S78.44,66.41,79.06,66.17Z" transform="translate(0 3.9)"/><path class="cls-31" d="M77.6,70.16c2-.81,4.59,2.23,3,4s-3.13,2.35-4.88,1S75.45,71,77.6,70.16Z" transform="translate(0 3.9)"/><path class="cls-32" d="M78.1,71c1-.39,2.24,1.09,1.48,2s-1.54,1.15-2.39.48S77,71.4,78.1,71Z" transform="translate(0 3.9)"/><path class="cls-33" d="M78.33,71.14c.58-.23,1.31.64.86,1.14s-.89.68-1.39.29S77.71,71.38,78.33,71.14Z" transform="translate(0 3.9)"/><path class="cls-31" d="M78.77,72.64c2-.81,4.59,2.23,3,4s-3.13,2.36-4.88,1S76.61,73.49,78.77,72.64Z" transform="translate(0 3.9)"/><path class="cls-32" d="M79.27,73.46c1-.39,2.24,1.1,1.48,2s-1.54,1.15-2.39.49S78.21,73.88,79.27,73.46Z" transform="translate(0 3.9)"/><path class="cls-33" d="M79.5,73.62c.58-.23,1.31.64.86,1.15s-.9.67-1.4.28S78.88,73.86,79.5,73.62Z" transform="translate(0 3.9)"/><path class="cls-31" d="M85.64,70.16c2-.81,4.58,2.23,3,4s-3.14,2.35-4.88,1S83.48,71,85.64,70.16Z" transform="translate(0 3.9)"/><path class="cls-32" d="M86.13,71c1-.39,2.25,1.09,1.48,2s-1.53,1.15-2.39.48S85.08,71.4,86.13,71Z" transform="translate(0 3.9)"/><path class="cls-33" d="M86.36,71.14c.58-.23,1.31.64.87,1.14s-.9.68-1.4.29S85.74,71.38,86.36,71.14Z" transform="translate(0 3.9)"/><path class="cls-31" d="M83,65.78c2-.81,4.58,2.23,3,4s-3.14,2.35-4.88,1S80.85,66.63,83,65.78Z" transform="translate(0 3.9)"/><path class="cls-32" d="M83.5,66.6c1-.4,2.25,1.09,1.48,2s-1.53,1.15-2.39.48S82.45,67,83.5,66.6Z" transform="translate(0 3.9)"/><path class="cls-33" d="M83.73,66.76c.58-.24,1.31.63.87,1.14s-.9.67-1.4.28S83.11,67,83.73,66.76Z" transform="translate(0 3.9)"/><path class="cls-31" d="M82.57,60.52c2-.81,4.58,2.23,3,4s-3.13,2.35-4.88,1S80.41,61.37,82.57,60.52Z" transform="translate(0 3.9)"/><path class="cls-32" d="M83.06,61.34c1-.4,2.25,1.09,1.48,2s-1.53,1.15-2.39.48S82,61.76,83.06,61.34Z" transform="translate(0 3.9)"/><path class="cls-33" d="M83.29,61.5c.59-.23,1.32.64.87,1.14s-.9.68-1.4.29S82.68,61.74,83.29,61.5Z" transform="translate(0 3.9)"/><path class="cls-31" d="M83.59,53.8c2-.81,4.59,2.23,3,4s-3.13,2.35-4.88,1S81.43,54.65,83.59,53.8Z" transform="translate(0 3.9)"/><path class="cls-32" d="M84.09,54.62c1-.39,2.24,1.09,1.48,2s-1.54,1.15-2.39.48S83,55,84.09,54.62Z" transform="translate(0 3.9)"/><path class="cls-33" d="M84.32,54.78c.58-.23,1.31.64.86,1.14s-.9.68-1.4.29S83.7,55,84.32,54.78Z" transform="translate(0 3.9)"/><path class="cls-31" d="M81.4,51.31c2-.8,4.59,2.24,3,4s-3.13,2.35-4.88,1S79.24,52.17,81.4,51.31Z" transform="translate(0 3.9)"/><path class="cls-32" d="M81.9,52.14c1-.4,2.24,1.09,1.48,2s-1.54,1.15-2.39.48S80.84,52.55,81.9,52.14Z" transform="translate(0 3.9)"/><path class="cls-49" d="M82.13,52.29c.58-.23,1.31.64.86,1.15s-.9.67-1.4.28S81.51,52.54,82.13,52.29Z" transform="translate(0 3.9)"/><path class="cls-40" d="M80.67,63.88c2-.81,4.59,2.23,3,4s-3.13,2.35-4.88,1S78.51,64.73,80.67,63.88Z" transform="translate(0 3.9)"/><path class="cls-41" d="M81.17,64.7c1-.4,2.24,1.09,1.48,2s-1.54,1.15-2.39.48S80.11,65.12,81.17,64.7Z" transform="translate(0 3.9)"/><path class="cls-42" d="M81.39,64.86c.59-.23,1.32.63.87,1.14s-.9.67-1.4.29S80.78,65.1,81.39,64.86Z" transform="translate(0 3.9)"/><path class="cls-31" d="M79.35,59.64c2-.81,4.59,2.23,3,4s-3.14,2.36-4.89,1S77.2,60.49,79.35,59.64Z" transform="translate(0 3.9)"/><path class="cls-32" d="M79.85,60.46c1-.39,2.25,1.1,1.48,2s-1.53,1.15-2.39.49S78.8,60.88,79.85,60.46Z" transform="translate(0 3.9)"/><path class="cls-33" d="M80.08,60.62c.58-.23,1.31.64.86,1.15s-.89.67-1.39.28S79.46,60.86,80.08,60.62Z" transform="translate(0 3.9)"/><path class="cls-31" d="M88,51.75c2-.8,4.59,2.24,3,4s-3.14,2.35-4.89,1S85.82,52.61,88,51.75Z" transform="translate(0 3.9)"/><path class="cls-32" d="M88.47,52.58c1-.4,2.24,1.09,1.48,2s-1.54,1.16-2.39.49S87.41,53,88.47,52.58Z" transform="translate(0 3.9)"/><path class="cls-33" d="M88.7,52.73c.58-.23,1.31.64.86,1.15s-.89.67-1.39.28S88.08,53,88.7,52.73Z" transform="translate(0 3.9)"/><path class="cls-37" d="M85,56.57c2-.81,4.59,2.23,3,4s-3.13,2.35-4.88,1S82.81,57.42,85,56.57Z" transform="translate(0 3.9)"/><path class="cls-38" d="M85.47,57.39c1-.4,2.24,1.09,1.48,2s-1.54,1.15-2.39.48S84.41,57.8,85.47,57.39Z" transform="translate(0 3.9)"/><path class="cls-39" d="M85.69,57.54c.59-.23,1.32.64.87,1.15s-.9.67-1.4.28S85.08,57.79,85.69,57.54Z" transform="translate(0 3.9)"/><path class="cls-46" d="M89.58,54.82c2-.81,4.59,2.23,3,4s-3.13,2.36-4.88,1S87.42,55.67,89.58,54.82Z" transform="translate(0 3.9)"/><path class="cls-47" d="M90.08,55.64c1-.39,2.24,1.1,1.48,2s-1.54,1.15-2.39.49S89,56.06,90.08,55.64Z" transform="translate(0 3.9)"/><path class="cls-48" d="M90.3,55.8c.59-.23,1.32.64.87,1.15s-.9.67-1.4.28S89.69,56,90.3,55.8Z" transform="translate(0 3.9)"/><path class="cls-31" d="M88,59.64c2-.81,4.59,2.23,3,4s-3.14,2.36-4.89,1S85.82,60.49,88,59.64Z" transform="translate(0 3.9)"/><path class="cls-32" d="M88.47,60.46c1-.39,2.24,1.1,1.48,2s-1.54,1.15-2.39.49S87.41,60.88,88.47,60.46Z" transform="translate(0 3.9)"/><path class="cls-33" d="M88.7,60.62c.58-.23,1.31.64.86,1.15s-.89.67-1.39.28S88.08,60.86,88.7,60.62Z" transform="translate(0 3.9)"/><path class="cls-46" d="M86.51,62.85c2-.8,4.59,2.24,3,4s-3.13,2.35-4.88,1S84.36,63.71,86.51,62.85Z" transform="translate(0 3.9)"/><path class="cls-47" d="M87,63.68c1-.4,2.24,1.09,1.48,2s-1.54,1.15-2.39.48S86,64.09,87,63.68Z" transform="translate(0 3.9)"/><path class="cls-48" d="M87.24,63.83c.58-.23,1.31.64.86,1.15s-.89.67-1.39.28S86.62,64.08,87.24,63.83Z" transform="translate(0 3.9)"/><path class="cls-40" d="M86.42,49.24c2-.81,4.58,2.23,3,4s-3.13,2.35-4.88,1S84.26,50.09,86.42,49.24Z" transform="translate(0 3.9)"/><path class="cls-41" d="M86.91,50.06c1-.39,2.25,1.09,1.48,2s-1.53,1.15-2.39.49S85.86,50.48,86.91,50.06Z" transform="translate(0 3.9)"/><path class="cls-42" d="M87.14,50.22c.59-.23,1.32.64.87,1.14s-.9.68-1.4.29S86.53,50.46,87.14,50.22Z" transform="translate(0 3.9)"/><path class="cls-40" d="M88.7,66.36c2-.81,4.59,2.23,3,4s-3.14,2.36-4.89,1S86.55,67.21,88.7,66.36Z" transform="translate(0 3.9)"/><path class="cls-41" d="M89.2,67.18c1-.39,2.24,1.09,1.48,2s-1.54,1.15-2.39.49S88.14,67.6,89.2,67.18Z" transform="translate(0 3.9)"/><path class="cls-42" d="M89.43,67.34c.58-.23,1.31.64.86,1.14s-.89.68-1.39.29S88.81,67.58,89.43,67.34Z" transform="translate(0 3.9)"/><path class="cls-31" d="M92.79,58c2-.8,4.59,2.24,3,4s-3.14,2.35-4.89,1S90.64,58.89,92.79,58Z" transform="translate(0 3.9)"/><path class="cls-32" d="M93.29,58.86c1-.4,2.24,1.09,1.48,2s-1.54,1.15-2.39.48S92.23,59.27,93.29,58.86Z" transform="translate(0 3.9)"/><path class="cls-33" d="M93.52,59c.58-.23,1.31.64.86,1.15s-.89.67-1.39.28S92.9,59.26,93.52,59Z" transform="translate(0 3.9)"/><path class="cls-31" d="M92.35,62.71c2-.81,4.59,2.23,3,4s-3.14,2.35-4.89,1S90.2,63.56,92.35,62.71Z" transform="translate(0 3.9)"/><path class="cls-32" d="M92.85,63.53c1-.39,2.25,1.09,1.48,2s-1.53,1.15-2.39.49S91.8,64,92.85,63.53Z" transform="translate(0 3.9)"/><path class="cls-33" d="M93.08,63.69c.58-.23,1.31.64.86,1.14s-.89.68-1.39.29S92.46,63.93,93.08,63.69Z" transform="translate(0 3.9)"/><path class="cls-31" d="M92.13,66.52c2-.81,4.58,2.23,3,4s-3.14,2.35-4.89,1S90,67.37,92.13,66.52Z" transform="translate(0 3.9)"/><path class="cls-32" d="M92.62,67.34c1-.39,2.25,1.09,1.48,2s-1.53,1.15-2.39.49S91.57,67.76,92.62,67.34Z" transform="translate(0 3.9)"/><path class="cls-33" d="M92.85,67.5c.58-.23,1.31.64.87,1.14s-.9.68-1.4.29S92.23,67.74,92.85,67.5Z" transform="translate(0 3.9)"/><path class="cls-50" d="M96.88,62.12c2-.8,4.59,2.24,3,4s-3.14,2.35-4.89,1S94.73,63,96.88,62.12Z" transform="translate(0 3.9)"/><path class="cls-51" d="M97.38,63c1-.4,2.24,1.09,1.48,2s-1.54,1.15-2.39.48S96.32,63.36,97.38,63Z" transform="translate(0 3.9)"/><path class="cls-52" d="M97.61,63.1c.58-.23,1.31.64.86,1.15s-.89.67-1.39.28S97,63.35,97.61,63.1Z" transform="translate(0 3.9)"/><path class="cls-40" d="M94.4,58.62c2-.81,4.59,2.23,3,4s-3.13,2.35-4.88,1S92.24,59.47,94.4,58.62Z" transform="translate(0 3.9)"/><path class="cls-41" d="M94.9,59.44c1-.39,2.24,1.09,1.48,2s-1.54,1.15-2.39.49S93.84,59.86,94.9,59.44Z" transform="translate(0 3.9)"/><path class="cls-42" d="M95.13,59.6c.58-.23,1.31.64.86,1.14s-.9.68-1.4.29S94.51,59.84,95.13,59.6Z" transform="translate(0 3.9)"/><path class="cls-31" d="M97.18,57.45c2-.81,4.58,2.23,3,4s-3.14,2.36-4.89,1S95,58.3,97.18,57.45Z" transform="translate(0 3.9)"/><path class="cls-32" d="M97.67,58.27c1-.39,2.25,1.09,1.48,2s-1.53,1.15-2.39.49S96.62,58.69,97.67,58.27Z" transform="translate(0 3.9)"/><path class="cls-33" d="M97.9,58.43c.58-.23,1.31.64.87,1.14s-.9.68-1.4.29S97.28,58.67,97.9,58.43Z" transform="translate(0 3.9)"/><path class="cls-31" d="M93.67,53.36c2-.81,4.59,2.23,3,4s-3.13,2.36-4.88,1S91.51,54.21,93.67,53.36Z" transform="translate(0 3.9)"/><path class="cls-32" d="M94.17,54.18c1-.39,2.24,1.09,1.48,2s-1.54,1.15-2.39.49S93.11,54.6,94.17,54.18Z" transform="translate(0 3.9)"/><path class="cls-33" d="M94.39,54.34c.59-.23,1.32.64.87,1.14s-.9.68-1.4.29S93.78,54.58,94.39,54.34Z" transform="translate(0 3.9)"/><path class="cls-31" d="M91.48,49.42c2-.81,4.58,2.23,3,4s-3.13,2.35-4.88,1S89.32,50.27,91.48,49.42Z" transform="translate(0 3.9)"/><path class="cls-32" d="M92,50.24c1-.4,2.25,1.09,1.48,2s-1.53,1.15-2.39.48S90.92,50.66,92,50.24Z" transform="translate(0 3.9)"/><path class="cls-33" d="M92.2,50.4c.59-.24,1.32.63.87,1.14s-.9.67-1.4.28S91.59,50.64,92.2,50.4Z" transform="translate(0 3.9)"/><path class="cls-31" d="M94.4,49.12c2-.8,4.59,2.24,3,4s-3.13,2.35-4.88,1S92.24,50,94.4,49.12Z" transform="translate(0 3.9)"/><path class="cls-32" d="M94.9,50c1-.4,2.24,1.09,1.48,2s-1.54,1.15-2.39.48S93.84,50.36,94.9,50Z" transform="translate(0 3.9)"/><path class="cls-33" d="M95.13,50.1c.58-.23,1.31.64.86,1.15s-.9.67-1.4.28S94.51,50.35,95.13,50.1Z" transform="translate(0 3.9)"/><path class="cls-34" d="M97.76,49.42c2-.81,4.59,2.23,3,4s-3.13,2.35-4.88,1S95.6,50.27,97.76,49.42Z" transform="translate(0 3.9)"/><path class="cls-35" d="M98.26,50.24c1-.4,2.24,1.09,1.48,2s-1.54,1.15-2.39.48S97.2,50.66,98.26,50.24Z" transform="translate(0 3.9)"/><path class="cls-36" d="M98.48,50.4c.59-.24,1.32.63.87,1.14s-.9.67-1.4.28S97.87,50.64,98.48,50.4Z" transform="translate(0 3.9)"/><path class="cls-31" d="M102.29,47.23c2-.81,4.58,2.23,3,4s-3.14,2.35-4.88,1S100.13,48.08,102.29,47.23Z" transform="translate(0 3.9)"/><path class="cls-32" d="M102.78,48.05c1-.4,2.25,1.09,1.48,2s-1.53,1.15-2.39.48S101.73,48.46,102.78,48.05Z" transform="translate(0 3.9)"/><path class="cls-33" d="M103,48.2c.59-.23,1.31.64.87,1.15s-.9.67-1.4.28S102.4,48.45,103,48.2Z" transform="translate(0 3.9)"/><path class="cls-46" d="M106.52,46.06c2-.81,4.59,2.23,3,4s-3.14,2.35-4.89,1S104.37,46.91,106.52,46.06Z" transform="translate(0 3.9)"/><path class="cls-47" d="M107,46.88c1-.4,2.24,1.09,1.48,2s-1.54,1.15-2.39.48S106,47.3,107,46.88Z" transform="translate(0 3.9)"/><path class="cls-48" d="M107.25,47c.58-.23,1.31.63.86,1.14s-.89.67-1.39.29S106.63,47.28,107.25,47Z" transform="translate(0 3.9)"/><path class="cls-31" d="M104.62,50.29c2-.8,4.59,2.24,3,4s-3.14,2.35-4.89,1S102.47,51.15,104.62,50.29Z" transform="translate(0 3.9)"/><path class="cls-32" d="M105.12,51.11c1-.39,2.25,1.1,1.48,2s-1.53,1.16-2.39.49S104.07,51.53,105.12,51.11Z" transform="translate(0 3.9)"/><path class="cls-33" d="M105.35,51.27c.58-.23,1.31.64.86,1.15s-.89.67-1.39.28S104.73,51.52,105.35,51.27Z" transform="translate(0 3.9)"/><path class="cls-31" d="M103.16,55c2-.81,4.59,2.23,3,4s-3.14,2.35-4.89,1S101,55.82,103.16,55Z" transform="translate(0 3.9)"/><path class="cls-32" d="M103.66,55.79c1-.4,2.24,1.09,1.48,2s-1.54,1.15-2.39.48S102.6,56.21,103.66,55.79Z" transform="translate(0 3.9)"/><path class="cls-33" d="M103.89,56c.58-.23,1.31.63.86,1.14s-.89.67-1.39.29S103.27,56.19,103.89,56Z" transform="translate(0 3.9)"/><path class="cls-31" d="M100.83,52.34c2-.81,4.58,2.23,3,4s-3.14,2.35-4.88,1S98.67,53.19,100.83,52.34Z" transform="translate(0 3.9)"/><path class="cls-32" d="M101.32,53.16c1-.4,2.25,1.09,1.48,2s-1.53,1.15-2.39.48S100.27,53.58,101.32,53.16Z" transform="translate(0 3.9)"/><path class="cls-33" d="M101.55,53.32c.58-.23,1.31.64.87,1.14s-.9.68-1.4.29S100.94,53.56,101.55,53.32Z" transform="translate(0 3.9)"/><path class="cls-40" d="M97.76,53.36c2-.81,4.59,2.23,3,4s-3.13,2.36-4.88,1S95.6,54.21,97.76,53.36Z" transform="translate(0 3.9)"/><path class="cls-41" d="M98.26,54.18c1-.39,2.24,1.09,1.48,2s-1.54,1.15-2.39.49S97.2,54.6,98.26,54.18Z" transform="translate(0 3.9)"/><path class="cls-49" d="M98.48,54.34c.59-.23,1.32.64.87,1.14s-.9.68-1.4.29S97.87,54.58,98.48,54.34Z" transform="translate(0 3.9)"/><path class="cls-31" d="M101.11,57.55c2-.8,4.59,2.24,3,4s-3.13,2.35-4.88,1S99,58.41,101.11,57.55Z" transform="translate(0 3.9)"/><path class="cls-32" d="M101.61,58.38c1-.4,2.24,1.09,1.48,1.95s-1.54,1.16-2.39.49S100.55,58.79,101.61,58.38Z" transform="translate(0 3.9)"/><path class="cls-33" d="M101.84,58.53c.58-.23,1.31.64.86,1.15s-.9.67-1.4.28S101.22,58.78,101.84,58.53Z" transform="translate(0 3.9)"/><path class="cls-40" d="M70.18,65.35c2-.8,4.58,2.23,3,4s-3.13,2.36-4.88,1S68,66.21,70.18,65.35Z" transform="translate(0 3.9)"/><path class="cls-41" d="M70.67,66.17c1-.39,2.25,1.1,1.48,2s-1.53,1.15-2.39.49S69.62,66.59,70.67,66.17Z" transform="translate(0 3.9)"/><path class="cls-49" d="M70.9,66.33c.59-.23,1.32.64.87,1.15s-.9.67-1.4.28S70.29,66.58,70.9,66.33Z" transform="translate(0 3.9)"/><path class="cls-40" d="M46.84,36.7c.81-1.79,4.35-1.42,4.44.7s-.56,3.46-2.53,3.67S46,38.59,46.84,36.7Z" transform="translate(0 3.9)"/><path class="cls-41" d="M47.67,36.92c.4-.88,2.13-.69,2.18.34s-.28,1.7-1.24,1.8S47.25,37.84,47.67,36.92Z" transform="translate(0 3.9)"/><path class="cls-42" d="M47.92,36.88c.23-.51,1.24-.41,1.27.2s-.16,1-.73,1.05S47.67,37.42,47.92,36.88Z" transform="translate(0 3.9)"/><path class="cls-31" d="M46.07,60c1-1.7,4.46-1,4.35,1.14s-.91,3.39-2.89,3.4S45,61.83,46.07,60Z" transform="translate(0 3.9)"/><path class="cls-32" d="M46.88,60.34c.48-.83,2.18-.48,2.12.56s-.44,1.66-1.41,1.66S46.36,61.22,46.88,60.34Z" transform="translate(0 3.9)"/><path class="cls-33" d="M47.12,60.32c.29-.48,1.28-.27,1.25.33s-.26,1-.83,1S46.83,60.84,47.12,60.32Z" transform="translate(0 3.9)"/><path class="cls-31" d="M47.84,63.53c1-1.7,4.47-1,4.35,1.14s-.91,3.39-2.89,3.4S46.8,65.32,47.84,63.53Z" transform="translate(0 3.9)"/><path class="cls-32" d="M48.65,63.83c.48-.83,2.18-.47,2.12.56s-.44,1.66-1.41,1.67S48.14,64.71,48.65,63.83Z" transform="translate(0 3.9)"/><path class="cls-33" d="M48.89,63.82c.29-.49,1.28-.28,1.25.32s-.26,1-.83,1S48.6,64.33,48.89,63.82Z" transform="translate(0 3.9)"/><path class="cls-31" d="M39.13,42.14c1-1.69,4.47-1,4.35,1.14s-.91,3.4-2.89,3.41S38.09,43.94,39.13,42.14Z" transform="translate(0 3.9)"/><path class="cls-32" d="M39.94,42.44c.48-.83,2.18-.47,2.12.56s-.44,1.66-1.41,1.67S39.43,43.32,39.94,42.44Z" transform="translate(0 3.9)"/><path class="cls-33" d="M40.18,42.43c.29-.49,1.28-.28,1.25.32s-.26,1-.83,1S39.89,42.94,40.18,42.43Z" transform="translate(0 3.9)"/><path class="cls-31" d="M33.09,61.87c1-1.69,4.46-1,4.34,1.14s-.9,3.4-2.88,3.41S32,63.67,33.09,61.87Z" transform="translate(0 3.9)"/><path class="cls-32" d="M33.89,62.18c.49-.83,2.19-.48,2.13.56s-.44,1.66-1.41,1.66S33.38,63.06,33.89,62.18Z" transform="translate(0 3.9)"/><path class="cls-33" d="M34.14,62.16c.28-.48,1.28-.28,1.24.33s-.25,1-.82,1S33.84,62.67,34.14,62.16Z" transform="translate(0 3.9)"/><path class="cls-28" d="M40.31,37c1.54,1.22.34,4.56-1.73,4.15s-3.24-1.37-3-3.34S38.68,35.67,40.31,37Z" transform="translate(0 3.9)"/><path class="cls-29" d="M39.9,37.71c.75.59.16,2.23-.85,2s-1.58-.67-1.45-1.64S39.1,37.08,39.9,37.71Z" transform="translate(0 3.9)"/><path class="cls-30" d="M39.88,38c.44.34.1,1.3-.5,1.18s-.92-.39-.84-1S39.41,37.59,39.88,38Z" transform="translate(0 3.9)"/><path class="cls-31" d="M36.32,41c1.54,1.22.34,4.56-1.74,4.15s-3.23-1.37-3-3.34S34.69,39.76,36.32,41Z" transform="translate(0 3.9)"/><path class="cls-32" d="M35.91,41.8c.75.59.16,2.23-.85,2s-1.59-.67-1.46-1.64S35.11,41.17,35.91,41.8Z" transform="translate(0 3.9)"/><path class="cls-33" d="M35.89,42.05c.44.34.09,1.3-.5,1.18s-.92-.39-.85-.95S35.42,41.68,35.89,42.05Z" transform="translate(0 3.9)"/><path class="cls-31" d="M41,51.05c1.77,1.39.39,5.22-2,4.75s-3.7-1.57-3.4-3.82S39.14,49.58,41,51.05Z" transform="translate(0 3.9)"/><path class="cls-32" d="M40.54,51.91c.86.68.19,2.56-1,2.33s-1.82-.77-1.67-1.87S39.63,51.19,40.54,51.91Z" transform="translate(0 3.9)"/><path class="cls-33" d="M40.52,52.2c.5.4.11,1.49-.57,1.36s-1.06-.45-1-1.1S40,51.78,40.52,52.2Z" transform="translate(0 3.9)"/><path class="cls-31" d="M45.2,47.45c1.77,1.39.39,5.22-2,4.74s-3.7-1.56-3.4-3.82S43.33,46,45.2,47.45Z" transform="translate(0 3.9)"/><path class="cls-32" d="M44.73,48.31c.86.68.19,2.56-1,2.32s-1.81-.76-1.66-1.86S43.81,47.59,44.73,48.31Z" transform="translate(0 3.9)"/><path class="cls-33" d="M44.71,48.6c.5.39.11,1.49-.57,1.35s-1.06-.45-1-1.09S44.17,48.17,44.71,48.6Z" transform="translate(0 3.9)"/><path class="cls-40" d="M47.88,41.75c1.76,1.39.38,5.22-2,4.75s-3.71-1.57-3.4-3.82S46,40.28,47.88,41.75Z" transform="translate(0 3.9)"/><path class="cls-41" d="M47.41,42.61c.86.69.18,2.56-1,2.33s-1.81-.77-1.66-1.87S46.49,41.89,47.41,42.61Z" transform="translate(0 3.9)"/><path class="cls-42" d="M47.38,42.9c.51.4.11,1.49-.57,1.36s-1.06-.45-1-1.1S46.85,42.48,47.38,42.9Z" transform="translate(0 3.9)"/><path class="cls-31" d="M44.43,45.2c1.76,1.39.38,5.22-2,4.75s-3.71-1.57-3.4-3.82S42.56,43.73,44.43,45.2Z" transform="translate(0 3.9)"/><path class="cls-32" d="M44,46.07c.87.68.19,2.55-1,2.32s-1.81-.77-1.66-1.87S43,45.34,44,46.07Z" transform="translate(0 3.9)"/><path class="cls-33" d="M43.93,46.35c.51.4.11,1.49-.57,1.36s-1.06-.45-1-1.1S43.4,45.93,43.93,46.35Z" transform="translate(0 3.9)"/><path class="cls-28" d="M41.5,55.43c1.77,1.39.39,5.22-2,4.75s-3.7-1.57-3.4-3.82S39.63,54,41.5,55.43Z" transform="translate(0 3.9)"/><path class="cls-29" d="M41,56.3c.86.68.19,2.55-1,2.32s-1.81-.77-1.66-1.87S40.11,55.58,41,56.3Z" transform="translate(0 3.9)"/><path class="cls-30" d="M41,56.58c.5.4.11,1.49-.57,1.36s-1.06-.45-1-1.09S40.47,56.16,41,56.58Z" transform="translate(0 3.9)"/><path class="cls-31" d="M44.71,37.42c1.77,1.39.39,5.22-2,4.74S39,40.6,39.33,38.34,42.84,36,44.71,37.42Z" transform="translate(0 3.9)"/><path class="cls-32" d="M44.24,38.28c.86.68.19,2.56-1,2.32s-1.82-.76-1.67-1.86S43.33,37.56,44.24,38.28Z" transform="translate(0 3.9)"/><path class="cls-33" d="M44.22,38.57c.5.39.11,1.49-.57,1.35s-1.06-.45-1-1.09S43.68,38.14,44.22,38.57Z" transform="translate(0 3.9)"/><path class="cls-31" d="M43.74,33c1.76,1.39.39,5.21-2,4.74s-3.7-1.57-3.4-3.82S41.87,31.56,43.74,33Z" transform="translate(0 3.9)"/><path class="cls-32" d="M43.27,33.9c.86.68.19,2.55-1,2.32s-1.81-.76-1.66-1.87S42.35,33.18,43.27,33.9Z" transform="translate(0 3.9)"/><path class="cls-33" d="M43.25,34.18c.5.4.11,1.5-.57,1.36s-1.06-.45-1-1.09S42.71,33.76,43.25,34.18Z" transform="translate(0 3.9)"/><path class="cls-31" d="M36.74,38.56c-2.09.81-4.69-2.32-3.07-4.13s3.23-2.39,5-1S39,37.7,36.74,38.56Z" transform="translate(0 3.9)"/><path class="cls-32" d="M36.24,37.71c-1,.4-2.3-1.13-1.51-2s1.58-1.17,2.46-.48S37.32,37.29,36.24,37.71Z" transform="translate(0 3.9)"/><path class="cls-33" d="M36,37.55c-.6.23-1.34-.67-.88-1.18s.93-.69,1.44-.28S36.64,37.3,36,37.55Z" transform="translate(0 3.9)"/><path class="cls-31" d="M35.77,57.84c-2.1.81-4.69-2.32-3.08-4.13s3.23-2.39,5-1S38,57,35.77,57.84Z" transform="translate(0 3.9)"/><path class="cls-32" d="M35.26,57c-1,.4-2.29-1.13-1.5-2s1.58-1.17,2.45-.48S36.35,56.57,35.26,57Z" transform="translate(0 3.9)"/><path class="cls-33" d="M35,56.83c-.6.23-1.34-.66-.88-1.18s.93-.69,1.44-.28S35.66,56.58,35,56.83Z" transform="translate(0 3.9)"/><path class="cls-31" d="M25.4,55.87c1-1.69,4.46-1,4.35,1.14s-.91,3.4-2.89,3.41S24.36,57.67,25.4,55.87Z" transform="translate(0 3.9)"/><path class="cls-32" d="M26.21,56.17c.48-.83,2.18-.47,2.12.56s-.44,1.66-1.41,1.67S25.7,57.05,26.21,56.17Z" transform="translate(0 3.9)"/><path class="cls-33" d="M26.45,56.16c.29-.49,1.28-.28,1.25.33s-.26,1-.83,1S26.16,56.67,26.45,56.16Z" transform="translate(0 3.9)"/><path class="cls-50" d="M26.5,63.25c1-1.7,4.46-1,4.34,1.14s-.9,3.39-2.88,3.4S25.45,65,26.5,63.25Z" transform="translate(0 3.9)"/><path class="cls-51" d="M27.3,63.55c.48-.83,2.19-.47,2.13.56S29,65.77,28,65.78,26.79,64.43,27.3,63.55Z" transform="translate(0 3.9)"/><path class="cls-52" d="M27.55,63.54c.28-.49,1.28-.28,1.24.32s-.26,1-.82,1S27.25,64.05,27.55,63.54Z" transform="translate(0 3.9)"/><path class="cls-40" d="M35.12,63.58c1.87-.6,4,2.26,2.48,3.75s-2.93,1.93-4.42.61S33.15,64.23,35.12,63.58Z" transform="translate(0 3.9)"/><path class="cls-41" d="M35.52,64.35c.91-.3,1.95,1.1,1.21,1.83s-1.43.94-2.16.3S34.55,64.66,35.52,64.35Z" transform="translate(0 3.9)"/><path class="cls-42" d="M35.72,64.5c.53-.17,1.13.64.71,1.07s-.84.55-1.27.18S35.15,64.68,35.72,64.5Z" transform="translate(0 3.9)"/><path class="cls-31" d="M30.6,64.39c1.86-.61,4,2.25,2.47,3.74s-2.93,1.93-4.42.62S28.62,65,30.6,64.39Z" transform="translate(0 3.9)"/><path class="cls-32" d="M31,65.15c.92-.3,1.95,1.1,1.22,1.83s-1.44,1-2.17.3S30,65.46,31,65.15Z" transform="translate(0 3.9)"/><path class="cls-33" d="M31.19,65.3c.53-.17,1.14.65.71,1.08s-.84.55-1.27.17S30.62,65.49,31.19,65.3Z" transform="translate(0 3.9)"/><path class="cls-31" d="M20.21,43.69c1.95-.17,3.36,3.09,1.57,4.21s-3.29,1.22-4.44-.4S18.14,43.87,20.21,43.69Z" transform="translate(0 3.9)"/><path class="cls-32" d="M20.43,44.52c.95-.08,1.64,1.52.76,2.06s-1.61.6-2.17-.19S19.41,44.61,20.43,44.52Z" transform="translate(0 3.9)"/><path class="cls-33" d="M20.58,44.72c.56,0,1,.88.45,1.2s-.94.35-1.27-.11S20,44.77,20.58,44.72Z" transform="translate(0 3.9)"/><g class="cls-53"><path class="cls-54" d="M25.75,16.88a13.4,13.4,0,0,0-1.23-5.6A8.37,8.37,0,0,0,20.4,7,1.93,1.93,0,0,0,18,9.39c1.25,3,4.06,5.21,5.61,8.06a1.14,1.14,0,0,0,2.1-.57Z" transform="translate(0 3.9)"/></g><g class="cls-19"><g class="cls-55"><path class="cls-17" d="M33.16,4.14c-2.24.17-3.25,2.37-4,4.2a8.36,8.36,0,0,0-.24,7.13c1.84,3.72,13,3.78,22.48,2.32.7-.11-11.27-2.59-11.93-2.88-1.87-.8-5.6.33-6.65-2s1.48-5.12,1.67-7.5a1.29,1.29,0,0,0-1.29-1.29Z" transform="translate(0 3.9)"/></g><g class="cls-56"><path class="cls-7" d="M6.62,11.15a14.38,14.38,0,0,0,3.25.77,7.64,7.64,0,0,1,3.72,1.94c.7.63,2.35,1.78,2.38,2.79a3.15,3.15,0,0,1-.82,1.65c-.43.62-.71,1.32-1.13,1.93-.79,1.14.54,3,1.9,2.48s2.28-.75,3.24-1.9a6.07,6.07,0,0,0,1.43-3.39c.25-2.71-1.5-4.53-3.43-6.14a11,11,0,0,0-6.34-2.95c-1.39-.11-4.57.25-4.56,2.2a.71.71,0,0,0,.36.62Z" transform="translate(0 3.9)"/></g><path class="cls-57" d="M25.51,5.48c.31-1,.35-2.06.58-3.08s.78-2.12,1-3.22a2.51,2.51,0,0,0-4.57-1.92c-1.71,2.3-1.42,6.88.76,8.82a1.37,1.37,0,0,0,2.26-.6Z" transform="translate(0 3.9)"/><path class="cls-57" d="M17.11,4.05a5.72,5.72,0,0,1-1.48-2,4.72,4.72,0,0,1-.39-1,4.84,4.84,0,0,0-1-2,2.33,2.33,0,0,0-3.62.47C9.48,1.35,10.58,3.66,12,5s2.75,1.42,4.51,1.43a1.3,1.3,0,0,0,.65-2.4Z" transform="translate(0 3.9)"/></g><g class="cls-9"><g class="cls-58"><path class="cls-57" d="M87.47,11.14c1.76.29,2.92-.62,3.91-2s2-3.28,1.11-4.92a1.89,1.89,0,0,0-2.1-.85c-1.57.33-2.16,2.07-2.64,3.4a18.06,18.06,0,0,0-1,3.1,1,1,0,0,0,.72,1.27Z" transform="translate(0 3.9)"/></g><g class="cls-58"><path class="cls-57" d="M83.31,8.17a16.63,16.63,0,0,1-.55-2.47c-.18-1-.08-2.12-.68-3a2,2,0,0,0-3.36,0c-.8,1.36-.34,3,.33,4.38a7.24,7.24,0,0,0,2.61,2.74c1.1.81,2-.69,1.65-1.65Z" transform="translate(0 3.9)"/></g><g class="cls-58"><path class="cls-57" d="M92.85,13.34A5.21,5.21,0,0,0,95.1,15c1.3.67,2.21,1.15,3.67.52a1.94,1.94,0,0,0,1-1.76c-.17-1.74-1.45-2.61-3.08-2.91-1.17-.22-2.81-.2-3.62.82a1.4,1.4,0,0,0-.22,1.63Z" transform="translate(0 3.9)"/></g><g class="cls-58"><path class="cls-57" d="M77.67,9.54a4.39,4.39,0,0,0-1.44-2.75,5.5,5.5,0,0,0-3.71-1.48c-2.69.07-3.43,4.18-.65,4.84a12.44,12.44,0,0,0,1.49.22c.29,0,.65.06,1,.12.6.09,1.41.13,2.07.25a1,1,0,0,0,1.2-1.2Z" transform="translate(0 3.9)"/></g></g></g></g></g></g></svg>