<svg xmlns="http://www.w3.org/2000/svg" xmlns:xlink="http://www.w3.org/1999/xlink" viewBox="0 0 103.41 93.34"><defs><style>.cls-1{fill:none;}.cls-2{fill:#528332;}.cls-3{fill:#588c36;}.cls-4{fill:#48732c;}.cls-23,.cls-24,.cls-5{fill:#cd0005;}.cls-6{isolation:isolate;}.cls-7{clip-path:url(#clip-path);}.cls-34,.cls-8{opacity:0.21;}.cls-8{mix-blend-mode:soft-light;}.cls-25,.cls-26,.cls-29,.cls-30,.cls-31,.cls-32,.cls-33,.cls-34,.cls-9{fill:#fff;}.cls-10{opacity:0.19;}.cls-10,.cls-21,.cls-23,.cls-24,.cls-27{mix-blend-mode:multiply;}.cls-11{clip-path:url(#clip-path-2);}.cls-12{clip-path:url(#clip-path-3);}.cls-13{clip-path:url(#clip-path-4);}.cls-14{clip-path:url(#clip-path-5);}.cls-15{clip-path:url(#clip-path-6);}.cls-16{clip-path:url(#clip-path-7);}.cls-17{clip-path:url(#clip-path-8);}.cls-18{clip-path:url(#clip-path-9);}.cls-19{clip-path:url(#clip-path-10);}.cls-20{opacity:0.16;}.cls-20,.cls-25{mix-blend-mode:screen;}.cls-21{opacity:0.27;}.cls-22{clip-path:url(#clip-path-11);}.cls-23{opacity:0.08;}.cls-24,.cls-31{opacity:0.15;}.cls-25{opacity:0.13;}.cls-26{opacity:0.1;}.cls-27{fill:#d2251f;opacity:0.52;}.cls-28{fill:#c43d0e;}.cls-29{opacity:0.25;}.cls-30{opacity:0.18;}.cls-32{opacity:0.17;}.cls-33{opacity:0.29;}</style><clipPath id="clip-path" transform="translate(23.54 13.12)"><path class="cls-1" d="M53.71.52A20.2,20.2,0,0,1,55.52,7.4a25.29,25.29,0,0,1,.19,3.48c0,1.32-.27,2.55.33,3.78a1.75,1.75,0,0,0,3.2,0c1.2-2.31.46-6.09-.27-8.47A10.66,10.66,0,0,0,54.29.06c-.29-.19-.78.09-.58.46Z"/></clipPath><clipPath id="clip-path-2" transform="translate(23.54 13.12)"><path class="cls-1" d="M51.19,4.23c.86,1.82,1.65,3.78,2.39,5.66s.45,3.87,1.3,5.49a1.81,1.81,0,0,0,3,.39c1.68-1.91.62-5-.52-6.91C56,6.54,54,5.29,52.11,3.52c-.45-.41-1.17.19-.92.71Z"/></clipPath><clipPath id="clip-path-3" transform="translate(23.54 13.12)"><path class="cls-2" d="M59.82,3.72C58.57,4.84,58.35,7,57.76,8.48c-.77,1.93-2.16,3.39-3.1,5.21a1.75,1.75,0,0,0,1.86,2.37c2.9-.43,4.66-3.23,5.33-5.88.45-1.82.82-5.55-1.29-6.56a.71.71,0,0,0-.74.1Z"/></clipPath><clipPath id="clip-path-4" transform="translate(23.54 13.12)"><path class="cls-1" d="M65,9.85c-.76,1.4-2.58,2.7-3.84,3.61-1.47,1.06-3.19,1.81-4.4,3.18s.22,3.44,1.87,3.2a10.72,10.72,0,0,0,6-3.75A7.34,7.34,0,0,0,66.35,10c-.06-.74-1-.7-1.31-.16Z"/></clipPath><clipPath id="clip-path-5" transform="translate(23.54 13.12)"><path class="cls-1" d="M70.38,10.78a31.1,31.1,0,0,1-9.08,4.78c-.92.33-1.87.65-2.82.9a12.14,12.14,0,0,0-2.32.59,2,2,0,0,0-.62,3.25c2.46,2.45,7.68-.3,10.1-1.57,2.87-1.51,6.15-3.53,6.16-7.15a.9.9,0,0,0-1.42-.8Z"/></clipPath><clipPath id="clip-path-6" transform="translate(23.54 13.12)"><path class="cls-1" d="M74.16,21c-1.46.35-3-.21-4.4-.57S67,19.7,65.6,19.36c-1.63-.41-3.26-.83-4.9-1.19s-2.81-.77-4.06.58a1.54,1.54,0,0,0-.2,1.52C57,22,59,22.1,60.53,22.47c1.85.42,3.71.79,5.57,1.18a12.3,12.3,0,0,0,8.49-1.08c.79-.38.52-1.78-.43-1.56Z"/></clipPath><clipPath id="clip-path-7" transform="translate(23.54 13.12)"><path class="cls-3" d="M77,14.3c-3.64.92-7.26,2-10.93,2.82a27,27,0,0,1-5.14.72c-1.59,0-3.26-.5-4.68.42a1,1,0,0,0-.37.92c.82,4,7.45,2.6,10.12,1.91a32,32,0,0,0,11.63-5.3c.63-.47.21-1.7-.63-1.49Z"/></clipPath><clipPath id="clip-path-8" transform="translate(23.54 13.12)"><path class="cls-4" d="M75.94,28.38a7,7,0,0,1-1.9.19A4.34,4.34,0,0,1,71.39,28,20.62,20.62,0,0,1,67,24.39c-2-1.91-6-6.81-9-4.37a2,2,0,0,0,.46,3.43c4,1.25,6.55,5.14,10.06,7.19A8.52,8.52,0,0,0,74.05,32c1.89-.3,2.38-1.31,2.79-3,.12-.47-.49-.86-.9-.67Z"/></clipPath><clipPath id="clip-path-9" transform="translate(23.54 13.12)"><path class="cls-2" d="M70.9,35.46c2.17-2.58-1.49-5.75-3.26-7.27A25.54,25.54,0,0,1,64.23,25c-.81-1-1.72-2.9-3.22-2.83A2.12,2.12,0,0,0,59.35,24a4.2,4.2,0,0,0,.55,2.13,12.2,12.2,0,0,0,3,3.54c1.17,1.06,2.47,1.94,3.68,2.94s2,2.54,3.43,3.12a.81.81,0,0,0,.91-.25Z"/></clipPath><clipPath id="clip-path-10" transform="translate(23.54 13.12)"><path class="cls-5" d="M4.65,35.32c3-5.57,8.35-15.17,12.83-19.6,5.14-5.08,9-9.21,16-11,9.93-2.59,22,3.82,27.46,12.54a42.18,42.18,0,0,1,3.53,7.62,30.63,30.63,0,0,1,1.84,7,21.72,21.72,0,0,1-2,9.19C60.21,48.44,58.44,48.92,53,52.27a39.39,39.39,0,0,1-18.19,5.44c-4.25.27-5.29.13-10.42.47a73.13,73.13,0,0,1-11.46.2c-4.4-.51-7.29-1.62-9.45-3.2A7.59,7.59,0,0,1,.16,47.3,39.27,39.27,0,0,1,4.65,35.32Z"/></clipPath><clipPath id="clip-path-11" transform="translate(23.54 13.12)"><path class="cls-1" d="M4.65,35.32c3-5.57,8.35-15.17,12.83-19.6,5.14-5.08,9-9.21,16-11,9.93-2.59,22,3.82,27.46,12.54a42.18,42.18,0,0,1,3.53,7.62,30.63,30.63,0,0,1,1.84,7,21.72,21.72,0,0,1-2,9.19C60.21,48.44,58.44,48.92,53,52.27a39.39,39.39,0,0,1-18.19,5.44c-4.25.27-5.29.13-10.42.47a73.13,73.13,0,0,1-11.46.2c-4.4-.51-7.29-1.62-9.45-3.2A7.59,7.59,0,0,1,.16,47.3,39.27,39.27,0,0,1,4.65,35.32Z"/></clipPath></defs><g class="cls-6"><g id="Capa_2" data-name="Capa 2"><g id="Layer_1" data-name="Layer 1"><g id="Layer_15" data-name="Layer 15"><path class="cls-4" d="M53.71.52A20.2,20.2,0,0,1,55.52,7.4a25.29,25.29,0,0,1,.19,3.48c0,1.32-.27,2.55.33,3.78a1.75,1.75,0,0,0,3.2,0c1.2-2.31.46-6.09-.27-8.47A10.66,10.66,0,0,0,54.29.06c-.29-.19-.78.09-.58.46Z" transform="translate(23.54 13.12)"/><path class="cls-2" d="M51.19,4.23c.86,1.82,1.65,3.78,2.39,5.66s.45,3.87,1.3,5.49a1.81,1.81,0,0,0,3,.39c1.68-1.91.62-5-.52-6.91C56,6.54,54,5.29,52.11,3.52c-.45-.41-1.17.19-.92.71Z" transform="translate(23.54 13.12)"/><g class="cls-7"><g class="cls-8"><path class="cls-9" d="M58.58,7C59.92,5.3,57.67,2.33,57,.75,56.23-1,55.36-4.41,53-2.79a.62.62,0,0,0-.11.86C54-.34,55.62.82,56.64,2.48c.75,1.23.33,3.9,1.71,4.57A.2.2,0,0,0,58.58,7Z" transform="translate(23.54 13.12)"/></g><g class="cls-10"><path class="cls-2" d="M55.86,7.39c1.59-.5.31-4.45-.12-5.61A20.31,20.31,0,0,0,53.31-3a.31.31,0,0,0-.54.08c-.55,1.69.43,3.65.75,5.32.12.62.24,4,1.48,3.56Z" transform="translate(23.54 13.12)"/></g></g><g class="cls-11"><g class="cls-8"><path class="cls-9" d="M56.22,6.65c-.41-.9-1-1.69-1.49-2.57a6.23,6.23,0,0,0-1.28-1.7c-.68-.65-2.62-2.43-3.62-1.3s.89,2.34,1.6,2.83c1.46,1,2.46,2.73,4.08,3.46a.55.55,0,0,0,.71-.72Z" transform="translate(23.54 13.12)"/></g><g class="cls-10"><path class="cls-2" d="M53.38,11.94c.81-2.08-.26-3.94-.77-6.09C52.18,4.07,48.86,1.43,47,.75a.56.56,0,0,0-.77.46c-.09,1.76,4.69,3.39,5.27,5,.67,1.86.75,3.84,1.36,5.72a.3.3,0,0,0,.55,0Z" transform="translate(23.54 13.12)"/></g></g><path class="cls-2" d="M59.82,3.72C58.57,4.84,58.35,7,57.76,8.48c-.77,1.93-2.16,3.39-3.1,5.21a1.75,1.75,0,0,0,1.86,2.37c2.9-.43,4.66-3.23,5.33-5.88.45-1.82.82-5.55-1.29-6.56a.71.71,0,0,0-.74.1Z" transform="translate(23.54 13.12)"/><g class="cls-12"><g class="cls-8"><path class="cls-9" d="M57.1,15.66c2.25,1.64,4.61-3.18,5.17-4.71,1-2.61,1.28-6.45-.38-8.85-.38-.55-1.15-.11-1.1.46a26.66,26.66,0,0,1,.43,4.29,9.43,9.43,0,0,1-1.59,4.55c-.34.48-3.65,3.44-2.53,4.26Z" transform="translate(23.54 13.12)"/></g><g class="cls-10"><path class="cls-2" d="M58.61,6.68c1.89-.85,2.12-4,1.15-5.63-.45-.72-1.47-.25-1.6.44S58.07,3.11,58,3.9a7.77,7.77,0,0,0-.31,2.24.7.7,0,0,0,1,.54Z" transform="translate(23.54 13.12)"/></g></g><path class="cls-4" d="M65,9.85c-.76,1.4-2.58,2.7-3.84,3.61-1.47,1.06-3.19,1.81-4.4,3.18s.22,3.44,1.87,3.2a10.72,10.72,0,0,0,6-3.75A7.34,7.34,0,0,0,66.35,10c-.06-.74-1-.7-1.31-.16Z" transform="translate(23.54 13.12)"/><path class="cls-2" d="M70.38,10.78a31.1,31.1,0,0,1-9.08,4.78c-.92.33-1.87.65-2.82.9a12.14,12.14,0,0,0-2.32.59,2,2,0,0,0-.62,3.25c2.46,2.45,7.68-.3,10.1-1.57,2.87-1.51,6.15-3.53,6.16-7.15a.9.9,0,0,0-1.42-.8Z" transform="translate(23.54 13.12)"/><path class="cls-2" d="M74.16,21c-1.46.35-3-.21-4.4-.57S67,19.7,65.6,19.36c-1.63-.41-3.26-.83-4.9-1.19s-2.81-.77-4.06.58a1.54,1.54,0,0,0-.2,1.52C57,22,59,22.1,60.53,22.47c1.85.42,3.71.79,5.57,1.18a12.3,12.3,0,0,0,8.49-1.08c.79-.38.52-1.78-.43-1.56Z" transform="translate(23.54 13.12)"/><g class="cls-13"><g class="cls-8"><path class="cls-9" d="M64.75,15.26c1.26-1,2.24-1.84,2.53-3.52.21-1.17,0-3.08-1-3.82a.26.26,0,0,0-.41.11,18.27,18.27,0,0,0-.32,3.08,12.08,12.08,0,0,1-1,4c-.06.11,0,.26.16.17Z" transform="translate(23.54 13.12)"/></g><g class="cls-10"><path class="cls-2" d="M58.13,17C60,15.53,61.69,14,63.55,12.5c1.3-1,3.79-2.48,3.43-4.41,0-.27-.29-.59-.6-.58a3.55,3.55,0,0,0-2.44,1.28c-1,.89-2.06,1.7-3.1,2.54-1.55,1.25-4,3.11-3.46,5.37a.47.47,0,0,0,.75.3Z" transform="translate(23.54 13.12)"/></g></g><g class="cls-14"><g class="cls-8"><path class="cls-9" d="M67.05,17.67c3.56.35,6-5.82,5.36-8.61a.42.42,0,0,0-.74-.2c-1.08,1.38-1.18,3.3-2.12,4.81-.78,1.25-2,1.91-2.91,3a.62.62,0,0,0,.41,1Z" transform="translate(23.54 13.12)"/></g><g class="cls-10"><path class="cls-2" d="M64.84,14.85a26.73,26.73,0,0,0,4.84-2.43c1-.65,2.89-1.78,2.63-3.2A.42.42,0,0,0,72,8.87c-1.3-.33-2.58,1.25-3.43,2.05-1.29,1.19-2.59,2.36-3.93,3.5a.25.25,0,0,0,.25.43Z" transform="translate(23.54 13.12)"/></g></g><g class="cls-15"><g class="cls-8"><path class="cls-9" d="M60.29,20.72c2.12,2.87,6.07,3.58,9.43,3.52A17.29,17.29,0,0,0,75,23.32c1.49-.5,3.37-1.09,3.74-2.79.1-.45-.31-.78-.69-.87-1.32-.31-2.62.74-3.82,1.18a16.81,16.81,0,0,1-4.7,1c-3.14.21-6.11-.79-9.18-1.2-.06,0-.09.06-.06.11Z" transform="translate(23.54 13.12)"/></g></g><path class="cls-3" d="M77,14.3c-3.64.92-7.26,2-10.93,2.82a27,27,0,0,1-5.14.72c-1.59,0-3.26-.5-4.68.42a1,1,0,0,0-.37.92c.82,4,7.45,2.6,10.12,1.91a32,32,0,0,0,11.63-5.3c.63-.47.21-1.7-.63-1.49Z" transform="translate(23.54 13.12)"/><g class="cls-16"><g class="cls-8"><path class="cls-9" d="M67.28,20c2,.88,5.13-.73,6.84-1.67s4.57-2.58,4.73-4.75a.37.37,0,0,0-.51-.38A8.05,8.05,0,0,0,76,15.07a14.5,14.5,0,0,1-3.23,2.14,30.22,30.22,0,0,1-3,1.28,5.89,5.89,0,0,0-2.51,1.25.16.16,0,0,0,.07.23Z" transform="translate(23.54 13.12)"/></g><g class="cls-10"><path class="cls-2" d="M68,16.73a9.47,9.47,0,0,0,6-.43c2-.62,4.49-1.62,5.76-3.3.52-.68,0-1.93-1-1.7-1.91.47-3.69,1.77-5.51,2.55a27.53,27.53,0,0,0-5.28,2.45.25.25,0,0,0,.06.43Z" transform="translate(23.54 13.12)"/></g></g><path class="cls-4" d="M75.94,28.38a7,7,0,0,1-1.9.19A4.34,4.34,0,0,1,71.39,28,20.62,20.62,0,0,1,67,24.39c-2-1.91-6-6.81-9-4.37a2,2,0,0,0,.46,3.43c4,1.25,6.55,5.14,10.06,7.19A8.52,8.52,0,0,0,74.05,32c1.89-.3,2.38-1.31,2.79-3,.12-.47-.49-.86-.9-.67Z" transform="translate(23.54 13.12)"/><g class="cls-17"><g class="cls-8"><path class="cls-9" d="M68,30a5.25,5.25,0,0,0,5.94,2.45c1.88-.58,4.94-2.54,4.57-4.82a.61.61,0,0,0-1.07-.28c-1.33,1.38-2.36,2.83-4.39,3.28a4.38,4.38,0,0,1-2.68-.39,10.09,10.09,0,0,0-2.25-.45A.13.13,0,0,0,68,30Z" transform="translate(23.54 13.12)"/></g><g class="cls-10"><path class="cls-2" d="M66.06,23.15c-.12,2.71,2.2,4.27,4.35,5.52s6.24,2.86,8.07.4a.65.65,0,0,0-.12-.91c-1.73-1.06-4-1-5.91-1.87-1.09-.52-2.14-1.13-3.21-1.68-.63-.34-2.15-.68-2.36-1.47-.1-.42-.8-.51-.82,0Z" transform="translate(23.54 13.12)"/></g></g><path class="cls-2" d="M70.9,35.46c2.17-2.58-1.49-5.75-3.26-7.27A25.54,25.54,0,0,1,64.23,25c-.81-1-1.72-2.9-3.22-2.83A2.12,2.12,0,0,0,59.35,24a4.2,4.2,0,0,0,.55,2.13,12.2,12.2,0,0,0,3,3.54c1.17,1.06,2.47,1.94,3.68,2.94s2,2.54,3.43,3.12a.81.81,0,0,0,.91-.25Z" transform="translate(23.54 13.12)"/><g class="cls-18"><g class="cls-8"><path class="cls-9" d="M63.92,29.91A20.28,20.28,0,0,0,67.51,35a7.12,7.12,0,0,1,1.59,2.36c.24.72.17,1.1.76,1.61a.64.64,0,0,0,.65.08c3.76-2.15-4.58-8.51-6.29-9.46-.18-.1-.38.13-.3.31Z" transform="translate(23.54 13.12)"/></g><g class="cls-10"><path class="cls-2" d="M68.71,31.16a11.14,11.14,0,0,1,1,3.95,18.55,18.55,0,0,0,.61,3.47.5.5,0,0,0,.76.21c1.41-.9,1.72-2.93,1.37-4.43a6.28,6.28,0,0,0-1-2.22,6.26,6.26,0,0,0-2.13-1.61.45.45,0,0,0-.63.63Z" transform="translate(23.54 13.12)"/></g></g><path class="cls-5" d="M4.65,35.32c3-5.57,8.35-15.17,12.83-19.6,5.14-5.08,9-9.21,16-11,9.93-2.59,22,3.82,27.46,12.54a42.18,42.18,0,0,1,3.53,7.62,30.63,30.63,0,0,1,1.84,7,21.72,21.72,0,0,1-2,9.19C60.21,48.44,58.44,48.92,53,52.27a39.39,39.39,0,0,1-18.19,5.44c-4.25.27-5.29.13-10.42.47a73.13,73.13,0,0,1-11.46.2c-4.4-.51-7.29-1.62-9.45-3.2A7.59,7.59,0,0,1,.16,47.3,39.27,39.27,0,0,1,4.65,35.32Z" transform="translate(23.54 13.12)"/><g class="cls-19"><g class="cls-20"><path class="cls-9" d="M-2.74,53c.16,3.22,3.42,5.9,6.1,7.23,3.43,1.71,7.58,2.08,11.35,2,7.64-.08,14.63-2.56,22.07-3.91C44,57,51.47,56.63,57.94,52.93A22,22,0,0,0,66,45.19,29,29,0,0,0,69.58,33.5c.51-4.24-.31-8.37-1.39-12.44-1-3.81-1.94-8.1-5.32-10.56a2.17,2.17,0,0,0-3.43,2c.84,6,4.1,11.76,4.08,17.94,0,3.23-1.73,5.58-3.35,8.21s-3.08,4.93-5.73,6.6c-5,3.15-11.29,3.48-17,4.38-6.35,1-12.47,3.24-18.87,4-3.61.41-7.27.31-10.89.57a21.46,21.46,0,0,1-5.13-.09A15.59,15.59,0,0,1-1.8,52.24c-.51-.26-1,.26-.94.73Z" transform="translate(23.54 13.12)"/></g><g class="cls-21"><path class="cls-5" d="M.57,51.3c1.22-2.52,2-5.21,3.36-7.67a44.07,44.07,0,0,1,5.39-7.15c4.21-4.72,8.48-9.42,12.88-14,3.82-4,8-8.45,13.14-10.7a21.52,21.52,0,0,1,6.78-1.74,26.16,26.16,0,0,1,7.34-.16c2.88.53,5.23,2.09,7.63,3.64a38.45,38.45,0,0,1,3.7,2.66c1.25,1,2.59,1.7,3.9,2.58a1,1,0,0,0,1.55-.91,10.82,10.82,0,0,0-1-4.09,22.16,22.16,0,0,0-2.89-3.94c-2-2.53-5.29-4.26-8.25-5.46A42.47,42.47,0,0,0,45,1.63c-3.21-.47-6.82.34-9.89,1.26-6.73,2-11.94,6.74-16.79,11.61A150.53,150.53,0,0,0,3.85,31C1.5,34.2-.85,37.63-2.08,41.41c-1,3-2.06,8,.64,10.43a1.32,1.32,0,0,0,2-.54Z" transform="translate(23.54 13.12)"/></g></g><g class="cls-22"><path class="cls-23" d="M40.41,53.5a65.83,65.83,0,0,1-5.1-6.56,28.13,28.13,0,0,1-4.53-12.88c-.87-8.7,2.36-18.66,9.57-24,4-3,9.84-3.73,13.93-.47,2.34,1.86,5-1.23,3.53-3.53C54.37.73,48-.59,42.14,1.09a18.57,18.57,0,0,0-2.55,1q.6-.49,1.23-1c3.76-2.78.14-9.34-4.19-7.19C31.75-3.66,27-1.13,23.34,3l-.65.75A3.41,3.41,0,0,0,19,5.34,79.71,79.71,0,0,0,14.65,13a3.46,3.46,0,0,0-3.57,1.57,37.11,37.11,0,0,0-5.3,15.34,5.38,5.38,0,0,0-.49.47,10.68,10.68,0,0,0-1.61,2.43A7.35,7.35,0,0,0,1.38,36a13.67,13.67,0,0,0-.61,6.35,4.51,4.51,0,0,0-.84.26C-2,43.4-3.31,46-2.26,48a10.43,10.43,0,0,1,1,2.92A11.14,11.14,0,0,0-1,54.48a4.35,4.35,0,0,0,3.74,3.59c.26.64.54,1.28.83,1.91a4.53,4.53,0,0,0,7.13,1.22,4,4,0,0,0,.59-.16c.48.59,1,1.17,1.46,1.73a4.32,4.32,0,0,0,5.92.77A4.14,4.14,0,0,0,19.9,62l.76.83a4.36,4.36,0,0,0,5.95.78A4.26,4.26,0,0,0,28,61.72a5.07,5.07,0,0,0,5.14-.58,7.49,7.49,0,0,0,2.47.11,27,27,0,0,0,2.18,1.64,3.84,3.84,0,0,0,5.82-1.58C44.87,58,42.39,55.8,40.41,53.5Z" transform="translate(23.54 13.12)"/><path class="cls-24" d="M30.56,51.14a72.83,72.83,0,0,1-5.48-7A30,30,0,0,1,20.2,30.32c-.94-9.32,2.51-20,10.23-25.7,4.27-3.17,10.56-4,15-.49,2.51,2,5.39-1.31,3.79-3.78C45.47-5.33,38.59-6.75,32.34-5a19.86,19.86,0,0,0-2.73,1c.43-.35.87-.7,1.32-1,4-3,.13-10-4.5-7.7-5.25,2.61-10.31,5.31-14.26,9.72q-.36.41-.69.81a3.66,3.66,0,0,0-4,1.7,84.07,84.07,0,0,0-4.6,8.21A3.71,3.71,0,0,0-1,9.45,39.61,39.61,0,0,0-6.65,25.86a4.91,4.91,0,0,0-.51.51A10.75,10.75,0,0,0-8.89,29a7.66,7.66,0,0,0-2.46,3.39,14.49,14.49,0,0,0-.65,6.8,4.08,4.08,0,0,0-.91.27c-2,.85-3.46,3.64-2.33,5.74a11.26,11.26,0,0,1,1.13,3.14,12.06,12.06,0,0,0,.21,3.83,4.68,4.68,0,0,0,4,3.85c.28.69.57,1.37.88,2,1.47,3.15,5.63,3.3,7.67,1.32a4.34,4.34,0,0,0,.62-.16c.52.63,1,1.24,1.57,1.85a4.66,4.66,0,0,0,6.36.83,4.3,4.3,0,0,0,1.33-1.69l.82.89a4.69,4.69,0,0,0,6.39.84,4.55,4.55,0,0,0,1.43-2,5.46,5.46,0,0,0,5.53-.61,8,8,0,0,0,2.65.12,26.34,26.34,0,0,0,2.33,1.76A4.13,4.13,0,0,0,34,59.51C35.35,55.94,32.69,53.61,30.56,51.14Z" transform="translate(23.54 13.12)"/><path class="cls-24" d="M26.23,56.93a71.71,71.71,0,0,1-6.78-5.77,30.19,30.19,0,0,1-7.57-12.52c-2.8-8.94-1.57-20.07,4.84-27.24,3.54-4,9.13-9.41,14.14-6.87C33.73,6,35,2.47,32.93.38,28.15-4.44,22.41-1.39,16.65,1.63a19.69,19.69,0,0,0-2.47,1.55c.35-.43.71-.86,1.09-1.27,3.35-3.72-1.89-9.82-6-6.63-4.61,3.61-9,7.27-12,12.4q-.27.45-.51.93A3.64,3.64,0,0,0-6.8,11.08a84.18,84.18,0,0,0-2.85,9,3.7,3.7,0,0,0-3.42,2.41,39.7,39.7,0,0,0-2.24,17.22,5.21,5.21,0,0,0-.4.6,10.9,10.9,0,0,0-1.17,2.89A7.82,7.82,0,0,0-18.61,47a14.67,14.67,0,0,0,.74,6.79,4.49,4.49,0,0,0-.83.45c-1.82,1.25-2.66,4.27-1.13,6.1a11.13,11.13,0,0,1,1.74,2.84,12.13,12.13,0,0,0,1,3.71,4.67,4.67,0,0,0,4.72,3c.42.62.84,1.23,1.29,1.82,2.06,2.79,6.17,2.09,7.76-.25a5.39,5.39,0,0,0,.59-.29c.63.51,1.26,1,1.91,1.49a4.66,4.66,0,0,0,6.4-.46,4.49,4.49,0,0,0,1-1.93l1,.71a4.69,4.69,0,0,0,6.42-.47,4.56,4.56,0,0,0,1-2.23,5.47,5.47,0,0,0,5.29-1.71,7.88,7.88,0,0,0,2.62-.42,26.59,26.59,0,0,0,2.64,1.25,4.12,4.12,0,0,0,5.78-2.91C31.9,60.66,28.82,58.92,26.23,56.93Z" transform="translate(23.54 13.12)"/><path class="cls-24" d="M22.56,58.29a71.8,71.8,0,0,1-7.64-4.58,30.12,30.12,0,0,1-9.53-11.1C1.15,34.26.53,23.07,5.67,14.94c2.84-4.49,7.45-10.78,12.82-9.1,3.06,1,3.75-2.72,1.36-4.44-5.51-4-10.67,0-15.85,3.92A20.24,20.24,0,0,0,1.81,7.26c.28-.48.56-1,.86-1.44C5.37,1.6-.81-3.55-4.3.27c-3.95,4.32-7.7,8.66-9.79,14.2-.13.34-.24.67-.36,1a3.66,3.66,0,0,0-3.13,3,83.46,83.46,0,0,0-1.33,9.33,3.7,3.7,0,0,0-3,2.94,39.48,39.48,0,0,0,.63,17.36,4.33,4.33,0,0,0-.31.65,11.27,11.27,0,0,0-.67,3,7.82,7.82,0,0,0-1.08,4,14.7,14.7,0,0,0,1.85,6.58,4.44,4.44,0,0,0-.75.58c-1.59,1.53-1.91,4.65-.1,6.2a11.11,11.11,0,0,1,2.18,2.52,12.24,12.24,0,0,0,1.58,3.5,4.66,4.66,0,0,0,5.14,2.13c.52.54,1,1.08,1.57,1.59,2.5,2.41,6.43,1,7.62-1.53.19-.12.36-.25.53-.38.7.4,1.41.79,2.13,1.15A4.64,4.64,0,0,0,4.67,76.7a4.39,4.39,0,0,0,.63-2l1.08.53a4.7,4.7,0,0,0,6.27-1.52,4.55,4.55,0,0,0,.62-2.36,5.52,5.52,0,0,0,4.94-2.56,8.2,8.2,0,0,0,2.51-.85,27.28,27.28,0,0,0,2.81.8,4.12,4.12,0,0,0,5.22-3.82C28.76,61,25.44,59.83,22.56,58.29Z" transform="translate(23.54 13.12)"/></g><path class="cls-25" d="M61.51,30.05c.7-6.88-6.17-11.8-12.22-12.93C43,15.94,36.2,18.71,31.67,23a38.88,38.88,0,0,0-6.41,8l-.45.74A34.08,34.08,0,0,0,22.16,35c-.41.48-.82,1-1.21,1.48-1.95,2.45-5.36,5.95-4.48,9.35a4.44,4.44,0,0,0,4.29,3.33,8.39,8.39,0,0,0,2.61-.48A22,22,0,0,0,27,48.53c1.74-.1,3.48-.24,5.21-.41,6-.59,12.42-1.23,17.89-3.91S60.87,36.26,61.51,30.05Z" transform="translate(23.54 13.12)"/><path class="cls-26" d="M58.46,31c.49-4.87-4.37-8.35-8.65-9.15S40.55,23,37.35,26a28,28,0,0,0-4.54,5.68c-.1.18-.21.36-.32.53a25.32,25.32,0,0,0-1.87,2.27l-.86,1.05C28.38,37.3,26,39.77,26.6,42.18a3.12,3.12,0,0,0,3,2.35,5.85,5.85,0,0,0,1.85-.34,15.66,15.66,0,0,0,2.57-.09c1.23-.07,2.46-.17,3.69-.29,4.23-.41,8.78-.87,12.65-2.76S58,35.42,58.46,31Z" transform="translate(23.54 13.12)"/><path class="cls-26" d="M54.55,32c.3-2.93-2.63-5-5.2-5.51a9,9,0,0,0-7.5,2.5,16.1,16.1,0,0,0-2.73,3.42c-.07.1-.13.21-.19.31-4.13,9.57,8.44,6.44,10.77,5.3S54.28,34.68,54.55,32Z" transform="translate(23.54 13.12)"/><path class="cls-27" d="M3.66,41.62a1.22,1.22,0,0,1,1.78,1.66c-.46.5-2.28.66-2.28.66A5.33,5.33,0,0,1,3.66,41.62Z" transform="translate(23.54 13.12)"/><path class="cls-28" d="M4,42.07a.66.66,0,0,1,1,.9c-.25.27-1.23.36-1.23.36S3.73,42.34,4,42.07Z" transform="translate(23.54 13.12)"/><path class="cls-29" d="M4.36,42.53a.24.24,0,0,1,.34,0,.23.23,0,0,1,0,.33c-.09.1-.44.13-.44.13S4.27,42.63,4.36,42.53Z" transform="translate(23.54 13.12)"/><path class="cls-27" d="M2.78,48.79A1.22,1.22,0,0,1,4.5,49a1.21,1.21,0,0,1-.18,1.71C3.8,51.11,2,51,2,51S2.26,49.22,2.78,48.79Z" transform="translate(23.54 13.12)"/><path class="cls-28" d="M3,49.28a.66.66,0,0,1,.83,1,2.89,2.89,0,0,1-1.27.19S2.76,49.51,3,49.28Z" transform="translate(23.54 13.12)"/><path class="cls-30" d="M3.36,49.79a.23.23,0,0,1,.33,0,.24.24,0,0,1,0,.34c-.1.08-.46.06-.46.06S3.26,49.87,3.36,49.79Z" transform="translate(23.54 13.12)"/><path class="cls-27" d="M10.63,50.74A1.22,1.22,0,1,1,11.56,53c-.63.26-2.35-.35-2.35-.35S10,51,10.63,50.74Z" transform="translate(23.54 13.12)"/><path class="cls-28" d="M10.73,51.28a.66.66,0,1,1,.5,1.22c-.34.14-1.26-.19-1.26-.19S10.39,51.42,10.73,51.28Z" transform="translate(23.54 13.12)"/><path class="cls-30" d="M10.89,51.86a.23.23,0,0,1,.31.12.25.25,0,0,1-.13.32c-.12.05-.46-.07-.46-.07S10.77,51.91,10.89,51.86Z" transform="translate(23.54 13.12)"/><path class="cls-27" d="M11.07,54.57A1.22,1.22,0,1,1,12,56.82c-.62.26-2.34-.35-2.34-.35S10.45,54.82,11.07,54.57Z" transform="translate(23.54 13.12)"/><path class="cls-28" d="M11.18,55.11a.64.64,0,0,1,.85.36.66.66,0,0,1-.35.86c-.34.14-1.27-.19-1.27-.19S10.84,55.25,11.18,55.11Z" transform="translate(23.54 13.12)"/><path class="cls-30" d="M11.34,55.69a.23.23,0,0,1,.31.13.24.24,0,0,1-.13.31c-.12,0-.46-.07-.46-.07S11.21,55.74,11.34,55.69Z" transform="translate(23.54 13.12)"/><path class="cls-27" d="M6,44.44a1.22,1.22,0,1,1,.93,2.25c-.62.26-2.34-.35-2.34-.35S5.36,44.69,6,44.44Z" transform="translate(23.54 13.12)"/><path class="cls-28" d="M6.08,45a.66.66,0,1,1,.5,1.22c-.33.14-1.26-.19-1.26-.19S5.75,45.12,6.08,45Z" transform="translate(23.54 13.12)"/><path class="cls-30" d="M6.24,45.56a.24.24,0,1,1,.19.44A1,1,0,0,1,6,45.93S6.12,45.61,6.24,45.56Z" transform="translate(23.54 13.12)"/><path class="cls-27" d="M12.05,43.1a1.22,1.22,0,0,1,1.68,1.76c-.48.47-2.31.52-2.31.52S11.56,43.56,12.05,43.1Z" transform="translate(23.54 13.12)"/><path class="cls-28" d="M12.34,43.57a.66.66,0,0,1,.91,1c-.26.25-1.25.28-1.25.28S12.08,43.82,12.34,43.57Z" transform="translate(23.54 13.12)"/><path class="cls-30" d="M12.7,44a.24.24,0,0,1,.33.35,1,1,0,0,1-.45.1S12.6,44.14,12.7,44Z" transform="translate(23.54 13.12)"/><path class="cls-27" d="M10.43,35.65a1.22,1.22,0,0,1,1.69,1.76c-.49.47-2.32.53-2.32.53S9.94,36.12,10.43,35.65Z" transform="translate(23.54 13.12)"/><path class="cls-28" d="M10.72,36.12a.66.66,0,0,1,.91,1c-.26.25-1.25.28-1.25.28S10.46,36.37,10.72,36.12Z" transform="translate(23.54 13.12)"/><path class="cls-30" d="M11.08,36.6a.25.25,0,0,1,.34,0,.24.24,0,0,1,0,.34c-.09.09-.45.1-.45.1A1.07,1.07,0,0,1,11.08,36.6Z" transform="translate(23.54 13.12)"/><path class="cls-27" d="M12.81,31.37a1.22,1.22,0,0,1,1.68,1.77c-.48.46-2.31.52-2.31.52S12.32,31.84,12.81,31.37Z" transform="translate(23.54 13.12)"/><path class="cls-28" d="M13.1,31.84a.66.66,0,0,1,.91.95c-.26.25-1.25.29-1.25.29S12.84,32.09,13.1,31.84Z" transform="translate(23.54 13.12)"/><path class="cls-31" d="M13.46,32.32a.24.24,0,0,1,.34,0,.24.24,0,0,1,0,.33,1.09,1.09,0,0,1-.45.11A1.11,1.11,0,0,1,13.46,32.32Z" transform="translate(23.54 13.12)"/><path class="cls-27" d="M15.81,33.37a1.22,1.22,0,0,1,1.69,1.76c-.49.47-2.32.53-2.32.53S15.32,33.84,15.81,33.37Z" transform="translate(23.54 13.12)"/><path class="cls-28" d="M16.1,33.84a.66.66,0,0,1,.93,0,.65.65,0,0,1,0,.93c-.26.25-1.24.28-1.24.28S15.84,34.09,16.1,33.84Z" transform="translate(23.54 13.12)"/><path class="cls-31" d="M16.46,34.32a.25.25,0,0,1,.34,0,.24.24,0,0,1,0,.34c-.09.09-.45.1-.45.1A1.07,1.07,0,0,1,16.46,34.32Z" transform="translate(23.54 13.12)"/><path class="cls-27" d="M14.11,38.18a1.22,1.22,0,0,1,1.69,1.76c-.49.47-2.32.53-2.32.53S13.62,38.65,14.11,38.18Z" transform="translate(23.54 13.12)"/><path class="cls-28" d="M14.4,38.65a.66.66,0,0,1,.93,0,.65.65,0,0,1,0,.93c-.26.25-1.24.28-1.24.28S14.14,38.9,14.4,38.65Z" transform="translate(23.54 13.12)"/><path class="cls-30" d="M14.76,39.13a.25.25,0,0,1,.34,0,.24.24,0,0,1,0,.34c-.09.09-.45.1-.45.1A1.07,1.07,0,0,1,14.76,39.13Z" transform="translate(23.54 13.12)"/><path class="cls-27" d="M14,26.25A1.22,1.22,0,1,1,15.65,28c-.48.47-2.31.52-2.31.52S13.48,26.71,14,26.25Z" transform="translate(23.54 13.12)"/><path class="cls-28" d="M14.26,26.72a.65.65,0,0,1,.93,0,.66.66,0,0,1,0,.93c-.26.25-1.25.28-1.25.28S14,27,14.26,26.72Z" transform="translate(23.54 13.12)"/><path class="cls-31" d="M14.62,27.19a.24.24,0,0,1,.33,0,.25.25,0,0,1,0,.34,1,1,0,0,1-.45.1S14.52,27.28,14.62,27.19Z" transform="translate(23.54 13.12)"/><path class="cls-27" d="M18.53,16.68a1.22,1.22,0,0,1,1.68,1.77c-.48.46-2.31.52-2.31.52S18,17.15,18.53,16.68Z" transform="translate(23.54 13.12)"/><path class="cls-28" d="M18.82,17.15a.66.66,0,1,1,.91,1c-.26.26-1.25.29-1.25.29A3,3,0,0,1,18.82,17.15Z" transform="translate(23.54 13.12)"/><path class="cls-31" d="M19.18,17.63a.24.24,0,0,1,.33.34c-.1.1-.45.11-.45.11S19.08,17.72,19.18,17.63Z" transform="translate(23.54 13.12)"/><path class="cls-27" d="M23,37.27a1.22,1.22,0,0,1,1.72,0,1.23,1.23,0,0,1,0,1.73c-.49.46-2.32.52-2.32.52S22.49,37.73,23,37.27Z" transform="translate(23.54 13.12)"/><path class="cls-28" d="M23.27,37.74a.64.64,0,0,1,.93,0,.66.66,0,0,1,0,.93c-.26.25-1.25.28-1.25.28S23,38,23.27,37.74Z" transform="translate(23.54 13.12)"/><path class="cls-32" d="M23.63,38.21a.24.24,0,1,1,.33.35c-.09.09-.45.1-.45.1A1.11,1.11,0,0,1,23.63,38.21Z" transform="translate(23.54 13.12)"/><path class="cls-27" d="M18.77,39.36a1.22,1.22,0,1,1,1.69,1.76c-.48.46-2.31.52-2.31.52S18.29,39.82,18.77,39.36Z" transform="translate(23.54 13.12)"/><path class="cls-28" d="M19.07,39.83a.64.64,0,0,1,.93,0,.66.66,0,0,1,0,.93c-.26.25-1.25.28-1.25.28S18.81,40.08,19.07,39.83Z" transform="translate(23.54 13.12)"/><path class="cls-30" d="M19.43,40.3a.23.23,0,0,1,.33,0,.25.25,0,0,1,0,.34,1,1,0,0,1-.45.1S19.33,40.39,19.43,40.3Z" transform="translate(23.54 13.12)"/><path class="cls-27" d="M8.64,40.75a1.22,1.22,0,0,1,1.69,1.76C9.84,43,8,43,8,43S8.15,41.21,8.64,40.75Z" transform="translate(23.54 13.12)"/><path class="cls-28" d="M8.93,41.22a.66.66,0,0,1,.91,1c-.26.25-1.25.28-1.25.28S8.67,41.47,8.93,41.22Z" transform="translate(23.54 13.12)"/><path class="cls-30" d="M9.29,41.69a.25.25,0,0,1,.34,0,.24.24,0,0,1,0,.34c-.09.09-.45.1-.45.1A1.15,1.15,0,0,1,9.29,41.69Z" transform="translate(23.54 13.12)"/><path class="cls-27" d="M33.7,29.86a1.22,1.22,0,0,1,1.72,0,1.23,1.23,0,0,1,0,1.73c-.49.46-2.32.52-2.32.52S33.21,30.32,33.7,29.86Z" transform="translate(23.54 13.12)"/><path class="cls-28" d="M34,30.33a.64.64,0,0,1,.93,0,.66.66,0,0,1,0,.93c-.26.25-1.24.28-1.24.28S33.73,30.58,34,30.33Z" transform="translate(23.54 13.12)"/><path class="cls-30" d="M34.35,30.8a.25.25,0,0,1,.34,0,.24.24,0,0,1,0,.34c-.09.09-.45.1-.45.1A1.11,1.11,0,0,1,34.35,30.8Z" transform="translate(23.54 13.12)"/><path class="cls-27" d="M29.69,28.48a1.22,1.22,0,0,1,1.69,1.77,5.36,5.36,0,0,1-2.31.52S29.2,29,29.69,28.48Z" transform="translate(23.54 13.12)"/><path class="cls-28" d="M30,29a.66.66,0,0,1,.93,0,.64.64,0,0,1,0,.93c-.26.25-1.24.29-1.24.29S29.72,29.2,30,29Z" transform="translate(23.54 13.12)"/><path class="cls-32" d="M30.34,29.43a.24.24,0,0,1,.34,0,.23.23,0,0,1,0,.33c-.09.09-.45.11-.45.11A1.11,1.11,0,0,1,30.34,29.43Z" transform="translate(23.54 13.12)"/><path class="cls-27" d="M40.19,28.14a1.22,1.22,0,1,1,1.19,2.13C40.8,30.6,39,30.2,39,30.2S39.6,28.47,40.19,28.14Z" transform="translate(23.54 13.12)"/><path class="cls-28" d="M40.36,28.67a.65.65,0,0,1,.89.25.66.66,0,0,1-.25.9c-.32.18-1.28,0-1.28,0S40,28.85,40.36,28.67Z" transform="translate(23.54 13.12)"/><path class="cls-33" d="M40.59,29.22a.24.24,0,0,1,.32.09.25.25,0,0,1-.09.33,1.06,1.06,0,0,1-.46,0S40.47,29.29,40.59,29.22Z" transform="translate(23.54 13.12)"/><path class="cls-27" d="M49.69,23.41a1.22,1.22,0,1,1,1.19,2.13c-.58.33-2.37-.07-2.37-.07S49.1,23.74,49.69,23.41Z" transform="translate(23.54 13.12)"/><path class="cls-28" d="M49.86,23.94a.65.65,0,0,1,.89.25.66.66,0,0,1-.25.9,3,3,0,0,1-1.28,0S49.54,24.12,49.86,23.94Z" transform="translate(23.54 13.12)"/><path class="cls-34" d="M50.08,24.49a.25.25,0,0,1,.33.09.24.24,0,0,1-.09.32c-.12.07-.46,0-.46,0S50,24.55,50.08,24.49Z" transform="translate(23.54 13.12)"/><path class="cls-27" d="M51.5,27.8a1.22,1.22,0,0,1,1.2,2.13,5.28,5.28,0,0,1-2.37-.07S50.91,28.13,51.5,27.8Z" transform="translate(23.54 13.12)"/><path class="cls-28" d="M51.67,28.33a.64.64,0,0,1,.89.25.66.66,0,0,1-.25.9,2.93,2.93,0,0,1-1.27,0S51.35,28.51,51.67,28.33Z" transform="translate(23.54 13.12)"/><path class="cls-34" d="M51.9,28.88a.24.24,0,0,1,.32.09.22.22,0,0,1-.09.32c-.11.07-.46,0-.46,0S51.78,28.94,51.9,28.88Z" transform="translate(23.54 13.12)"/><path class="cls-27" d="M44.93,23.08a1.22,1.22,0,1,1,1.2,2.12,5.28,5.28,0,0,1-2.37-.07S44.34,23.41,44.93,23.08Z" transform="translate(23.54 13.12)"/><path class="cls-28" d="M45.1,23.6a.66.66,0,0,1,.64,1.15c-.31.18-1.27,0-1.27,0S44.78,23.78,45.1,23.6Z" transform="translate(23.54 13.12)"/><path class="cls-34" d="M45.33,24.15a.24.24,0,0,1,.32.1.23.23,0,0,1-.09.32,1.11,1.11,0,0,1-.46,0S45.21,24.22,45.33,24.15Z" transform="translate(23.54 13.12)"/><path class="cls-27" d="M37.48,25a1.22,1.22,0,0,1,1.2,2.13,5.28,5.28,0,0,1-2.37-.07S36.9,25.36,37.48,25Z" transform="translate(23.54 13.12)"/><path class="cls-28" d="M37.65,25.56a.66.66,0,1,1,.64,1.15c-.31.18-1.27,0-1.27,0S37.33,25.74,37.65,25.56Z" transform="translate(23.54 13.12)"/><path class="cls-33" d="M37.88,26.11a.24.24,0,0,1,.32.09.24.24,0,0,1-.09.33,1.11,1.11,0,0,1-.46,0S37.76,26.18,37.88,26.11Z" transform="translate(23.54 13.12)"/><path class="cls-27" d="M58,25.87a1.23,1.23,0,1,1,1.84,1.62c-.45.5-2.26.72-2.26.72A5.38,5.38,0,0,1,58,25.87Z" transform="translate(23.54 13.12)"/><path class="cls-28" d="M58.37,26.32a.65.65,0,0,1,.93-.06.66.66,0,0,1,.05.93c-.24.27-1.21.38-1.21.38S58.13,26.59,58.37,26.32Z" transform="translate(23.54 13.12)"/><path class="cls-34" d="M58.77,26.76a.23.23,0,0,1,.35.31c-.08.1-.44.15-.44.15S58.68,26.86,58.77,26.76Z" transform="translate(23.54 13.12)"/><path class="cls-27" d="M61.61,24.53a1.21,1.21,0,0,1,1.72-.11,1.23,1.23,0,0,1,.11,1.72c-.45.51-2.26.72-2.26.72S61.16,25,61.61,24.53Z" transform="translate(23.54 13.12)"/><path class="cls-28" d="M61.94,25a.66.66,0,0,1,1,.87c-.24.27-1.22.39-1.22.39S61.7,25.24,61.94,25Z" transform="translate(23.54 13.12)"/><path class="cls-34" d="M62.34,25.42a.24.24,0,0,1,.33,0,.24.24,0,0,1,0,.34c-.08.1-.44.14-.44.14S62.25,25.51,62.34,25.42Z" transform="translate(23.54 13.12)"/><path class="cls-27" d="M54,23.93a1.22,1.22,0,1,1,1.83,1.62c-.45.5-2.26.71-2.26.71S53.55,24.44,54,23.93Z" transform="translate(23.54 13.12)"/><path class="cls-28" d="M54.33,24.38a.65.65,0,0,1,.93-.06.66.66,0,0,1,.06.93c-.24.27-1.22.38-1.22.38S54.09,24.65,54.33,24.38Z" transform="translate(23.54 13.12)"/><path class="cls-34" d="M54.73,24.82a.23.23,0,0,1,.33,0,.24.24,0,0,1,0,.33c-.09.1-.44.14-.44.14S54.64,24.92,54.73,24.82Z" transform="translate(23.54 13.12)"/><path class="cls-27" d="M57.34,21.68a1.23,1.23,0,0,1,1.72-.11,1.21,1.21,0,0,1,.11,1.72c-.45.51-2.26.72-2.26.72S56.89,22.19,57.34,21.68Z" transform="translate(23.54 13.12)"/><path class="cls-28" d="M57.67,22.13a.66.66,0,0,1,1,.86c-.24.28-1.22.39-1.22.39S57.43,22.4,57.67,22.13Z" transform="translate(23.54 13.12)"/><path class="cls-34" d="M58.07,22.57a.24.24,0,0,1,.34,0,.25.25,0,0,1,0,.33C58.34,23,58,23,58,23S58,22.67,58.07,22.57Z" transform="translate(23.54 13.12)"/><path class="cls-27" d="M55.88,30.7a1.22,1.22,0,0,1,1.84,1.61c-.45.51-2.26.72-2.26.72S55.44,31.2,55.88,30.7Z" transform="translate(23.54 13.12)"/><path class="cls-28" d="M56.22,31.14a.66.66,0,1,1,1,.87c-.24.27-1.21.39-1.21.39S56,31.41,56.22,31.14Z" transform="translate(23.54 13.12)"/><path class="cls-34" d="M56.62,31.58a.25.25,0,0,1,.33,0,.24.24,0,0,1,0,.34c-.08.1-.44.14-.44.14S56.53,31.68,56.62,31.58Z" transform="translate(23.54 13.12)"/><path class="cls-27" d="M60.13,18.45a1.22,1.22,0,0,1,0,2.44c-.67,0-2-1.21-2-1.21S59.45,18.45,60.13,18.45Z" transform="translate(23.54 13.12)"/><path class="cls-28" d="M60,19a.66.66,0,0,1,0,1.32c-.36,0-1.1-.65-1.1-.65S59.65,19,60,19Z" transform="translate(23.54 13.12)"/><path class="cls-33" d="M60,19.59a.23.23,0,0,1,.24.23.24.24,0,0,1-.24.24c-.13,0-.4-.23-.4-.23S59.82,19.59,60,19.59Z" transform="translate(23.54 13.12)"/><path class="cls-27" d="M52.62,14.79a1.22,1.22,0,0,1,.16,2.44c-.68,0-2.11-1.09-2.11-1.09S52,14.84,52.62,14.79Z" transform="translate(23.54 13.12)"/><path class="cls-28" d="M52.54,15.34a.66.66,0,0,1,.09,1.32c-.37,0-1.14-.59-1.14-.59S52.18,15.37,52.54,15.34Z" transform="translate(23.54 13.12)"/><path class="cls-33" d="M52.51,15.94a.24.24,0,0,1,.25.22.23.23,0,0,1-.22.25c-.13,0-.41-.21-.41-.21S52.38,16,52.51,15.94Z" transform="translate(23.54 13.12)"/><path class="cls-27" d="M51.82,9.69A1.22,1.22,0,0,1,52,12.12c-.68,0-2.11-1.08-2.11-1.08S51.15,9.73,51.82,9.69Z" transform="translate(23.54 13.12)"/><path class="cls-28" d="M51.74,10.23a.66.66,0,0,1,.09,1.32c-.37,0-1.14-.59-1.14-.59S51.38,10.26,51.74,10.23Z" transform="translate(23.54 13.12)"/><path class="cls-32" d="M51.71,10.83a.24.24,0,0,1,.25.22.23.23,0,0,1-.22.25c-.13,0-.41-.21-.41-.21S51.58,10.84,51.71,10.83Z" transform="translate(23.54 13.12)"/><path class="cls-27" d="M42.73,10.34a1.22,1.22,0,1,1,.15,2.43c-.67.05-2.1-1.08-2.1-1.08S42.05,10.38,42.73,10.34Z" transform="translate(23.54 13.12)"/><path class="cls-28" d="M42.65,10.89a.66.66,0,0,1,.7.61.67.67,0,0,1-.62.7c-.36,0-1.13-.59-1.13-.59S42.29,10.91,42.65,10.89Z" transform="translate(23.54 13.12)"/><path class="cls-32" d="M42.62,11.48a.24.24,0,0,1,.25.22.24.24,0,0,1-.22.26c-.13,0-.41-.21-.41-.21S42.49,11.49,42.62,11.48Z" transform="translate(23.54 13.12)"/><path class="cls-27" d="M53.47,18.59A1.22,1.22,0,0,1,53.63,21c-.67,0-2.11-1.09-2.11-1.09S52.8,18.64,53.47,18.59Z" transform="translate(23.54 13.12)"/><path class="cls-28" d="M53.39,19.14a.66.66,0,0,1,.09,1.32c-.36,0-1.14-.59-1.14-.59S53,19.17,53.39,19.14Z" transform="translate(23.54 13.12)"/><path class="cls-33" d="M53.36,19.74a.24.24,0,1,1,0,.47c-.13,0-.41-.21-.41-.21S53.23,19.75,53.36,19.74Z" transform="translate(23.54 13.12)"/><path class="cls-27" d="M57,15.63a1.22,1.22,0,0,1,.16,2.44C56.47,18.11,55,17,55,17S56.31,15.68,57,15.63Z" transform="translate(23.54 13.12)"/><path class="cls-28" d="M56.91,16.18A.66.66,0,0,1,57,17.5c-.37,0-1.14-.59-1.14-.59S56.55,16.21,56.91,16.18Z" transform="translate(23.54 13.12)"/><path class="cls-33" d="M56.88,16.78a.24.24,0,1,1,0,.47c-.13,0-.41-.21-.41-.21S56.75,16.79,56.88,16.78Z" transform="translate(23.54 13.12)"/><path class="cls-27" d="M46.33,13.51A1.22,1.22,0,0,1,46.49,16c-.68,0-2.11-1.09-2.11-1.09S45.65,13.56,46.33,13.51Z" transform="translate(23.54 13.12)"/><path class="cls-28" d="M46.25,14.06a.66.66,0,0,1,.09,1.32c-.37,0-1.14-.59-1.14-.59S45.89,14.09,46.25,14.06Z" transform="translate(23.54 13.12)"/><path class="cls-32" d="M46.22,14.66a.24.24,0,0,1,0,.47c-.13,0-.41-.21-.41-.21S46.09,14.67,46.22,14.66Z" transform="translate(23.54 13.12)"/><path class="cls-27" d="M41.05,36.4a1.22,1.22,0,1,1,1.19,2.13c-.58.33-2.37-.07-2.37-.07S40.46,36.73,41.05,36.4Z" transform="translate(23.54 13.12)"/><path class="cls-28" d="M41.22,36.93a.65.65,0,1,1,.64,1.14,2.85,2.85,0,0,1-1.28,0S40.9,37.1,41.22,36.93Z" transform="translate(23.54 13.12)"/><path class="cls-34" d="M41.44,37.48a.24.24,0,0,1,.33.09.24.24,0,0,1-.09.32c-.12.07-.46,0-.46,0S41.33,37.54,41.44,37.48Z" transform="translate(23.54 13.12)"/><path class="cls-27" d="M40.77,39.68A1.22,1.22,0,0,1,42,41.81a5.28,5.28,0,0,1-2.37-.07S40.18,40,40.77,39.68Z" transform="translate(23.54 13.12)"/><path class="cls-28" d="M40.94,40.21a.65.65,0,1,1,.64,1.14c-.31.18-1.27,0-1.27,0S40.62,40.38,40.94,40.21Z" transform="translate(23.54 13.12)"/><path class="cls-34" d="M41.17,40.76a.24.24,0,0,1,.23.41c-.11.07-.46,0-.46,0S41.05,40.82,41.17,40.76Z" transform="translate(23.54 13.12)"/><path class="cls-27" d="M35.77,43.11A1.22,1.22,0,1,1,37,45.24c-.58.33-2.37-.07-2.37-.07S35.18,43.44,35.77,43.11Z" transform="translate(23.54 13.12)"/><path class="cls-28" d="M35.94,43.64a.65.65,0,1,1,.64,1.14,2.85,2.85,0,0,1-1.28,0S35.62,43.81,35.94,43.64Z" transform="translate(23.54 13.12)"/><path class="cls-33" d="M36.16,44.19a.24.24,0,0,1,.33.09.24.24,0,0,1-.09.32c-.12.07-.46,0-.46,0S36.05,44.25,36.16,44.19Z" transform="translate(23.54 13.12)"/><path class="cls-27" d="M35.84,35.05A1.22,1.22,0,0,1,37,37.18a5.28,5.28,0,0,1-2.37-.07S35.25,35.38,35.84,35.05Z" transform="translate(23.54 13.12)"/><path class="cls-28" d="M36,35.58a.65.65,0,1,1,.64,1.14c-.31.18-1.28,0-1.28,0S35.69,35.75,36,35.58Z" transform="translate(23.54 13.12)"/><path class="cls-33" d="M36.24,36.13a.22.22,0,0,1,.32.09.23.23,0,0,1-.09.32c-.11.07-.46,0-.46,0S36.12,36.19,36.24,36.13Z" transform="translate(23.54 13.12)"/><path class="cls-27" d="M36.48,38.32a1.22,1.22,0,1,1,1.19,2.13c-.58.33-2.37-.07-2.37-.07S35.89,38.65,36.48,38.32Z" transform="translate(23.54 13.12)"/><path class="cls-28" d="M36.64,38.85A.66.66,0,0,1,37.29,40,3,3,0,0,1,36,40S36.33,39,36.64,38.85Z" transform="translate(23.54 13.12)"/><path class="cls-33" d="M36.87,39.4a.25.25,0,0,1,.33.09.24.24,0,0,1-.09.32c-.12.07-.47,0-.47,0S36.76,39.46,36.87,39.4Z" transform="translate(23.54 13.12)"/><path class="cls-27" d="M36,21.47a1.22,1.22,0,1,1,1.68,1.76c-.48.47-2.31.53-2.31.53S35.54,21.94,36,21.47Z" transform="translate(23.54 13.12)"/><path class="cls-28" d="M36.32,21.94a.66.66,0,1,1,.91.95c-.26.25-1.25.28-1.25.28S36.06,22.19,36.32,21.94Z" transform="translate(23.54 13.12)"/><path class="cls-33" d="M36.68,22.42a.24.24,0,0,1,.33,0,.24.24,0,0,1,0,.34,1,1,0,0,1-.45.1S36.58,22.51,36.68,22.42Z" transform="translate(23.54 13.12)"/><path class="cls-27" d="M43.07,16.78A1.22,1.22,0,0,1,44.14,19a5.36,5.36,0,0,1-2.36-.21S42.46,17.08,43.07,16.78Z" transform="translate(23.54 13.12)"/><path class="cls-28" d="M43.21,17.32a.66.66,0,0,1,.88.3.66.66,0,0,1-.31.88c-.32.16-1.27-.11-1.27-.11S42.88,17.48,43.21,17.32Z" transform="translate(23.54 13.12)"/><path class="cls-32" d="M43.4,17.88a.25.25,0,0,1,.32.11.24.24,0,0,1-.11.32c-.12.06-.46,0-.46,0S43.29,17.94,43.4,17.88Z" transform="translate(23.54 13.12)"/><path class="cls-27" d="M38.53,17.32a1.22,1.22,0,1,1,1.07,2.19c-.6.3-2.36-.2-2.36-.2S37.93,17.62,38.53,17.32Z" transform="translate(23.54 13.12)"/><path class="cls-28" d="M38.67,17.86a.65.65,0,0,1,.88.3.66.66,0,0,1-.3.88A2.87,2.87,0,0,1,38,18.93S38.34,18,38.67,17.86Z" transform="translate(23.54 13.12)"/><path class="cls-32" d="M38.87,18.42a.23.23,0,0,1,.31.11.24.24,0,0,1-.11.32c-.11.06-.46,0-.46,0S38.75,18.48,38.87,18.42Z" transform="translate(23.54 13.12)"/><path class="cls-27" d="M46.84,18.56a1.22,1.22,0,0,1,1.07,2.19,5.39,5.39,0,0,1-2.36-.2S46.24,18.85,46.84,18.56Z" transform="translate(23.54 13.12)"/><path class="cls-28" d="M47,19.09a.66.66,0,0,1,.57,1.19c-.32.16-1.27-.11-1.27-.11S46.65,19.25,47,19.09Z" transform="translate(23.54 13.12)"/><path class="cls-33" d="M47.17,19.66a.23.23,0,0,1,.32.11.23.23,0,0,1-.11.31c-.11.06-.46,0-.46,0S47.06,19.71,47.17,19.66Z" transform="translate(23.54 13.12)"/><path class="cls-27" d="M41.72,20.44a1.24,1.24,0,0,1,1.64.56,1.22,1.22,0,0,1-.56,1.63,5.27,5.27,0,0,1-2.37-.2S41.12,20.74,41.72,20.44Z" transform="translate(23.54 13.12)"/><path class="cls-28" d="M41.86,21a.66.66,0,0,1,.58,1.18,2.82,2.82,0,0,1-1.27-.11S41.54,21.14,41.86,21Z" transform="translate(23.54 13.12)"/><path class="cls-33" d="M42.06,21.54a.24.24,0,0,1,.32.11.25.25,0,0,1-.11.32c-.12.06-.46,0-.46,0S41.94,21.6,42.06,21.54Z" transform="translate(23.54 13.12)"/><path class="cls-27" d="M39.5,13.65a1.22,1.22,0,1,1,1.07,2.19,5.22,5.22,0,0,1-2.36-.2S38.89,14,39.5,13.65Z" transform="translate(23.54 13.12)"/><path class="cls-28" d="M39.63,14.19a.66.66,0,1,1,.58,1.18,2.82,2.82,0,0,1-1.27-.11S39.31,14.35,39.63,14.19Z" transform="translate(23.54 13.12)"/><path class="cls-32" d="M39.83,14.75a.24.24,0,0,1,.21.43c-.12.06-.46,0-.46,0S39.71,14.81,39.83,14.75Z" transform="translate(23.54 13.12)"/><path class="cls-27" d="M46.08,8.34a1.22,1.22,0,1,1,.11,2.43c-.67,0-2.08-1.12-2.08-1.12S45.41,8.37,46.08,8.34Z" transform="translate(23.54 13.12)"/><path class="cls-28" d="M46,8.88a.67.67,0,0,1,.69.63.66.66,0,0,1-.63.69c-.36,0-1.12-.61-1.12-.61S45.63,8.9,46,8.88Z" transform="translate(23.54 13.12)"/><path class="cls-32" d="M46,9.48a.24.24,0,0,1,.25.22A.23.23,0,0,1,46,10c-.13,0-.4-.22-.4-.22S45.82,9.48,46,9.48Z" transform="translate(23.54 13.12)"/><path class="cls-27" d="M40.8,6.74a1.22,1.22,0,1,1,.11,2.43c-.67,0-2.08-1.12-2.08-1.12S40.13,6.77,40.8,6.74Z" transform="translate(23.54 13.12)"/><path class="cls-28" d="M40.72,7.28a.66.66,0,0,1,.05,1.32c-.36,0-1.12-.61-1.12-.61S40.35,7.3,40.72,7.28Z" transform="translate(23.54 13.12)"/><path class="cls-32" d="M40.67,7.88a.24.24,0,0,1,.25.23.23.23,0,0,1-.23.24c-.13,0-.4-.22-.4-.22S40.54,7.88,40.67,7.88Z" transform="translate(23.54 13.12)"/><path class="cls-27" d="M37.77,10.75a1.22,1.22,0,1,1,.11,2.43c-.68,0-2.09-1.12-2.09-1.12S37.09,10.78,37.77,10.75Z" transform="translate(23.54 13.12)"/><path class="cls-28" d="M37.68,11.29a.66.66,0,0,1,.06,1.32c-.37,0-1.13-.61-1.13-.61S37.31,11.31,37.68,11.29Z" transform="translate(23.54 13.12)"/><path class="cls-32" d="M37.63,11.89a.24.24,0,1,1,0,.47c-.14,0-.41-.22-.41-.22S37.5,11.89,37.63,11.89Z" transform="translate(23.54 13.12)"/><path class="cls-27" d="M23.19,28.26A1.22,1.22,0,0,1,24.88,30c-.49.46-2.32.52-2.32.52S22.7,28.73,23.19,28.26Z" transform="translate(23.54 13.12)"/><path class="cls-28" d="M23.48,28.73a.66.66,0,0,1,.93,0,.64.64,0,0,1,0,.93c-.26.25-1.24.29-1.24.29S23.22,29,23.48,28.73Z" transform="translate(23.54 13.12)"/><path class="cls-31" d="M23.84,29.21a.24.24,0,0,1,.34,0,.23.23,0,0,1,0,.33c-.09.09-.45.11-.45.11A1.11,1.11,0,0,1,23.84,29.21Z" transform="translate(23.54 13.12)"/><path class="cls-27" d="M17.58,28.08a1.22,1.22,0,0,1,1.69,1.76c-.49.47-2.32.53-2.32.53S17.09,28.54,17.58,28.08Z" transform="translate(23.54 13.12)"/><path class="cls-28" d="M17.87,28.55a.66.66,0,1,1,.91.95c-.26.25-1.24.28-1.24.28S17.61,28.8,17.87,28.55Z" transform="translate(23.54 13.12)"/><path class="cls-31" d="M18.23,29a.25.25,0,0,1,.34,0,.24.24,0,0,1,0,.34c-.09.09-.45.1-.45.1A1.15,1.15,0,0,1,18.23,29Z" transform="translate(23.54 13.12)"/><path class="cls-27" d="M19.57,23.25A1.22,1.22,0,1,1,21.25,25c-.48.47-2.31.53-2.31.53S19.08,23.71,19.57,23.25Z" transform="translate(23.54 13.12)"/><path class="cls-28" d="M19.86,23.72a.66.66,0,1,1,.91,1c-.26.25-1.25.28-1.25.28S19.6,24,19.86,23.72Z" transform="translate(23.54 13.12)"/><path class="cls-31" d="M20.22,24.19a.24.24,0,0,1,.33,0,.24.24,0,0,1,0,.34,1,1,0,0,1-.45.1S20.12,24.29,20.22,24.19Z" transform="translate(23.54 13.12)"/><path class="cls-27" d="M30.57,25a1.22,1.22,0,0,1,1.69,1.77A5.36,5.36,0,0,1,30,27.3S30.09,25.48,30.57,25Z" transform="translate(23.54 13.12)"/><path class="cls-28" d="M30.87,25.48a.66.66,0,1,1,.91.95c-.26.25-1.25.29-1.25.29S30.61,25.73,30.87,25.48Z" transform="translate(23.54 13.12)"/><path class="cls-32" d="M31.23,26a.23.23,0,0,1,.33,0,.24.24,0,0,1,0,.33,1.09,1.09,0,0,1-.45.11S31.13,26.05,31.23,26Z" transform="translate(23.54 13.12)"/><path class="cls-27" d="M26.24,25.3a1.22,1.22,0,1,1,1.68,1.76c-.48.46-2.31.52-2.31.52S25.75,25.76,26.24,25.3Z" transform="translate(23.54 13.12)"/><path class="cls-28" d="M26.53,25.77a.64.64,0,0,1,.93,0,.66.66,0,0,1,0,.93c-.26.25-1.25.28-1.25.28S26.27,26,26.53,25.77Z" transform="translate(23.54 13.12)"/><path class="cls-31" d="M26.89,26.24a.24.24,0,0,1,.34,0,.25.25,0,0,1,0,.34,1,1,0,0,1-.45.1A1.11,1.11,0,0,1,26.89,26.24Z" transform="translate(23.54 13.12)"/><path class="cls-27" d="M34.55,15.28A1.22,1.22,0,1,1,36.24,17c-.49.47-2.31.53-2.31.53S34.07,15.75,34.55,15.28Z" transform="translate(23.54 13.12)"/><path class="cls-28" d="M34.85,15.75a.66.66,0,1,1,.91.95,2.89,2.89,0,0,1-1.25.28S34.58,16,34.85,15.75Z" transform="translate(23.54 13.12)"/><path class="cls-32" d="M35.2,16.23a.25.25,0,0,1,.34,0,.24.24,0,0,1,0,.34c-.09.09-.45.1-.45.1A1.07,1.07,0,0,1,35.2,16.23Z" transform="translate(23.54 13.12)"/><path class="cls-27" d="M30.12,16.42a1.23,1.23,0,0,1,1.73,0,1.22,1.22,0,0,1,0,1.72c-.49.47-2.31.53-2.31.53S29.64,16.89,30.12,16.42Z" transform="translate(23.54 13.12)"/><path class="cls-28" d="M30.42,16.89a.66.66,0,1,1,.91.95,2.89,2.89,0,0,1-1.25.28S30.15,17.14,30.42,16.89Z" transform="translate(23.54 13.12)"/><path class="cls-31" d="M30.78,17.37a.24.24,0,0,1,.33,0,.24.24,0,0,1,0,.34c-.09.09-.45.1-.45.1S30.68,17.46,30.78,17.37Z" transform="translate(23.54 13.12)"/><path class="cls-27" d="M26.3,15.12A1.22,1.22,0,0,1,28,16.89a5.36,5.36,0,0,1-2.31.52S25.81,15.59,26.3,15.12Z" transform="translate(23.54 13.12)"/><path class="cls-28" d="M26.59,15.59a.66.66,0,0,1,.93,0,.64.64,0,0,1,0,.93c-.26.25-1.24.29-1.24.29S26.33,15.84,26.59,15.59Z" transform="translate(23.54 13.12)"/><path class="cls-31" d="M27,16.07a.24.24,0,0,1,.34,0,.23.23,0,0,1,0,.33c-.09.09-.45.11-.45.11A1.11,1.11,0,0,1,27,16.07Z" transform="translate(23.54 13.12)"/><path class="cls-27" d="M35.28,7.52a1.22,1.22,0,0,1,1.72,0,1.23,1.23,0,0,1,0,1.73c-.49.47-2.32.52-2.32.52S34.79,8,35.28,7.52Z" transform="translate(23.54 13.12)"/><path class="cls-28" d="M35.57,8a.65.65,0,0,1,.93,0,.66.66,0,0,1,0,.93c-.26.25-1.24.28-1.24.28S35.31,8.24,35.57,8Z" transform="translate(23.54 13.12)"/><path class="cls-32" d="M35.93,8.46a.25.25,0,0,1,.34,0,.24.24,0,0,1,0,.34c-.09.09-.45.1-.45.1A1.11,1.11,0,0,1,35.93,8.46Z" transform="translate(23.54 13.12)"/><path class="cls-27" d="M31,8.18a1.23,1.23,0,0,1,1.73,0,1.22,1.22,0,0,1,0,1.72c-.49.47-2.31.53-2.31.53S30.54,8.65,31,8.18Z" transform="translate(23.54 13.12)"/><path class="cls-28" d="M31.32,8.65a.66.66,0,1,1,.91.95A2.89,2.89,0,0,1,31,9.88S31.05,8.9,31.32,8.65Z" transform="translate(23.54 13.12)"/><path class="cls-31" d="M31.68,9.13a.23.23,0,1,1,.32.34c-.09.09-.45.1-.45.1S31.58,9.22,31.68,9.13Z" transform="translate(23.54 13.12)"/><path class="cls-27" d="M31.43,11.61a1.22,1.22,0,1,1,1.68,1.76c-.48.47-2.31.52-2.31.52S30.94,12.07,31.43,11.61Z" transform="translate(23.54 13.12)"/><path class="cls-28" d="M31.72,12.08a.65.65,0,0,1,.93,0,.66.66,0,0,1,0,.93c-.26.25-1.25.28-1.25.28S31.46,12.33,31.72,12.08Z" transform="translate(23.54 13.12)"/><path class="cls-31" d="M32.08,12.55a.24.24,0,0,1,.33.35A1,1,0,0,1,32,13,1.11,1.11,0,0,1,32.08,12.55Z" transform="translate(23.54 13.12)"/><path class="cls-27" d="M25.86,20a1.22,1.22,0,1,1,1.69,1.77,5.36,5.36,0,0,1-2.31.52S25.37,20.51,25.86,20Z" transform="translate(23.54 13.12)"/><path class="cls-28" d="M26.16,20.51a.66.66,0,0,1,.93,0,.65.65,0,0,1,0,.93c-.26.25-1.24.29-1.24.29S25.89,20.76,26.16,20.51Z" transform="translate(23.54 13.12)"/><path class="cls-31" d="M26.51,21a.24.24,0,0,1,.34,0,.23.23,0,0,1,0,.33c-.09.09-.45.11-.45.11A1.11,1.11,0,0,1,26.51,21Z" transform="translate(23.54 13.12)"/><path class="cls-27" d="M22.67,23.48a1.22,1.22,0,1,1,1.69,1.76c-.49.47-2.31.53-2.31.53S22.19,24,22.67,23.48Z" transform="translate(23.54 13.12)"/><path class="cls-28" d="M23,24a.66.66,0,1,1,.91.95,2.89,2.89,0,0,1-1.25.28S22.7,24.2,23,24Z" transform="translate(23.54 13.12)"/><path class="cls-31" d="M23.33,24.43a.23.23,0,0,1,.33,0,.24.24,0,0,1,0,.34c-.09.09-.45.1-.45.1S23.23,24.52,23.33,24.43Z" transform="translate(23.54 13.12)"/><path class="cls-27" d="M14.39,21a1.22,1.22,0,0,1,1.68,1.77c-.48.46-2.31.52-2.31.52S13.9,21.42,14.39,21Z" transform="translate(23.54 13.12)"/><path class="cls-28" d="M14.68,21.42a.66.66,0,1,1,.91.95c-.26.26-1.25.29-1.25.29A3,3,0,0,1,14.68,21.42Z" transform="translate(23.54 13.12)"/><path class="cls-31" d="M15,21.9a.24.24,0,0,1,.33.34c-.1.1-.45.11-.45.11S14.94,22,15,21.9Z" transform="translate(23.54 13.12)"/><path class="cls-27" d="M20.93,19.21A1.22,1.22,0,1,1,22.62,21c-.49.47-2.31.52-2.31.52S20.44,19.67,20.93,19.21Z" transform="translate(23.54 13.12)"/><path class="cls-28" d="M21.22,19.68a.65.65,0,0,1,.93,0,.64.64,0,0,1,0,.93c-.26.25-1.24.28-1.24.28S21,19.93,21.22,19.68Z" transform="translate(23.54 13.12)"/><path class="cls-31" d="M21.58,20.15a.25.25,0,0,1,.34,0,.24.24,0,0,1,0,.34c-.09.09-.45.1-.45.1A1.11,1.11,0,0,1,21.58,20.15Z" transform="translate(23.54 13.12)"/><path class="cls-27" d="M25.6,10.85a1.22,1.22,0,1,1,2,1.39c-.39.56-2.16,1-2.16,1S25.21,11.4,25.6,10.85Z" transform="translate(23.54 13.12)"/><path class="cls-28" d="M26,11.25a.65.65,0,0,1,.91-.16.66.66,0,0,1,.17.91c-.21.3-1.17.53-1.17.53A2.85,2.85,0,0,1,26,11.25Z" transform="translate(23.54 13.12)"/><path class="cls-31" d="M26.42,11.65a.24.24,0,0,1,.34-.06.24.24,0,0,1,0,.33c-.07.11-.42.19-.42.19A1.1,1.1,0,0,1,26.42,11.65Z" transform="translate(23.54 13.12)"/><path class="cls-27" d="M30.88,48.44a1.22,1.22,0,0,1,1,2.23,5.37,5.37,0,0,1-2.36-.29S30.27,48.72,30.88,48.44Z" transform="translate(23.54 13.12)"/><path class="cls-28" d="M31,49a.66.66,0,0,1,.87.34.64.64,0,0,1-.33.86A2.82,2.82,0,0,1,30.27,50S30.67,49.13,31,49Z" transform="translate(23.54 13.12)"/><path class="cls-33" d="M31.18,49.55a.23.23,0,0,1,.31.12.24.24,0,0,1-.12.32,1.08,1.08,0,0,1-.46-.06S31.06,49.61,31.18,49.55Z" transform="translate(23.54 13.12)"/><path class="cls-27" d="M25.23,48.19a1.22,1.22,0,1,1,1,2.23,5.34,5.34,0,0,1-2.35-.29S24.61,48.46,25.23,48.19Z" transform="translate(23.54 13.12)"/><path class="cls-28" d="M25.35,48.73a.66.66,0,0,1,.87.33.67.67,0,0,1-.34.87c-.33.15-1.27-.15-1.27-.15S25,48.88,25.35,48.73Z" transform="translate(23.54 13.12)"/><path class="cls-32" d="M25.52,49.3a.25.25,0,0,1,.32.12.23.23,0,0,1-.12.31c-.12.06-.46,0-.46,0S25.4,49.35,25.52,49.3Z" transform="translate(23.54 13.12)"/><path class="cls-27" d="M39.45,52.86a1.23,1.23,0,0,1,1.61.62,1.21,1.21,0,0,1-.61,1.61c-.62.28-2.36-.28-2.36-.28S38.84,53.14,39.45,52.86Z" transform="translate(23.54 13.12)"/><path class="cls-28" d="M39.57,53.41a.66.66,0,0,1,.54,1.2c-.34.15-1.27-.16-1.27-.16S39.24,53.55,39.57,53.41Z" transform="translate(23.54 13.12)"/><path class="cls-34" d="M39.75,54a.24.24,0,1,1,.19.43,1.08,1.08,0,0,1-.46-.06S39.63,54,39.75,54Z" transform="translate(23.54 13.12)"/><path class="cls-27" d="M35.49,53.9a1.22,1.22,0,0,1,1,2.23,5.37,5.37,0,0,1-2.36-.29S34.88,54.18,35.49,53.9Z" transform="translate(23.54 13.12)"/><path class="cls-28" d="M35.61,54.44a.66.66,0,0,1,.87.34.64.64,0,0,1-.33.86,2.82,2.82,0,0,1-1.27-.15S35.28,54.59,35.61,54.44Z" transform="translate(23.54 13.12)"/><path class="cls-33" d="M35.79,55a.23.23,0,0,1,.31.12.24.24,0,0,1-.12.32,1.08,1.08,0,0,1-.46-.06S35.67,55.07,35.79,55Z" transform="translate(23.54 13.12)"/><path class="cls-27" d="M47.66,49.38a1.23,1.23,0,0,1,1.61.62,1.21,1.21,0,0,1-.62,1.61c-.61.28-2.35-.28-2.35-.28S47,49.66,47.66,49.38Z" transform="translate(23.54 13.12)"/><path class="cls-28" d="M47.78,49.92a.67.67,0,0,1,.87.34.66.66,0,0,1-.34.87A3,3,0,0,1,47,51S47.45,50.07,47.78,49.92Z" transform="translate(23.54 13.12)"/><path class="cls-34" d="M48,50.49a.25.25,0,0,1,.32.13.23.23,0,0,1-.12.31,1.08,1.08,0,0,1-.46-.06S47.83,50.55,48,50.49Z" transform="translate(23.54 13.12)"/><path class="cls-27" d="M43.43,52a1.22,1.22,0,1,1,1,2.23A5.32,5.32,0,0,1,42.07,54S42.81,52.31,43.43,52Z" transform="translate(23.54 13.12)"/><path class="cls-28" d="M43.54,52.58a.66.66,0,0,1,.54,1.2c-.33.15-1.27-.15-1.27-.15S43.21,52.73,43.54,52.58Z" transform="translate(23.54 13.12)"/><path class="cls-34" d="M43.72,53.15a.24.24,0,0,1,.2.44,1.08,1.08,0,0,1-.46-.06S43.6,53.2,43.72,53.15Z" transform="translate(23.54 13.12)"/><path class="cls-27" d="M52.19,47.8a1.22,1.22,0,1,1,1,2.23,5.34,5.34,0,0,1-2.35-.29S51.57,48.07,52.19,47.8Z" transform="translate(23.54 13.12)"/><path class="cls-28" d="M52.31,48.34a.64.64,0,0,1,.86.33.66.66,0,0,1-.33.87c-.33.15-1.27-.15-1.27-.15S52,48.49,52.31,48.34Z" transform="translate(23.54 13.12)"/><path class="cls-34" d="M52.48,48.91a.25.25,0,0,1,.32.12.23.23,0,0,1-.12.31c-.12.06-.46-.05-.46-.05S52.36,49,52.48,48.91Z" transform="translate(23.54 13.12)"/><path class="cls-27" d="M41.79,48.79a1.22,1.22,0,0,1,1,2.23,5.37,5.37,0,0,1-2.36-.29S41.18,49.06,41.79,48.79Z" transform="translate(23.54 13.12)"/><path class="cls-28" d="M41.91,49.33a.66.66,0,1,1,.54,1.2,2.82,2.82,0,0,1-1.27-.15S41.58,49.48,41.91,49.33Z" transform="translate(23.54 13.12)"/><path class="cls-34" d="M42.09,49.9a.23.23,0,0,1,.31.12.23.23,0,0,1-.12.31c-.12.06-.46,0-.46,0S42,50,42.09,49.9Z" transform="translate(23.54 13.12)"/><path class="cls-27" d="M56.29,43.84a1.22,1.22,0,0,1,1.79,1.66c-.46.5-2.27.67-2.27.67A5.43,5.43,0,0,1,56.29,43.84Z" transform="translate(23.54 13.12)"/><path class="cls-28" d="M56.61,44.3a.66.66,0,0,1,1,.89c-.25.27-1.23.36-1.23.36S56.37,44.56,56.61,44.3Z" transform="translate(23.54 13.12)"/><path class="cls-34" d="M57,44.75a.24.24,0,0,1,.34,0,.24.24,0,0,1,0,.33c-.09.1-.44.13-.44.13S56.91,44.85,57,44.75Z" transform="translate(23.54 13.12)"/><path class="cls-27" d="M51.79,44.5a1.22,1.22,0,1,1,1.79,1.65c-.46.5-2.27.67-2.27.67S51.34,45,51.79,44.5Z" transform="translate(23.54 13.12)"/><path class="cls-28" d="M52.11,45a.66.66,0,0,1,1,.89c-.25.27-1.23.36-1.23.36S51.87,45.21,52.11,45Z" transform="translate(23.54 13.12)"/><path class="cls-34" d="M52.5,45.4a.24.24,0,0,1,.34,0,.24.24,0,0,1,0,.33c-.09.1-.44.13-.44.13S52.41,45.5,52.5,45.4Z" transform="translate(23.54 13.12)"/><path class="cls-27" d="M62.8,31.57a1.22,1.22,0,0,1,2.38.53c-.15.66-1.63,1.72-1.63,1.72S62.65,32.23,62.8,31.57Z" transform="translate(23.54 13.12)"/><path class="cls-28" d="M63.3,31.8a.66.66,0,1,1,1.29.29c-.08.35-.88.92-.88.92S63.22,32.16,63.3,31.8Z" transform="translate(23.54 13.12)"/><path class="cls-34" d="M63.87,32a.24.24,0,0,1,.46.1c0,.13-.32.34-.32.34S63.84,32.13,63.87,32Z" transform="translate(23.54 13.12)"/><path class="cls-27" d="M59.17,32.33a1.22,1.22,0,0,1,2.38.53c-.15.66-1.63,1.72-1.63,1.72S59,33,59.17,32.33Z" transform="translate(23.54 13.12)"/><path class="cls-28" d="M59.67,32.56a.66.66,0,0,1,.79-.5.67.67,0,0,1,.5.79c-.08.35-.88.92-.88.92S59.59,32.92,59.67,32.56Z" transform="translate(23.54 13.12)"/><path class="cls-34" d="M60.23,32.76a.24.24,0,0,1,.29-.18.23.23,0,0,1,.18.28c0,.13-.32.34-.32.34A1.15,1.15,0,0,1,60.23,32.76Z" transform="translate(23.54 13.12)"/><path class="cls-27" d="M60.64,29.07a1.2,1.2,0,0,1,1.45-.92A1.22,1.22,0,0,1,63,29.6c-.15.66-1.63,1.72-1.63,1.72S60.49,29.73,60.64,29.07Z" transform="translate(23.54 13.12)"/><path class="cls-28" d="M61.14,29.3a.66.66,0,0,1,.79-.5.67.67,0,0,1,.5.79c-.08.35-.88.92-.88.92S61.06,29.65,61.14,29.3Z" transform="translate(23.54 13.12)"/><path class="cls-34" d="M61.7,29.5a.24.24,0,0,1,.29-.18.23.23,0,0,1,.18.28c0,.13-.32.34-.32.34A1.15,1.15,0,0,1,61.7,29.5Z" transform="translate(23.54 13.12)"/><path class="cls-27" d="M32,40.46a1.22,1.22,0,0,1,1,2.23,5.34,5.34,0,0,1-2.35-.29S31.4,40.73,32,40.46Z" transform="translate(23.54 13.12)"/><path class="cls-28" d="M32.14,41a.64.64,0,0,1,.86.33.66.66,0,0,1-.33.87c-.33.15-1.27-.15-1.27-.15S31.8,41.15,32.14,41Z" transform="translate(23.54 13.12)"/><path class="cls-33" d="M32.31,41.57a.24.24,0,0,1,.2.44,1.08,1.08,0,0,1-.46-.06S32.19,41.62,32.31,41.57Z" transform="translate(23.54 13.12)"/><path class="cls-27" d="M26.26,41.73a1.22,1.22,0,1,1,1,2.23,5.32,5.32,0,0,1-2.35-.29S25.64,42,26.26,41.73Z" transform="translate(23.54 13.12)"/><path class="cls-28" d="M26.37,42.27a.66.66,0,0,1,.54,1.2c-.33.15-1.27-.15-1.27-.15S26,42.42,26.37,42.27Z" transform="translate(23.54 13.12)"/><path class="cls-32" d="M26.55,42.84a.25.25,0,0,1,.32.12.25.25,0,0,1-.13.32,1,1,0,0,1-.45-.06S26.43,42.89,26.55,42.84Z" transform="translate(23.54 13.12)"/><path class="cls-27" d="M30.28,36.55a1.22,1.22,0,0,1,1,2.23c-.61.28-2.35-.28-2.35-.28S29.66,36.83,30.28,36.55Z" transform="translate(23.54 13.12)"/><path class="cls-28" d="M30.4,37.1a.66.66,0,0,1,.87.33.67.67,0,0,1-.34.87c-.33.15-1.27-.16-1.27-.16S30.07,37.24,30.4,37.1Z" transform="translate(23.54 13.12)"/><path class="cls-33" d="M30.57,37.67a.24.24,0,0,1,.32.12.23.23,0,0,1-.12.31,1.08,1.08,0,0,1-.46-.06S30.45,37.72,30.57,37.67Z" transform="translate(23.54 13.12)"/><path class="cls-27" d="M31.68,33.42a1.22,1.22,0,1,1,1,2.22c-.62.28-2.36-.28-2.36-.28S31.07,33.69,31.68,33.42Z" transform="translate(23.54 13.12)"/><path class="cls-28" d="M31.8,34a.66.66,0,1,1,.54,1.2c-.33.15-1.27-.16-1.27-.16S31.47,34.1,31.8,34Z" transform="translate(23.54 13.12)"/><path class="cls-33" d="M32,34.53a.24.24,0,1,1,.19.43c-.12.06-.46-.05-.46-.05S31.86,34.58,32,34.53Z" transform="translate(23.54 13.12)"/><path class="cls-27" d="M30.83,21a1.23,1.23,0,0,1,1.61.62,1.21,1.21,0,0,1-.62,1.61c-.61.28-2.35-.28-2.35-.28S30.22,21.32,30.83,21Z" transform="translate(23.54 13.12)"/><path class="cls-28" d="M31,21.59a.66.66,0,1,1,.53,1.2,2.92,2.92,0,0,1-1.26-.16S30.62,21.73,31,21.59Z" transform="translate(23.54 13.12)"/><path class="cls-32" d="M31.13,22.16a.23.23,0,0,1,.31.12.23.23,0,0,1-.12.31,1.08,1.08,0,0,1-.46-.06S31,22.21,31.13,22.16Z" transform="translate(23.54 13.12)"/><path class="cls-27" d="M26.45,31.83a1.21,1.21,0,0,1,1.61.62,1.23,1.23,0,0,1-.62,1.61,5.37,5.37,0,0,1-2.36-.29S25.83,32.1,26.45,31.83Z" transform="translate(23.54 13.12)"/><path class="cls-28" d="M26.56,32.37a.66.66,0,1,1,.54,1.2c-.33.15-1.27-.15-1.27-.15S26.23,32.52,26.56,32.37Z" transform="translate(23.54 13.12)"/><path class="cls-32" d="M26.74,32.94a.23.23,0,0,1,.31.12.23.23,0,0,1-.12.31c-.12.06-.46,0-.46,0S26.62,33,26.74,32.94Z" transform="translate(23.54 13.12)"/><path class="cls-27" d="M21.88,32.37a1.22,1.22,0,0,1,1,2.23,5.32,5.32,0,0,1-2.35-.29S21.26,32.64,21.88,32.37Z" transform="translate(23.54 13.12)"/><path class="cls-28" d="M22,32.91a.66.66,0,1,1,.54,1.2c-.33.15-1.27-.15-1.27-.15S21.66,33.06,22,32.91Z" transform="translate(23.54 13.12)"/><path class="cls-31" d="M22.17,33.48a.23.23,0,0,1,.31.12.24.24,0,0,1-.12.32,1,1,0,0,1-.45-.06S22.05,33.53,22.17,33.48Z" transform="translate(23.54 13.12)"/><path class="cls-27" d="M39.07,45.51a1.22,1.22,0,1,1,1,2.22c-.62.28-2.35-.28-2.35-.28S38.45,45.78,39.07,45.51Z" transform="translate(23.54 13.12)"/><path class="cls-28" d="M39.19,46.05a.64.64,0,0,1,.86.33.66.66,0,0,1-.33.87c-.33.15-1.27-.16-1.27-.16S38.85,46.19,39.19,46.05Z" transform="translate(23.54 13.12)"/><path class="cls-34" d="M39.36,46.62a.24.24,0,0,1,.32.12.23.23,0,0,1-.12.31,1.11,1.11,0,0,1-.46,0S39.24,46.67,39.36,46.62Z" transform="translate(23.54 13.12)"/><path class="cls-27" d="M36.11,49a1.22,1.22,0,1,1,1,2.23A5.32,5.32,0,0,1,34.75,51S35.49,49.31,36.11,49Z" transform="translate(23.54 13.12)"/><path class="cls-28" d="M36.22,49.58a.66.66,0,0,1,.54,1.2c-.33.15-1.27-.15-1.27-.15S35.89,49.73,36.22,49.58Z" transform="translate(23.54 13.12)"/><path class="cls-33" d="M36.4,50.15a.24.24,0,0,1,.2.44,1.08,1.08,0,0,1-.46-.06S36.28,50.21,36.4,50.15Z" transform="translate(23.54 13.12)"/><path class="cls-27" d="M32.6,51.6a1.23,1.23,0,0,1,1.61.62,1.21,1.21,0,0,1-.61,1.61c-.62.28-2.36-.29-2.36-.29S32,51.88,32.6,51.6Z" transform="translate(23.54 13.12)"/><path class="cls-28" d="M32.72,52.14a.67.67,0,0,1,.87.34.66.66,0,0,1-.33.87A2.94,2.94,0,0,1,32,53.19S32.39,52.29,32.72,52.14Z" transform="translate(23.54 13.12)"/><path class="cls-33" d="M32.9,52.71a.23.23,0,0,1,.31.12.24.24,0,0,1-.12.32,1.08,1.08,0,0,1-.46-.06S32.78,52.77,32.9,52.71Z" transform="translate(23.54 13.12)"/><path class="cls-27" d="M30.64,44.51a1.22,1.22,0,1,1,1,2.23,5.37,5.37,0,0,1-2.36-.29S30,44.78,30.64,44.51Z" transform="translate(23.54 13.12)"/><path class="cls-28" d="M30.76,45.05a.66.66,0,0,1,.87.34.64.64,0,0,1-.33.86C31,46.4,30,46.1,30,46.1S30.43,45.2,30.76,45.05Z" transform="translate(23.54 13.12)"/><path class="cls-33" d="M30.94,45.62a.23.23,0,0,1,.31.12.24.24,0,0,1-.12.32,1.08,1.08,0,0,1-.46-.06S30.82,45.68,30.94,45.62Z" transform="translate(23.54 13.12)"/><path class="cls-27" d="M48.59,42.37A1.23,1.23,0,0,1,50.2,43a1.21,1.21,0,0,1-.62,1.61c-.61.28-2.35-.28-2.35-.28S48,42.65,48.59,42.37Z" transform="translate(23.54 13.12)"/><path class="cls-28" d="M48.71,42.92a.66.66,0,1,1,.53,1.2C48.91,44.27,48,44,48,44S48.38,43.06,48.71,42.92Z" transform="translate(23.54 13.12)"/><path class="cls-34" d="M48.89,43.49a.23.23,0,0,1,.31.12.23.23,0,0,1-.12.31,1.08,1.08,0,0,1-.46-.06S48.77,43.54,48.89,43.49Z" transform="translate(23.54 13.12)"/><path class="cls-27" d="M45.64,45.62a1.22,1.22,0,1,1,1,2.23,5.34,5.34,0,0,1-2.35-.29S45,45.89,45.64,45.62Z" transform="translate(23.54 13.12)"/><path class="cls-28" d="M45.76,46.16a.66.66,0,1,1,.53,1.2c-.33.15-1.27-.15-1.27-.15S45.43,46.31,45.76,46.16Z" transform="translate(23.54 13.12)"/><path class="cls-34" d="M45.94,46.73a.23.23,0,0,1,.31.12.25.25,0,0,1-.12.32,1.08,1.08,0,0,1-.46-.06S45.82,46.78,45.94,46.73Z" transform="translate(23.54 13.12)"/><path class="cls-27" d="M44.27,42.38a1.22,1.22,0,0,1,1,2.23,5.37,5.37,0,0,1-2.36-.29S43.66,42.65,44.27,42.38Z" transform="translate(23.54 13.12)"/><path class="cls-28" d="M44.39,42.92a.66.66,0,0,1,.54,1.2A2.82,2.82,0,0,1,43.66,44S44.06,43.07,44.39,42.92Z" transform="translate(23.54 13.12)"/><path class="cls-34" d="M44.57,43.49a.23.23,0,0,1,.31.12.23.23,0,0,1-.12.31c-.12.06-.46-.05-.46-.05S44.45,43.54,44.57,43.49Z" transform="translate(23.54 13.12)"/><path class="cls-27" d="M51,33a1.22,1.22,0,0,1,1,2.23,5.37,5.37,0,0,1-2.36-.29S50.36,33.26,51,33Z" transform="translate(23.54 13.12)"/><path class="cls-28" d="M51.09,33.52a.66.66,0,0,1,.87.34.64.64,0,0,1-.33.86,2.82,2.82,0,0,1-1.27-.15S50.76,33.67,51.09,33.52Z" transform="translate(23.54 13.12)"/><path class="cls-34" d="M51.27,34.09a.23.23,0,0,1,.31.12.24.24,0,0,1-.12.32,1.08,1.08,0,0,1-.46-.06S51.15,34.15,51.27,34.09Z" transform="translate(23.54 13.12)"/><path class="cls-27" d="M47.32,30.36a1.22,1.22,0,0,1,1,2.23A5.34,5.34,0,0,1,46,32.3S46.7,30.63,47.32,30.36Z" transform="translate(23.54 13.12)"/><path class="cls-28" d="M47.44,30.9a.64.64,0,0,1,.86.33.66.66,0,0,1-.33.87c-.33.15-1.27-.15-1.27-.15S47.1,31.05,47.44,30.9Z" transform="translate(23.54 13.12)"/><path class="cls-34" d="M47.61,31.47a.24.24,0,0,1,.2.44,1.08,1.08,0,0,1-.46-.06S47.49,31.52,47.61,31.47Z" transform="translate(23.54 13.12)"/><path class="cls-27" d="M45.08,27.45a1.22,1.22,0,0,1,1,2.23,5.34,5.34,0,0,1-2.35-.29S44.46,27.72,45.08,27.45Z" transform="translate(23.54 13.12)"/><path class="cls-28" d="M45.2,28a.64.64,0,0,1,.86.33.66.66,0,0,1-.33.87c-.33.15-1.27-.15-1.27-.15S44.86,28.14,45.2,28Z" transform="translate(23.54 13.12)"/><path class="cls-34" d="M45.37,28.56a.24.24,0,0,1,.2.44,1.08,1.08,0,0,1-.46-.06S45.25,28.61,45.37,28.56Z" transform="translate(23.54 13.12)"/><path class="cls-27" d="M40.28,32.06a1.22,1.22,0,1,1,1,2.22c-.62.28-2.36-.28-2.36-.28S39.67,32.33,40.28,32.06Z" transform="translate(23.54 13.12)"/><path class="cls-28" d="M40.4,32.6a.66.66,0,1,1,.54,1.2c-.34.15-1.27-.16-1.27-.16S40.07,32.75,40.4,32.6Z" transform="translate(23.54 13.12)"/><path class="cls-33" d="M40.58,33.17a.24.24,0,1,1,.19.43c-.12.06-.46-.05-.46-.05S40.46,33.22,40.58,33.17Z" transform="translate(23.54 13.12)"/><path class="cls-27" d="M47.5,36.83a1.22,1.22,0,1,1,1,2.23,5.34,5.34,0,0,1-2.35-.29S46.89,37.1,47.5,36.83Z" transform="translate(23.54 13.12)"/><path class="cls-28" d="M47.62,37.37a.66.66,0,0,1,.87.33.65.65,0,0,1-.34.87c-.33.15-1.26-.15-1.26-.15S47.29,37.52,47.62,37.37Z" transform="translate(23.54 13.12)"/><path class="cls-34" d="M47.8,37.94a.23.23,0,0,1,.31.12.25.25,0,0,1-.12.32,1.08,1.08,0,0,1-.46-.06S47.68,38,47.8,37.94Z" transform="translate(23.54 13.12)"/><path class="cls-27" d="M52.61,38.86a1.22,1.22,0,1,1,1,2.23,5.34,5.34,0,0,1-2.35-.29S52,39.13,52.61,38.86Z" transform="translate(23.54 13.12)"/><path class="cls-28" d="M52.73,39.4a.66.66,0,0,1,.87.33.65.65,0,0,1-.34.87c-.33.15-1.26-.15-1.26-.15S52.4,39.55,52.73,39.4Z" transform="translate(23.54 13.12)"/><path class="cls-34" d="M52.91,40a.23.23,0,0,1,.31.12.25.25,0,0,1-.12.32,1.08,1.08,0,0,1-.46-.06S52.79,40,52.91,40Z" transform="translate(23.54 13.12)"/><path class="cls-27" d="M45,33.25a1.22,1.22,0,1,1,1,2.23,5.34,5.34,0,0,1-2.35-.29S44.38,33.53,45,33.25Z" transform="translate(23.54 13.12)"/><path class="cls-28" d="M45.11,33.79a.66.66,0,0,1,.87.34.64.64,0,0,1-.34.86c-.33.15-1.26-.15-1.26-.15S44.78,33.94,45.11,33.79Z" transform="translate(23.54 13.12)"/><path class="cls-34" d="M45.29,34.36a.23.23,0,0,1,.31.12.25.25,0,0,1-.12.32,1.08,1.08,0,0,1-.46-.06S45.17,34.42,45.29,34.36Z" transform="translate(23.54 13.12)"/><path class="cls-27" d="M57.2,36.79a1.21,1.21,0,0,1,1.72-.15,1.2,1.2,0,0,1,.15,1.71c-.43.52-2.24.78-2.24.78S56.77,37.3,57.2,36.79Z" transform="translate(23.54 13.12)"/><path class="cls-28" d="M57.55,37.22a.66.66,0,1,1,1,.85c-.23.27-1.2.41-1.2.41S57.31,37.5,57.55,37.22Z" transform="translate(23.54 13.12)"/><path class="cls-34" d="M58,37.66a.22.22,0,0,1,.33,0,.24.24,0,0,1,0,.33c-.08.1-.44.15-.44.15S57.87,37.76,58,37.66Z" transform="translate(23.54 13.12)"/><path class="cls-27" d="M60.33,39.47a1.21,1.21,0,0,1,1.72-.15A1.2,1.2,0,0,1,62.2,41c-.43.52-2.24.78-2.24.78S59.9,40,60.33,39.47Z" transform="translate(23.54 13.12)"/><path class="cls-28" d="M60.68,39.9a.65.65,0,0,1,.92-.08.66.66,0,0,1,.09.93c-.24.28-1.21.41-1.21.41S60.44,40.18,60.68,39.9Z" transform="translate(23.54 13.12)"/><path class="cls-34" d="M61.09,40.34a.23.23,0,0,1,.36.3c-.08.1-.44.15-.44.15S61,40.44,61.09,40.34Z" transform="translate(23.54 13.12)"/><path class="cls-27" d="M54.05,34.48a1.22,1.22,0,1,1,1.87,1.57c-.44.51-2.25.77-2.25.77S53.61,35,54.05,34.48Z" transform="translate(23.54 13.12)"/><path class="cls-28" d="M54.39,34.91a.67.67,0,0,1,.93-.08.66.66,0,0,1,.08.93c-.24.28-1.21.42-1.21.42A2.94,2.94,0,0,1,54.39,34.91Z" transform="translate(23.54 13.12)"/><path class="cls-34" d="M54.8,35.35a.23.23,0,0,1,.33,0,.22.22,0,0,1,0,.33c-.08.11-.43.16-.43.16A1.1,1.1,0,0,1,54.8,35.35Z" transform="translate(23.54 13.12)"/><path class="cls-27" d="M29.39,54.6a1.21,1.21,0,0,1,1.63.49,1.2,1.2,0,0,1-.72,1.53,5.85,5.85,0,0,1-2.42-.13S28.74,54.89,29.39,54.6Z" transform="translate(23.54 13.12)"/><path class="cls-28" d="M29.49,55.1a.64.64,0,0,1,.87.26.65.65,0,0,1-.39.83,3.08,3.08,0,0,1-1.3-.07S29.13,55.25,29.49,55.1Z" transform="translate(23.54 13.12)"/><path class="cls-32" d="M29.64,55.62a.22.22,0,0,1,.31.1.24.24,0,0,1-.14.3,1.25,1.25,0,0,1-.47,0S29.51,55.68,29.64,55.62Z" transform="translate(23.54 13.12)"/><path class="cls-27" d="M22.21,45.36a1.22,1.22,0,0,1,1.15,2.15A5.25,5.25,0,0,1,21,47.39S21.61,45.67,22.21,45.36Z" transform="translate(23.54 13.12)"/><path class="cls-28" d="M22.37,45.89A.66.66,0,1,1,23,47.05,2.82,2.82,0,0,1,21.71,47S22,46.06,22.37,45.89Z" transform="translate(23.54 13.12)"/><path class="cls-32" d="M22.58,46.44a.24.24,0,0,1,.32.1.23.23,0,0,1-.09.32,1.11,1.11,0,0,1-.47,0S22.47,46.5,22.58,46.44Z" transform="translate(23.54 13.12)"/><path class="cls-27" d="M18.5,44.1a1.22,1.22,0,0,1,1.15,2.15,5.29,5.29,0,0,1-2.37-.11S17.9,44.42,18.5,44.1Z" transform="translate(23.54 13.12)"/><path class="cls-28" d="M18.65,44.63a.66.66,0,1,1,.62,1.16C19,46,18,45.73,18,45.73S18.33,44.8,18.65,44.63Z" transform="translate(23.54 13.12)"/><path class="cls-30" d="M18.87,45.19a.23.23,0,0,1,.32.1.24.24,0,0,1-.1.32,1.07,1.07,0,0,1-.46,0S18.75,45.25,18.87,45.19Z" transform="translate(23.54 13.12)"/><path class="cls-27" d="M16.5,47.79a1.21,1.21,0,0,1,1.65.5,1.23,1.23,0,0,1-.5,1.65,5.25,5.25,0,0,1-2.37-.12S15.9,48.1,16.5,47.79Z" transform="translate(23.54 13.12)"/><path class="cls-28" d="M16.65,48.32a.66.66,0,0,1,.62,1.16A2.82,2.82,0,0,1,16,49.41S16.33,48.49,16.65,48.32Z" transform="translate(23.54 13.12)"/><path class="cls-30" d="M16.87,48.87a.24.24,0,0,1,.22.42,1.07,1.07,0,0,1-.46,0S16.75,48.93,16.87,48.87Z" transform="translate(23.54 13.12)"/><path class="cls-27" d="M15.31,51.94a1.22,1.22,0,0,1,1.15,2.16A5.4,5.4,0,0,1,14.09,54S14.71,52.26,15.31,51.94Z" transform="translate(23.54 13.12)"/><path class="cls-28" d="M15.46,52.48a.65.65,0,0,1,.89.27.66.66,0,0,1-.27.89,2.82,2.82,0,0,1-1.27-.07S15.14,52.65,15.46,52.48Z" transform="translate(23.54 13.12)"/><path class="cls-30" d="M15.68,53a.23.23,0,0,1,.32.1.24.24,0,0,1-.09.32,1.11,1.11,0,0,1-.47,0S15.57,53.09,15.68,53Z" transform="translate(23.54 13.12)"/><path class="cls-27" d="M9.72,46.82a1.24,1.24,0,0,1,1.66.5A1.22,1.22,0,0,1,10.87,49a5.25,5.25,0,0,1-2.36-.11S9.13,47.14,9.72,46.82Z" transform="translate(23.54 13.12)"/><path class="cls-28" d="M9.88,47.35a.66.66,0,1,1,.62,1.16c-.32.18-1.28-.06-1.28-.06S9.56,47.52,9.88,47.35Z" transform="translate(23.54 13.12)"/><path class="cls-30" d="M10.1,47.91a.24.24,0,0,1,.22.42,1.07,1.07,0,0,1-.46,0S10,48,10.1,47.91Z" transform="translate(23.54 13.12)"/><path class="cls-27" d="M6.07,51.09a1.22,1.22,0,0,1,1.15,2.16,5.4,5.4,0,0,1-2.37-.12S5.48,51.41,6.07,51.09Z" transform="translate(23.54 13.12)"/><path class="cls-28" d="M6.23,51.62a.66.66,0,0,1,.89.27.65.65,0,0,1-.28.89c-.32.18-1.27-.06-1.27-.06S5.9,51.79,6.23,51.62Z" transform="translate(23.54 13.12)"/><path class="cls-30" d="M6.44,52.18a.24.24,0,0,1,.23.42,1.11,1.11,0,0,1-.47,0S6.33,52.24,6.44,52.18Z" transform="translate(23.54 13.12)"/><path class="cls-27" d="M21.21,52a1.22,1.22,0,1,1,.63,2.36c-.65.17-2.28-.66-2.28-.66S20.56,52.15,21.21,52Z" transform="translate(23.54 13.12)"/><path class="cls-28" d="M21.24,52.52a.66.66,0,1,1,.34,1.28c-.35.09-1.23-.36-1.23-.36S20.89,52.62,21.24,52.52Z" transform="translate(23.54 13.12)"/><path class="cls-32" d="M21.33,53.12a.23.23,0,0,1,.29.16.25.25,0,0,1-.17.3,1,1,0,0,1-.44-.13S21.2,53.15,21.33,53.12Z" transform="translate(23.54 13.12)"/><path class="cls-27" d="M26.33,52.16A1.22,1.22,0,1,1,27,54.52c-.65.17-2.28-.65-2.28-.65S25.68,52.34,26.33,52.16Z" transform="translate(23.54 13.12)"/><path class="cls-28" d="M26.36,52.72a.65.65,0,0,1,.81.46.67.67,0,0,1-.47.81c-.35.09-1.23-.36-1.23-.36S26,52.81,26.36,52.72Z" transform="translate(23.54 13.12)"/><path class="cls-32" d="M26.45,53.31a.23.23,0,0,1,.29.16.25.25,0,0,1-.17.3c-.12,0-.44-.13-.44-.13S26.32,53.34,26.45,53.31Z" transform="translate(23.54 13.12)"/><path class="cls-27" d="M7.4,33.72a1,1,0,0,1,1.41-.13A1,1,0,0,1,8.63,35a5.2,5.2,0,0,1-2,.64A5.14,5.14,0,0,1,7.4,33.72Z" transform="translate(23.54 13.12)"/><path class="cls-28" d="M7.6,34.07a.49.49,0,1,1,.66.69,2.78,2.78,0,0,1-1,.35A2.77,2.77,0,0,1,7.6,34.07Z" transform="translate(23.54 13.12)"/><path class="cls-30" d="M7.85,34.43a.18.18,0,1,1,.24.25,1,1,0,0,1-.38.12A.91.91,0,0,1,7.85,34.43Z" transform="translate(23.54 13.12)"/><path class="cls-27" d="M14.88,56.34a1,1,0,1,1,.28,1.9A5.75,5.75,0,0,1,13,57.59,5.87,5.87,0,0,1,14.88,56.34Z" transform="translate(23.54 13.12)"/><path class="cls-28" d="M14.83,56.78a.53.53,0,1,1,.15,1,3.12,3.12,0,0,1-1.17-.35A3.09,3.09,0,0,1,14.83,56.78Z" transform="translate(23.54 13.12)"/><path class="cls-30" d="M14.83,57.25a.21.21,0,0,1,.26.15c0,.1-.08.2-.21.22a1.09,1.09,0,0,1-.42-.13A1.05,1.05,0,0,1,14.83,57.25Z" transform="translate(23.54 13.12)"/><path class="cls-9" d="M57,29.2c-.92.68-1.75,1.47-2.65,2.17-1.09.84-2.43,1.56-2.92,2.91a2.4,2.4,0,0,0,1.92,3.26c3.54.22,6.18-4.46,5.38-7.64A1.09,1.09,0,0,0,57,29.2Z" transform="translate(23.54 13.12)"/><path class="cls-9" d="M57.7,25.82a1.38,1.38,0,0,0,1-2.56,1.38,1.38,0,0,0-1,2.56Z" transform="translate(23.54 13.12)"/></g></g></g></g></svg>