<svg xmlns="http://www.w3.org/2000/svg" xmlns:xlink="http://www.w3.org/1999/xlink" viewBox="0 0 113.41 105.38"><defs><style>.cls-1,.cls-10,.cls-8{fill:#85b32f;}.cls-2{fill:none;}.cls-12,.cls-3{fill:#9fc139;}.cls-4{isolation:isolate;}.cls-5{fill:#5e3113;}.cls-6{clip-path:url(#clip-path);}.cls-7{opacity:0.29;}.cls-13,.cls-24,.cls-25,.cls-26,.cls-7{mix-blend-mode:screen;}.cls-13,.cls-8{opacity:0.18;}.cls-10,.cls-12,.cls-8{mix-blend-mode:multiply;}.cls-9{clip-path:url(#clip-path-2);}.cls-10{opacity:0.11;}.cls-11{clip-path:url(#clip-path-3);}.cls-12{opacity:0.33;}.cls-13,.cls-14,.cls-15{fill:#fff;}.cls-14{opacity:0.19;}.cls-16{fill:#f7f9eb;}.cls-17{fill:#efefb9;}.cls-18{fill:#fe3000;}.cls-19{clip-path:url(#clip-path-4);}.cls-20{fill:#eff4c1;}.cls-21{fill:#e9eda6;}.cls-22{fill:#754118;}.cls-23{fill:#9e5421;}.cls-24{opacity:0.56;}.cls-25{opacity:0.37;}.cls-26{opacity:0.28;}.cls-27{opacity:0.53;}</style><clipPath id="clip-path" transform="translate(2.07)"><path class="cls-1" d="M60.11,13.93c-3-.69-6.1-.93-8.94-2.07-6-2.39-14.46,1.23-16.16,2.55-3.09,2.4-4.72,5.14-6.72,8.51s-2.71,7.41-3.06,11.35c-.51,5.82-.31,11.85,1.84,17.28,1.68,4.23,4.45,7.92,6.55,12,1.19,2.31,2.19,4.76,3.86,6.75,3.7,4.4,9.89,5.63,15.61,6.25,3.27.35,6.54.58,9.82.71a21.19,21.19,0,0,0,6.21-.42c5.39-1.4,9-6.41,11.66-11.3a92.46,92.46,0,0,0,5.73-12.62c2.34-6.36,4-13.18,3.06-19.89s-4.86-13.32-11.1-16c-3-1.3-6.42-1.59-9.72-1.86l-6.08-.51A16.84,16.84,0,0,1,60.11,13.93Z"/></clipPath><clipPath id="clip-path-2" transform="translate(2.07)"><path class="cls-2" d="M60.11,13.93c-3-.69-6.1-.93-8.94-2.07-6-2.39-14.46,1.23-16.16,2.55-3.09,2.4-4.72,5.14-6.72,8.51s-2.71,7.41-3.06,11.35c-.51,5.82-.31,11.85,1.84,17.28,1.68,4.23,4.45,7.92,6.55,12,1.19,2.31,2.19,4.76,3.86,6.75,3.7,4.4,9.89,5.63,15.61,6.25,3.27.35,6.54.58,9.82.71a21.19,21.19,0,0,0,6.21-.42c5.39-1.4,9-6.41,11.66-11.3a92.46,92.46,0,0,0,5.73-12.62c2.34-6.36,4-13.18,3.06-19.89s-4.86-13.32-11.1-16c-3-1.3-6.42-1.59-9.72-1.86l-6.08-.51A16.84,16.84,0,0,1,60.11,13.93Z"/></clipPath><clipPath id="clip-path-3" transform="translate(2.07)"><path class="cls-3" d="M34.91,45c-3.35-3.44-8.62-4.57-13.34-3.69s-9,3.54-12.55,6.73a27.06,27.06,0,0,0-4.09,4.4C.48,58.69.12,66.94,1,74.54c.73,6.28,2.43,12.9,7.14,17.13a25.31,25.31,0,0,0,4.37,3,56.47,56.47,0,0,0,22.66,7,22.68,22.68,0,0,0,5.88-.11,25.68,25.68,0,0,0,6.49-2c4.59-2.52,7-3.28,11.23-6.37s7.46-9.1,8.45-14.24c.77-4,1.25-8.38.19-12.31a24.09,24.09,0,0,0-2.08-5.67,15.34,15.34,0,0,0-11.58-7.3,19.87,19.87,0,0,0-7.4.62,23.5,23.5,0,0,0-3.41,1.22c-.71.31-2,1.41-2.84,1-1-.53-1.42-4.85-1.84-6A15.59,15.59,0,0,0,34.91,45Z"/></clipPath><clipPath id="clip-path-4" transform="translate(2.07)"><path class="cls-2" d="M34.3,41.79C30.94,38.35,25.67,37.22,21,38.1S12,41.64,8.4,44.83a27.06,27.06,0,0,0-4.09,4.4C-.14,55.45-.49,63.7.39,71.3c.73,6.28,2.43,12.9,7.13,17.12a24,24,0,0,0,4.38,3,56.39,56.39,0,0,0,22.65,7.06,22.31,22.31,0,0,0,5.89-.12,25.31,25.31,0,0,0,6.48-2c4.59-2.53,7-3.29,11.23-6.37s7.46-9.1,8.45-14.24c.77-4,1.25-8.38.2-12.31a24.57,24.57,0,0,0-2.09-5.67,15.31,15.31,0,0,0-11.58-7.3,19.81,19.81,0,0,0-7.39.62,22.64,22.64,0,0,0-3.41,1.21c-.72.32-2,1.42-2.85,1-1-.53-1.42-4.86-1.84-6A15.48,15.48,0,0,0,34.3,41.79Z"/></clipPath></defs><g class="cls-4"><g id="Capa_2" data-name="Capa 2"><g id="Layer_1" data-name="Layer 1"><g id="Layer_11" data-name="Layer 11"><path class="cls-5" d="M60.93,17.4a16.93,16.93,0,0,1-.57-6,12.56,12.56,0,0,1,1.89-4.89,21,21,0,0,1,3.39-4.07c1-1,2.67-2.77,4.23-2.44a.73.73,0,0,1,.53.7c-.05,1.39-1.74,2.43-2.67,3.3A23.36,23.36,0,0,0,64.6,7.5a20.91,20.91,0,0,0-3.16,9.83c0,.27-.45.38-.51.07Z" transform="translate(2.07)"/><path class="cls-1" d="M60.11,13.93c-3-.69-6.1-.93-8.94-2.07-6-2.39-14.46,1.23-16.16,2.55-3.09,2.4-4.72,5.14-6.72,8.51s-2.71,7.41-3.06,11.35c-.51,5.82-.31,11.85,1.84,17.28,1.68,4.23,4.45,7.92,6.55,12,1.19,2.31,2.19,4.76,3.86,6.75,3.7,4.4,9.89,5.63,15.61,6.25,3.27.35,6.54.58,9.82.71a21.19,21.19,0,0,0,6.21-.42c5.39-1.4,9-6.41,11.66-11.3a92.46,92.46,0,0,0,5.73-12.62c2.34-6.36,4-13.18,3.06-19.89s-4.86-13.32-11.1-16c-3-1.3-6.42-1.59-9.72-1.86l-6.08-.51A16.84,16.84,0,0,1,60.11,13.93Z" transform="translate(2.07)"/><g class="cls-6"><g class="cls-7"><path class="cls-1" d="M37.77,23.35a23.67,23.67,0,0,0-4.6,18.34s-.16-1.14-.06-.47c0,.22.06.43.1.65.07.5.15,1,.23,1.51q.44,2.74,1,5.47A64.94,64.94,0,0,0,37.29,59a9.84,9.84,0,0,1,.45,1.13s-.47-1.06-.2-.47c.09.18.17.37.25.55.39.86.81,1.7,1.26,2.53s.8,1.4,1.24,2.08c.23.37.47.72.71,1.07.1.15.21.29.31.43.44.64-.11-.15-.27-.33,1.14,1.28,2.25,2.57,3.46,3.8.62.62,1.27,1.2,1.94,1.78s-.88-.63.13.1c.33.25.66.48,1,.71a22.69,22.69,0,0,0,2.25,1.3c.35.18.76.31,1.09.52-.12-.08-1.11-.42-.26-.13l.65.24c.77.25,1.55.44,2.31.72a6,6,0,0,1,2.56,1.53c.06.08.35.45,0,.06s.21.1.35.18a3.5,3.5,0,0,1,0,6,14.4,14.4,0,0,1-2.59,1.4,10.23,10.23,0,0,1-4.44,0,22.24,22.24,0,0,1-4.82-1.34,28.6,28.6,0,0,1-10.29-6.68c-5.67-6.09-8.88-14-10.74-22A125.73,125.73,0,0,1,21.41,41a50.37,50.37,0,0,1-.17-12.33c.56-4.58,1.61-9.37,4.33-13.2,2.82-4,6.88-6.36,11.4-8A32.68,32.68,0,0,1,49.42,5.17,19.67,19.67,0,0,1,56,6.42a18.46,18.46,0,0,1,3.09,1.52,6.92,6.92,0,0,1,1.83,1.71c.09.12.17.24.27.36-.3-.38.37.44.35.42a3,3,0,0,1,.44,3.44c-.62,1.06-2.24.93-3.44.56A22.13,22.13,0,0,0,37.77,23.35Z" transform="translate(2.07)"/></g><path class="cls-8" d="M56.75,83.21C64.8,85.42,73,81.37,78,75.06a47.57,47.57,0,0,0,5.32-8.6,74.92,74.92,0,0,0,4.21-9.95c2.17-6.65,2.47-14,2.39-20.93-.08-6.78-1.12-14.09-5.08-19.79a24.7,24.7,0,0,0-7.2-7C74.18,6.62,69,5.18,66,9a6.31,6.31,0,0,0-.76,1.23,13.73,13.73,0,0,0-1.67.34,2.5,2.5,0,0,0-1.48,3.63,26.91,26.91,0,0,0,5.67,6.05c.37.32.77.61,1.16.9l.4.34a17.16,17.16,0,0,1,1.43,1.4l.3.37.25.42c.36.59.67,1.19,1,1.81,0,.05.27.66.41.91l0,.11c.19.54.36,1.08.52,1.62.34,1.16.6,2.33.83,3.52.16.82.3,1.64.43,2.47a4.58,4.58,0,0,0,.12.85c.16,1.37.29,2.75.36,4.14a38,38,0,0,1-.2,8.18c0,.22-.13.6-.15.73-.06.36-.12.71-.19,1.07-.13.62-.26,1.24-.41,1.85-.3,1.18-.65,2.35-1,3.49l-.39,1,0,0q-.27.63-.57,1.23C71.49,57.8,67.75,66.94,67,67.92c-4.86,6-4.86,7.88-12.85,9.5C49.79,78.29,52.47,82,56.75,83.21ZM60.31,72a.93.93,0,0,1,.56.11h-.06A3.49,3.49,0,0,0,60.31,72Zm6.47-2.15-.38.38,0,0A2.51,2.51,0,0,1,66.78,69.84Zm4-47a1,1,0,0,1,.23.3C71,23.1,70.9,23,70.81,22.88Z" transform="translate(2.07)"/></g><g class="cls-9"><path class="cls-10" d="M17.18,53.54c.38.35.76.68,1.16,1,1.64,1.27,1.84,1.42.6.47l.29.24a36,36,0,0,0,2.91,2.17,26.49,26.49,0,0,0,2.47,1.44A8.62,8.62,0,0,0,22.8,62c-1,3.09.71,6.51,3.33,8.16a49.3,49.3,0,0,0,16.21,6.3,100.15,100.15,0,0,0,15.81,2,33.88,33.88,0,0,0,16.38-3.07,30,30,0,0,0,11-9.57A28.91,28.91,0,0,0,90.54,52a6.09,6.09,0,0,0-1.21-4,58.4,58.4,0,0,0,2.48-9.93c1.18-6.91,1.4-14.29-2.08-20.62a6.51,6.51,0,0,0-4.9-3.21,13.81,13.81,0,0,0-2.23-3,9.87,9.87,0,0,0-11.2-2.1,3.85,3.85,0,0,0,2.52,7.13l.09,0s0,0,.06,0a1.64,1.64,0,0,0,.36.18l.1,0,.27.31c-.2-.21,0,0,.56.74.09.16.19.36.19.37s.6,1,.18.33,0-.12,0,.08c.1.38.2.76.29,1.14,0,.08,0,.31,0,.38s0,.12,0,.15c0,.26,0,.52,0,.78s0,.65,0,1-.12.85,0,.49l0,.18c0,.26-.1.52-.16.77-.11.45-.23.9-.37,1.34s-.28.88-.44,1.31c0,.12-.17.36-.23.55a45.41,45.41,0,0,1-2.17,4.22c-.43.69-.89,1.34-1.36,2a2.11,2.11,0,0,1-.19.23c-.25.3-.5.6-.76.89a34.66,34.66,0,0,1-3.78,3.59l-.12.1,0,0-1.1.78c-.66.44-1.33.87-2,1.27s-1.58.9-2.39,1.31c-.41.21-.82.4-1.23.59a5.42,5.42,0,0,0-.6.26,4.47,4.47,0,0,0-.6.25l-1.27.47c-.8.28-1.61.53-2.43.76a45.32,45.32,0,0,1-5.32,1.14,66,66,0,0,1-14.93-.18c-3.58-.54-7.07-1.37-10.6-2.15a7.19,7.19,0,0,0-7.79,3.17A7,7,0,0,0,17.18,53.54ZM74.27,16.37l.12,0,.1.1A1.64,1.64,0,0,1,74.27,16.37Zm-.08-.08a.11.11,0,0,1,.1,0H74.2A0,0,0,0,1,74.19,16.29Zm.17.09-.14,0h.07Zm0-.14-.32.05H74Zm.94,1.31-.12-.16A.69.69,0,0,1,75.32,17.55ZM59.09,41.71h0Zm0,0h0l-.65.28C57.6,42.36,58.79,41.8,59.05,41.72ZM75.49,36c.15-.4.1-.25,0,0Z" transform="translate(2.07)"/><path class="cls-10" d="M23.39,59.94c.41.38.83.74,1.26,1.09l.66.51.32.27a38.42,38.42,0,0,0,3.17,2.37,27.91,27.91,0,0,0,2.7,1.57,9.43,9.43,0,0,0-2,3.41c-1.09,3.38.77,7.11,3.63,8.91A54,54,0,0,0,50.85,85a109,109,0,0,0,17.26,2.13A37,37,0,0,0,86,83.73a32.84,32.84,0,0,0,12-10.44,31.66,31.66,0,0,0,5.52-15,6.58,6.58,0,0,0-1.32-4.38,63.31,63.31,0,0,0,2.71-10.85c1.29-7.54,1.53-15.59-2.27-22.5a7.12,7.12,0,0,0-5.35-3.51,14.8,14.8,0,0,0-2.44-3.28,10.75,10.75,0,0,0-12.22-2.29c-1.92.89-2.49,3.5-1.73,5.28a4.18,4.18,0,0,0,4.49,2.5l.09,0s0,0,.06,0a1.79,1.79,0,0,0,.4.2l.11.05.29.34c-.22-.23,0,0,.61.81l.22.4c.09.17.65,1.1.19.36s-.06-.12,0,.1c.1.41.21.82.31,1.23a3.53,3.53,0,0,1,.06.42v.16c0,.29,0,.57,0,.85s0,.72,0,1.07-.13.93,0,.53l0,.2q-.07.42-.18.84c-.11.49-.25,1-.39,1.46s-.31,1-.49,1.43c-.05.13-.18.4-.25.6A46.6,46.6,0,0,1,83.89,35c-.46.75-1,1.46-1.48,2.18l-.21.26-.83,1a38.13,38.13,0,0,1-4.12,3.92l-.14.12h0c-.4.29-.8.58-1.2.85-.72.49-1.45.95-2.19,1.39s-1.73,1-2.61,1.43c-.45.23-.9.44-1.35.65a4.71,4.71,0,0,0-.65.28,5.24,5.24,0,0,0-.65.27l-1.39.52c-.87.3-1.76.58-2.65.83a52.19,52.19,0,0,1-5.81,1.24,72.25,72.25,0,0,1-16.3-.2c-3.9-.59-7.71-1.49-11.57-2.34a7.83,7.83,0,0,0-8.51,3.46A7.6,7.6,0,0,0,23.39,59.94ZM85.7,19.37l.13,0,.12.11Zm-.08-.09a.11.11,0,0,1,.1,0h-.1Zm.19.1-.16-.05h.08Zm0-.16-.36.06h-.09Zm1,1.44-.13-.18A.53.53,0,0,1,86.85,20.66ZM69.13,47Zm0,0h0l-.71.3C67.5,47.74,68.8,47.12,69.09,47Zm18-6.22c.16-.43.1-.28,0,0Z" transform="translate(2.07)"/><path class="cls-10" d="M25.17,67.12q.51.66,1,1.29l.56.62.27.32a35.23,35.23,0,0,0,2.7,2.9,28.4,28.4,0,0,0,2.37,2,9.48,9.48,0,0,0-2.55,3c-1.67,3.13-.5,7.13,2,9.41a53.87,53.87,0,0,0,16.2,9.92,109.25,109.25,0,0,0,16.6,5.16,37,37,0,0,0,18.19-.12A32.72,32.72,0,0,0,96.17,93.5a31.67,31.67,0,0,0,8.1-13.77,6.62,6.62,0,0,0-.52-4.54A65.25,65.25,0,0,0,108.34,65c2.6-7.2,4.27-15.07,1.76-22.55a7.1,7.1,0,0,0-4.63-4.4,15,15,0,0,0-1.82-3.67A10.79,10.79,0,0,0,92,30c-2,.54-1.53,1.81-1.1,3.7.46,2.07.52,4.24,2.44,4.46l.08,0s0,0,.06,0a2,2,0,0,0,.36.27l.1.07.22.39c-.18-.28,0,0,.46.9.07.19.13.42.14.43.06.18.44,1.2.13.39-.26-.65,0-.13,0,.09,0,.43.07.85.1,1.27,0,.1,0,.35,0,.42s0,.14,0,.17c0,.28-.08.56-.13.84s-.15.7-.23,1-.29.89-.15.51l-.07.19c-.1.27-.21.54-.32.8-.21.46-.42.91-.65,1.36s-.48.89-.73,1.33a6.29,6.29,0,0,0-.36.54,46.58,46.58,0,0,1-3.15,4.11c-.59.66-1.21,1.27-1.84,1.89l-.26.21c-.32.28-.65.54-1,.8a36.4,36.4,0,0,1-4.75,3.13l-.15.09h0c-.44.22-.88.42-1.33.62-.79.36-1.59.68-2.41,1s-1.87.65-2.82.94c-.47.14-.95.27-1.43.39a5.49,5.49,0,0,0-.7.17,3.56,3.56,0,0,0-.69.15c-.48.09-1,.18-1.46.25-.91.15-1.83.27-2.75.35a48.9,48.9,0,0,1-5.93.19,72.18,72.18,0,0,1-16-3.09c-3.74-1.27-14.72-5.19-18.36-6.71-3.21-1.33-7.24.13-9.61,2.67C15.43,58.7,23.23,64.57,25.17,67.12ZM93.71,38.27l.12.06.09.13A2,2,0,0,1,93.71,38.27Zm-.07-.1s.06,0,.1,0l-.1,0Zm.17.13-.15-.08h.08Zm0-.15H93.5l-.09,0Zm.75,1.59-.1-.2A.68.68,0,0,1,94.61,39.74ZM72.48,62.54Zm0,0h0l-.75.16C70.75,63,72.14,62.57,72.44,62.54Zm18.77-2.93Z" transform="translate(2.07)"/></g><path class="cls-3" d="M34.91,45c-3.35-3.44-8.62-4.57-13.34-3.69s-9,3.54-12.55,6.73a27.06,27.06,0,0,0-4.09,4.4C.48,58.69.12,66.94,1,74.54c.73,6.28,2.43,12.9,7.14,17.13a25.31,25.31,0,0,0,4.37,3,56.47,56.47,0,0,0,22.66,7,22.68,22.68,0,0,0,5.88-.11,25.68,25.68,0,0,0,6.49-2c4.59-2.52,7-3.28,11.23-6.37s7.46-9.1,8.45-14.24c.77-4,1.25-8.38.19-12.31a24.09,24.09,0,0,0-2.08-5.67,15.34,15.34,0,0,0-11.58-7.3,19.87,19.87,0,0,0-7.4.62,23.5,23.5,0,0,0-3.41,1.22c-.71.31-2,1.41-2.84,1-1-.53-1.42-4.85-1.84-6A15.59,15.59,0,0,0,34.91,45Z" transform="translate(2.07)"/><g class="cls-11"><path class="cls-12" d="M44.67,104.4a8.52,8.52,0,0,0,5.69-4c.23-.39.45-.79.65-1.2a2.28,2.28,0,0,0,3.24-1.41,2.76,2.76,0,0,0,2-1,2.64,2.64,0,0,0,3.11-1.8,2.59,2.59,0,0,0,2-2.06,2.7,2.7,0,0,0,3-2.21A2.83,2.83,0,0,0,65.81,88a2.4,2.4,0,0,0,1.59-2,2.39,2.39,0,0,0,1.66-2.49c-.1-.85-.21-1.71-.31-2.57a2.81,2.81,0,0,0,1.55-2.46c0-.94,0-1.88,0-2.82,0-.19,0-.4,0-.61a2.48,2.48,0,0,0,1.79-1.86,11.58,11.58,0,0,0-2.29-10.37c-2-2.35-5.69.7-4.16,3.21A8.24,8.24,0,0,1,67,69.7a3.8,3.8,0,0,0-1.59,1.59A7.57,7.57,0,0,0,64.79,75c0,.23,0,.46,0,.7a3.53,3.53,0,0,0-.57.45,3.83,3.83,0,0,0-1,1.92,2.32,2.32,0,0,0-1.06,1.5c0,.11,0,.21-.05.31a1.89,1.89,0,0,0-.49.25,4,4,0,0,0-1.81,3,1.86,1.86,0,0,0-.27.29,2.57,2.57,0,0,0-.62.08,3.26,3.26,0,0,0-2.36,2.28,2.58,2.58,0,0,0-2,1.72,2.15,2.15,0,0,0-1.74,1,2.15,2.15,0,0,0-2.09.11,4.06,4.06,0,0,0-.93.92,1.64,1.64,0,0,0-1.25.8A.81.81,0,0,0,49,91.37a7.49,7.49,0,0,0-.09,1.17,16.6,16.6,0,0,0,0,2.23,10.26,10.26,0,0,1-1,2,16.77,16.77,0,0,1-4.61,4.43A1.78,1.78,0,0,0,44.67,104.4Zm23.89-25c0-.12,0-.1,0,0Z" transform="translate(2.07)"/><path class="cls-13" d="M.17,72.43A2.6,2.6,0,0,1,3,74.28c.73,1.86,1,3.91,1.65,5.82.33,1,.7,2,1.1,2.93a2.82,2.82,0,0,1,1.38,1.14c.26.43.51.88.74,1.33A2.61,2.61,0,0,1,10,87.41c.07.22.14.45.2.67A2.71,2.71,0,0,1,13,89a2.75,2.75,0,0,1,3.09,1.15,2.58,2.58,0,0,1,2.06,1.2,2.49,2.49,0,0,1,1.67,1.23,2.51,2.51,0,0,1,.37.27l.06-.07c.9-1,2.43.08,2.16,1.26a8.24,8.24,0,0,0-.08,3.39c.37.93.72,1.86,1.05,2.81.86,2.46-3.21,4.24-4.27,1.8-.24-.55-.47-1.09-.7-1.64a2.7,2.7,0,0,1-2.61-.52,2.83,2.83,0,0,1-2.17-1,3.22,3.22,0,0,1-2.54-1.47,3,3,0,0,1-2.37-.17A5.79,5.79,0,0,1,6.2,93.72a2,2,0,0,1-.07-.23,2.61,2.61,0,0,1-1.59-1.77,21.46,21.46,0,0,0-.83-2.21,2.35,2.35,0,0,1-1.6-1.31A49.73,49.73,0,0,1-.58,81.76,21.6,21.6,0,0,1-2.07,75,2.57,2.57,0,0,1,.17,72.43Z" transform="translate(2.07)"/></g><g class="cls-7"><path class="cls-1" d="M55.47,19.66a6,6,0,0,1-.18,2,6,6,0,0,1-2,2.87c-.23.22-.15.14.23-.23-.14.14-.28.28-.41.43-.42.43-.82.87-1.26,1.27-.23.21-.47.41-.71.61-.72.6.64-.73,0,0A17.69,17.69,0,0,0,50,28.09c-.62.85.44-1,0-.06-.14.32-.29.62-.42.94s-.16.44-.23.66c.07-.23.13-.46.2-.69,0,0-.15.87-.16,1a18.58,18.58,0,0,0-.13,2.47c0-.51,0-1,0-1.54A49.45,49.45,0,0,0,51.27,43l-.51-1.83c.43,1.5.73,3,1,4.5a10,10,0,0,1-.51,6,6.92,6.92,0,0,1-10.5,2.77,11.25,11.25,0,0,1-2-1.94,9.37,9.37,0,0,1-1.55-3.85c-.19-.82-.36-1.65-.49-2.48a33.74,33.74,0,0,1,0-6.59A43,43,0,0,1,38.6,28.29a17.29,17.29,0,0,1,6.25-8.77A14,14,0,0,1,47.47,18a27.15,27.15,0,0,1,2.83-.85c1.6-.44,5,.37,5.17,2.56Z" transform="translate(2.07)"/></g><path class="cls-14" d="M31,27.7a9.63,9.63,0,0,0,4.24,4.23,38.36,38.36,0,0,0,11.85,4,42.91,42.91,0,0,0,13.14.45c4.14-.53,8-2.59,8.41-6.65a9.36,9.36,0,0,0-5.49-9c-2.21-.88-4.37-.25-6.66-.07a39.22,39.22,0,0,1-6.68-.08,19.74,19.74,0,0,1-5.71-1.28h0c-.21-.44-.39-.89-.61-1.31A6.11,6.11,0,0,0,41,15.47c-4.44-2.31-8.79,3-10.07,6.25A7.75,7.75,0,0,0,31,27.7Zm28.13,2.17h0Z" transform="translate(2.07)"/><path class="cls-15" d="M41.92,23.22c-1,2.45-2.78,4.47-3.64,7a15,15,0,0,0-.81,3.69,21.18,21.18,0,0,1-.36,4.14,1.6,1.6,0,0,1-2.65.69,4.26,4.26,0,0,1-1.22-2.1A9,9,0,0,1,33,34.13a14.3,14.3,0,0,1,1.28-5.05C35.51,26.37,38,23.23,40.73,22a.88.88,0,0,1,1.19,1.2Z" transform="translate(2.07)"/><path class="cls-15" d="M45.65,17.11a3.61,3.61,0,0,1,.33.42,2,2,0,0,1,.27,1,2,2,0,0,1-.27,1l0,0a1.91,1.91,0,0,1-.72.72,2.1,2.1,0,0,1-1,.28A2.14,2.14,0,0,1,42.81,20a1.46,1.46,0,0,1-.42-.65,1.58,1.58,0,0,1-.17-.77,2.07,2.07,0,0,1,1-1.74,1.63,1.63,0,0,1,.77-.25,1,1,0,0,1,.53,0l.28,0-.53-.07a1.9,1.9,0,0,1,1.39.57Z" transform="translate(2.07)"/><path class="cls-16" d="M34.3,41.79C30.94,38.35,25.67,37.22,21,38.1S12,41.64,8.4,44.83a27.06,27.06,0,0,0-4.09,4.4C-.14,55.45-.49,63.7.39,71.3c.73,6.28,2.43,12.9,7.13,17.12a24,24,0,0,0,4.38,3,56.39,56.39,0,0,0,22.65,7.06,22.31,22.31,0,0,0,5.89-.12,25.31,25.31,0,0,0,6.48-2c4.59-2.53,7-3.29,11.23-6.37s7.46-9.1,8.45-14.24c.77-4,1.25-8.38.2-12.31a24.57,24.57,0,0,0-2.09-5.67,15.31,15.31,0,0,0-11.58-7.3,19.81,19.81,0,0,0-7.39.62,22.64,22.64,0,0,0-3.41,1.21c-.72.32-2,1.42-2.85,1-1-.53-1.42-4.86-1.84-6A15.48,15.48,0,0,0,34.3,41.79Z" transform="translate(2.07)"/><path class="cls-17" d="M25.81,70.72a9.26,9.26,0,0,1,1.91,2.78c.61,2.11,3,3.6,4.68,2.33a20.13,20.13,0,0,1,2.23-1.43,7.62,7.62,0,0,0,1.57-.29,7.4,7.4,0,0,0,4.38-3.48c1-1.82-.11-5.22-.76-7.13-.32-.94.17-4.14,0-5.38-.15-.9-1.29-1.54-2.23-1.66a4.53,4.53,0,0,0-3.23,1.41,15.82,15.82,0,0,1-2.73,2.46,17.74,17.74,0,0,1-2.11,1.37,10.56,10.56,0,0,0-4.12,3.72A4.54,4.54,0,0,0,25.81,70.72Zm7.46,3.72a.05.05,0,0,0,0,0S33.29,74.46,33.27,74.44Z" transform="translate(2.07)"/><path class="cls-18" d="M32.62,76.3l0,0Z" transform="translate(2.07)"/><g class="cls-19"><path class="cls-20" d="M37.41,52.79A34.84,34.84,0,0,0,32,46.07a16.18,16.18,0,0,0-7.16-3.67C19.46,41.16,13.83,43.82,10,48c-4.36,4.82-6,11.54-6.22,17.9C3.5,72.89,4,80.28,8.2,86.11A72.73,72.73,0,0,0,16,94.92c1.36,1.37,2.89,2.61,4.14,4.07a50.32,50.32,0,0,1,4,4.55,1.22,1.22,0,0,1-1.05,1.83c-4-.48-7.45-3.15-10.23-5.86a93.68,93.68,0,0,1-8-8.77A27.47,27.47,0,0,1-.69,79.48,52.76,52.76,0,0,1-1.76,67.13c.14-7.89,2-15.85,7.06-22.07,4.56-5.59,11.75-9.27,19-8.27a19.3,19.3,0,0,1,10.43,5.13c2.82,2.6,5.16,6.21,5.43,10.11.11,1.6-2,1.87-2.79.76Z" transform="translate(2.07)"/><path class="cls-21" d="M37.54,52.61a10.85,10.85,0,0,1,3.92-3.81A13.77,13.77,0,0,1,46.87,47a19.15,19.15,0,0,1,11.06,1.64,18.47,18.47,0,0,1,7.79,7c2.13,3.49,2.76,7.65,3,11.67a26,26,0,0,1-2.64,12.79,33.54,33.54,0,0,1-6.34,9.53c-5.09,5.18-12.16,8.17-19.26,9.28a59.74,59.74,0,0,1-14.39.36c-2.51-.21-5-.54-7.51-.9s-5.1-.53-6.87-2.6A1.53,1.53,0,0,1,12,93.41c1.93-1.16,3.84-1,6-.62,1.86.28,3.72.55,5.59.75A70.77,70.77,0,0,0,35.14,94a33.87,33.87,0,0,0,17.65-5.63,22.46,22.46,0,0,0,6.08-6.47A28.53,28.53,0,0,0,63,72.26a24.54,24.54,0,0,0-.63-10.47,12.61,12.61,0,0,0-4.47-6.73,13.81,13.81,0,0,0-8.65-2.79,19.36,19.36,0,0,0-5,.82c-.9.24-1.84.33-2.72.62a17.43,17.43,0,0,1-2.58.77,1.29,1.29,0,0,1-1.43-1.87Z" transform="translate(2.07)"/></g><path class="cls-22" d="M31,67.25a1.81,1.81,0,1,1-2.12-2.94c.81-.58,3.89-.57,3.89-.57S31.84,66.67,31,67.25Z" transform="translate(2.07)"/><path class="cls-23" d="M30.92,66.46a.75.75,0,0,1-1-1.07,4.43,4.43,0,0,1,1.55-.47A4.44,4.44,0,0,1,30.92,66.46Z" transform="translate(2.07)"/><path class="cls-15" d="M30.2,66.64a.4.4,0,1,1,.09-.56A.39.39,0,0,1,30.2,66.64Z" transform="translate(2.07)"/><path class="cls-22" d="M38.17,68a1.81,1.81,0,0,1-3.62.18c0-1,1.63-3.57,1.63-3.57S38.12,67,38.17,68Z" transform="translate(2.07)"/><path class="cls-23" d="M37.44,67.7A.74.74,0,1,1,36,68a4.52,4.52,0,0,1,.45-1.55S37.36,67.29,37.44,67.7Z" transform="translate(2.07)"/><path class="cls-15" d="M37.21,68.4a.41.41,0,1,1-.43-.38A.4.4,0,0,1,37.21,68.4Z" transform="translate(2.07)"/><g class="cls-24"><path class="cls-15" d="M31.46,72a9.14,9.14,0,0,1,.61-4.15,30.28,30.28,0,0,1,1.63-4.31,14.87,14.87,0,0,0,.87-2c.22-.71.32-1.44.56-2.14.34-1,1-2.16,2.21-2.05a.37.37,0,0,1,.35.47A31.44,31.44,0,0,0,36.45,61a18.56,18.56,0,0,1-1.28,3.4c-.58,1.27-1.07,2.57-1.53,3.89A13.41,13.41,0,0,1,32.11,72c-.16.22-.59.25-.65-.09Z" transform="translate(2.07)"/></g><g class="cls-25"><path class="cls-15" d="M43.9,56.45a2.42,2.42,0,0,1,1.46,0c.13,0,.78.25.58.21s.53,0,.71,0a5.06,5.06,0,0,1,2,.17,15.54,15.54,0,0,1,5.17,2.52,16.72,16.72,0,0,1,6.09,12.6C60,77,57.2,81.36,53.07,84.11A20,20,0,0,1,40.53,87a22.74,22.74,0,0,0-3-.16l-.57,0c-.89.05.46-.13-.11,0s-.89.18-1.33.29c-2,.5-4.22,1.59-6.3,1a2.16,2.16,0,0,1-1.55-2c-.06-1.9,1.35-3.71,2.63-5a20.46,20.46,0,0,1,4.43-3.25,19.94,19.94,0,0,1,5.7-2.05l1.18-.23c.58-.1,1.17-.17,1.75-.24h0c-.93.11.47-.1.75-.16.45-.1.89-.22,1.32-.35.21-.07,1.4-.52.57-.18s.32-.19.52-.3.6-.39.91-.58c.51-.32-.49.37-.49.37.09-.17.37-.34.51-.47a4.1,4.1,0,0,1,.48-.52s-.68,1-.37.5a10.13,10.13,0,0,1,.55-.89c.33-.46-.22.56-.23.6a4.75,4.75,0,0,1,.17-.49c.05-.17.09-.34.14-.5.25-.92-.17.19,0,.32a5.79,5.79,0,0,1,0-1.25c0-.19-.15-.84,0-.06.26,1.26-.16-1.24-.16-1.19-.05-.43-.27-.83.06.29A5.62,5.62,0,0,1,48,70c-.08-.45-.17-.9-.28-1.34s-.2-.75-.31-1.12c0-.18-.13-.36-.18-.55-.13-.57.11.38.18.38a8.36,8.36,0,0,1-.55-1c-.06-.12-.46-.63,0-.07s-.05,0-.14-.14c-1.36-1.47-3-2.87-3.57-4.86-.18-.65-.47-1.28-.63-1.94a2.3,2.3,0,0,1,1.4-2.85Z" transform="translate(2.07)"/></g><g class="cls-26"><path class="cls-15" d="M30.28,53.13c-1.57.37-3.09.89-4.64,1.3a25.52,25.52,0,0,0-2.56.84l-1.19.47c.07,0,.7-.32.2-.08l-.95.43a47.87,47.87,0,0,0-4.59,2.69c-.87.56.17-.05.18-.16,0,.07-.38.32-.44.38-.29.26-.53.55-.81.83-.53.52.49-.82.14-.17-.09.18-.22.34-.32.51-.25.4-.47.82-.68,1.24l-.26.54c-.48,1,.13-.17.1-.23a6.59,6.59,0,0,1-.39,1.16c-.05.19-.08.4-.14.58-.25.74,0-1.1,0-.33,0,.19,0,.41,0,.6,0,.81.05-.14-.1-.42a6.66,6.66,0,0,1,.26,1.09c0-.06.24.71.25.71s-.55-1.06-.2-.53c.22.31.37.67.57,1s.3.42.43.64c.4.64-.7-.82-.2-.26,2.47,2.78,5.41,5.24,7.32,8.47a11,11,0,0,1,1.64,8.07,6.94,6.94,0,0,1-3,4.3A5.31,5.31,0,0,1,14.54,86a7.52,7.52,0,0,1-1.68-3.81c-.08-.35-.16-.71-.25-1.06s-.4-.93,0-.17,0,0-.09-.14c-.18-.33-.37-.66-.58-1s-.65-.82-.09-.18.09.11,0,0c-.58-.68-1.18-1.33-1.81-2-2.91-3-5.75-5.92-7.08-10-1.46-4.49.18-9.57,2.84-13.29,3-4.25,7.5-6.52,12.51-7.72,4.16-1,11.19-1.95,13.44,2.88a2.47,2.47,0,0,1-1.46,3.59Z" transform="translate(2.07)"/></g><g class="cls-27"><path class="cls-17" d="M45,56.5c5.69,3.63,10.94,11.27,8.6,18.27A15.07,15.07,0,0,1,37.7,84.53a54.45,54.45,0,0,0-6.08-.94,7.68,7.68,0,0,0-2.13.26,6,6,0,0,0-2.09.72,1.3,1.3,0,0,1-2.15-1.26,5.08,5.08,0,0,1,1.13-2.4,6.1,6.1,0,0,1,2.55-1.52,12.53,12.53,0,0,1,6.32,0,17.66,17.66,0,0,0,6,.57A12.51,12.51,0,0,0,46,78.34c3.45-2.07,5.52-5.78,4.59-9.81-1-4.43-4.37-7.22-6.68-10.91A.82.82,0,0,1,45,56.5Z" transform="translate(2.07)"/></g><g class="cls-27"><path class="cls-17" d="M34,55A19,19,0,0,0,23.2,56.81a13,13,0,0,0-4.71,3.07,8.88,8.88,0,0,0-1.61,4.77c-.29,3.87,3.37,6,5.57,8.68a11.23,11.23,0,0,1,2.72,5.19,6.92,6.92,0,0,1,0,3,4.1,4.1,0,0,1-1.64,2.25,1.05,1.05,0,0,1-1.74-1A8.75,8.75,0,0,0,21.55,81,5.54,5.54,0,0,0,21,78.94a13.12,13.12,0,0,0-3-3.48c-2.54-2.32-5.3-4.73-5.91-8.3a13,13,0,0,1,2.71-10.25c2.17-2.58,6-4.15,9.19-5a17,17,0,0,1,5.72-.67,11.09,11.09,0,0,1,2.67.53,6.72,6.72,0,0,1,2.43,1.56c.6.53.16,1.79-.69,1.68Z" transform="translate(2.07)"/></g><path class="cls-15" d="M13.41,86.16a21,21,0,0,1-4.88-5.57c-.77-1.29-2.92-5.13-1.18-6.4s3,3.13,3.42,4A26.82,26.82,0,0,0,15,84.58a1.12,1.12,0,0,1-1.58,1.58Z" transform="translate(2.07)"/><path class="cls-22" d="M38.84,53.76c.4-1.52,1.07-2.9,1.59-4.38a20.19,20.19,0,0,0,1-4.73,18.68,18.68,0,0,0-.11-4.84c-.22-1.4-1-2.89-.57-4.3a.54.54,0,0,1,.78-.32c1.42.89,1.67,2.88,1.9,4.42A20.85,20.85,0,0,1,43.61,45c-.36,3.23-1.47,7.18-4.23,9.16-.27.19-.61-.13-.54-.42Z" transform="translate(2.07)"/></g></g></g></g></svg>