<svg xmlns="http://www.w3.org/2000/svg" xmlns:xlink="http://www.w3.org/1999/xlink" viewBox="0 0 96.56 97.21"><defs><style>.cls-1{fill:#94c659;}.cls-2{fill:#c0d06e;}.cls-3{fill:none;}.cls-4{isolation:isolate;}.cls-5{clip-path:url(#clip-path);}.cls-6{fill:#a3d35f;}.cls-7{fill:#80af4e;}.cls-8{clip-path:url(#clip-path-2);}.cls-9{fill:#aeba56;}.cls-10{opacity:0.56;}.cls-11{fill:#94c654;}.cls-12{fill:#333446;}.cls-13{fill:#505370;}.cls-13,.cls-15,.cls-17,.cls-20,.cls-22,.cls-24,.cls-26,.cls-28{opacity:0.28;}.cls-13,.cls-15,.cls-17,.cls-20,.cls-22,.cls-24,.cls-26,.cls-28,.cls-31{mix-blend-mode:screen;}.cls-14{fill:#272839;}.cls-15{fill:#424563;}.cls-16{fill:#282a46;}.cls-17{fill:#3f4370;}.cls-18{clip-path:url(#clip-path-3);}.cls-19{fill:#cfdb77;}.cls-20,.cls-30,.cls-31{fill:#6d73b5;}.cls-21{fill:#464760;}.cls-22{fill:#62668a;}.cls-23{fill:#3b3d5d;}.cls-24{fill:#545987;}.cls-25{fill:#484962;}.cls-26{fill:#64688c;}.cls-27{fill:#565877;}.cls-28{fill:#7377a1;}.cls-29{clip-path:url(#clip-path-4);}.cls-30{opacity:0.24;mix-blend-mode:multiply;}.cls-31{opacity:0.19;}.cls-32{fill:#fff;}</style><clipPath id="clip-path" transform="translate(21.11 7.89)"><path class="cls-1" d="M53.64.35a47.09,47.09,0,0,1-7.36,15.36A34.08,34.08,0,0,1,39.77,22c-2.9,2.19-6.49,4.2-8.21,7.52-1.3,2.48.25,7,3.79,5.92,4.07-1.23,7.54-4.08,10.61-7A32.77,32.77,0,0,0,53.1,19.2C56.11,13.14,57,6.67,54.63.3a.54.54,0,0,0-1,0Z"/></clipPath><clipPath id="clip-path-2" transform="translate(21.11 7.89)"><path class="cls-2" d="M70,24.55c-2.05-2.05-6-2.42-8.79-2.82a41.87,41.87,0,0,0-11.93.46A30.87,30.87,0,0,0,35.83,27c-3.75,2.6-7.58,7.39-6.43,12.23a5.48,5.48,0,0,0,9.79,2.14c1.78-2.29,2.15-5.12,4.26-7.25,2.39-2.4,5.85-4,8.91-5.34,2.69-1.17,5.26-2.56,8-3.61a12.74,12.74,0,0,1,5.13-1c1.47.09,2.84.66,4.31.74.2,0,.37-.24.21-.4Z"/></clipPath><clipPath id="clip-path-3" transform="translate(21.11 7.89)"><path class="cls-2" d="M37.07,5c-1.82,5.05-1.9,10.56-2.8,15.83-.45,2.63-1.12,5.2-1.72,7.8-.65,2.85-1.58,5.73-.26,8.51a3,3,0,0,0,4.63,1c4.18-3.56,3.26-11.78,3.34-16.77.08-5.46.27-11.34-2-16.42A.66.66,0,0,0,37.07,5Z"/></clipPath><clipPath id="clip-path-4" transform="translate(21.11 7.89)"><path class="cls-3" d="M42.94,76.21a7.18,7.18,0,0,0,1.57-4,6.44,6.44,0,0,0,.08-.83,6.07,6.07,0,0,0,3.61.2,6.32,6.32,0,0,0,3.41-1.64,7.65,7.65,0,0,0,1.67-4.31,4.76,4.76,0,0,0-.45-3.19,7,7,0,0,0,3.67-1.78,8.39,8.39,0,0,0,1.82-4.7c.39-2.66-.55-4.17-2.63-5.75l-.76-.55s.11-.09.16-.15a8,8,0,0,0,1.76-4.55A5,5,0,0,0,55.08,40a7.83,7.83,0,0,0,1.07-3.31c.32-2.16-.44-3.38-2.13-4.66-1.16-.89-2.55-1.76-4.08-1.44a4.81,4.81,0,0,0-1.11.36,7,7,0,0,0-2.5-3c-1.46-1.11-3.19-2.19-5.1-1.86a7.13,7.13,0,0,0-2.31-2.56c-1.47-1.12-3.22-2.22-5.15-1.82-.2,0-.38.09-.56.14A4.57,4.57,0,0,0,31,18.45c-1.17-.89-2.56-1.76-4.09-1.44a5,5,0,0,0-3.83,3.71c-.12-.1-.24-.2-.37-.29-1.17-.89-2.56-1.76-4.09-1.44-3.45.7-4.64,4.47-3.93,7.56a6.09,6.09,0,0,0-1.58,1.7,5.11,5.11,0,0,0-3.88-1.14C4.73,28,3.75,33.75,5.62,37.26a5.12,5.12,0,0,0,1.3,1.65l-.38,0c-4.34.89-5.29,6.38-3.49,9.75a.83.83,0,0,0,.09.16c-3.3,1.61-3.9,6.37-2.27,9.43a4.69,4.69,0,0,0,1.51,1.79,4.2,4.2,0,0,0,2.36.62,6.89,6.89,0,0,0,.52,4.8A4,4,0,0,0,6.54,67a3.84,3.84,0,0,0,2.52.5,4.94,4.94,0,0,0-.19.49,4.09,4.09,0,0,0-.18,2,4.43,4.43,0,0,0,2,2.6,5.06,5.06,0,0,0,2.85,1,4,4,0,0,0,1.63-.39,6.77,6.77,0,0,0,.63,4.29A4,4,0,0,0,17.11,79a4.37,4.37,0,0,0,3.28.39,5.22,5.22,0,0,0,2.72-1.31,6,6,0,0,0,1.32-3.32,7.36,7.36,0,0,0,.79,2.52,4.8,4.8,0,0,0,1.51,1.8,5.21,5.21,0,0,0,3.87.45A6,6,0,0,0,33.8,78a4.85,4.85,0,0,0,1-1.73,4.16,4.16,0,0,0,1,1,5.23,5.23,0,0,0,3.87.45A6,6,0,0,0,42.94,76.21ZM28.58,39.88l-.15-.12h0l.15,0A.78.78,0,0,0,28.58,39.88Z"/></clipPath></defs><g class="cls-4"><g id="Capa_2" data-name="Capa 2"><g id="Layer_1" data-name="Layer 1"><g id="Layer_14" data-name="Layer 14"><path class="cls-1" d="M53.64.35a47.09,47.09,0,0,1-7.36,15.36A34.08,34.08,0,0,1,39.77,22c-2.9,2.19-6.49,4.2-8.21,7.52-1.3,2.48.25,7,3.79,5.92,4.07-1.23,7.54-4.08,10.61-7A32.77,32.77,0,0,0,53.1,19.2C56.11,13.14,57,6.67,54.63.3a.54.54,0,0,0-1,0Z" transform="translate(21.11 7.89)"/><g class="cls-5"><path class="cls-6" d="M53.73-3.62c-.84,6.34.32,12.78-1.7,19A21.78,21.78,0,0,1,50,20a25.92,25.92,0,0,0-2.05,3.27c-.59,1.44-.86,3.78,1.32,3.77C52,27,53.68,24,54.75,21.88a28.65,28.65,0,0,0,2.76-8.2,38.16,38.16,0,0,0,.38-9.49c-.2-2.74-.44-6.27-2.51-8.34a1,1,0,0,0-1.65.53Z" transform="translate(21.11 7.89)"/><path class="cls-7" d="M52-7.32c-.28,2.69-.87,5.52-1.38,8.18a36,36,0,0,1-2.53,8,31.2,31.2,0,0,1-4.76,7.83c-1.62,1.83-3.8,3.86-3.74,6.51,0,.5-.9,2.22-.39,2.3,3.09.47,6.93-3.5,8.81-5.6a29.18,29.18,0,0,0,5.42-9.12,27.43,27.43,0,0,0,2-9.53A18.16,18.16,0,0,0,53.2-7.53.64.64,0,0,0,52-7.32Z" transform="translate(21.11 7.89)"/></g><path class="cls-2" d="M70,24.55c-2.05-2.05-6-2.42-8.79-2.82a41.87,41.87,0,0,0-11.93.46A30.87,30.87,0,0,0,35.83,27c-3.75,2.6-7.58,7.39-6.43,12.23a5.48,5.48,0,0,0,9.79,2.14c1.78-2.29,2.15-5.12,4.26-7.25,2.39-2.4,5.85-4,8.91-5.34,2.69-1.17,5.26-2.56,8-3.61a12.74,12.74,0,0,1,5.13-1c1.47.09,2.84.66,4.31.74.2,0,.37-.24.21-.4Z" transform="translate(21.11 7.89)"/><g class="cls-8"><path class="cls-9" d="M42.78,35.32c5.5-1.28,10.67-3.9,16-5.89a15.31,15.31,0,0,1,7.79-1.15c2.46.34,4.8,1.75,7.31,1.28A2,2,0,0,0,75,26.4c-1.72-2.15-5-2.66-7.6-3a18.77,18.77,0,0,0-9,1.05,56.51,56.51,0,0,0-9.76,4.45c-2.71,1.57-5.16,2.9-6.33,5.86a.45.45,0,0,0,.49.58Z" transform="translate(21.11 7.89)"/><g class="cls-10"><path class="cls-11" d="M35.37,30.39c3-.34,5.61-2.09,8.29-3.3a43.3,43.3,0,0,1,9.73-3.18,31.35,31.35,0,0,1,8.48-.52c2.94.23,5.58,1.34,8.45,1.78,2.24.34,3.21-2.82,1.45-4-5-3.4-13.14-3.09-18.79-2.08a43.71,43.71,0,0,0-10.45,3.38c-3,1.4-6.58,3.09-8.38,6a1.24,1.24,0,0,0,1.22,1.91Z" transform="translate(21.11 7.89)"/></g></g><path class="cls-12" d="M36.3,69a4.77,4.77,0,0,0,1.51,1.79,5.17,5.17,0,0,0,3.87.45,6,6,0,0,0,3.21-1.54,7.29,7.29,0,0,0,1.57-4.06c.34-2.3-.48-3.6-2.27-5-1.25-.94-2.72-1.87-4.36-1.53C35.44,60,34.48,65.53,36.3,69Z" transform="translate(21.11 7.89)"/><path class="cls-13" d="M38.62,66.64a2.91,2.91,0,0,0,1,1.15,3.28,3.28,0,0,0,2.48.29,3.83,3.83,0,0,0,2.06-1,4.66,4.66,0,0,0,1-2.6,3,3,0,0,0-1.46-3.18,3.57,3.57,0,0,0-2.79-1C38.07,60.9,37.45,64.45,38.62,66.64Z" transform="translate(21.11 7.89)"/><path class="cls-13" d="M40.41,65.11a1.62,1.62,0,0,0,.51.59,1.67,1.67,0,0,0,1.28.15,2,2,0,0,0,1.07-.51A2.36,2.36,0,0,0,43.79,64,1.56,1.56,0,0,0,43,62.34a1.85,1.85,0,0,0-1.45-.51C40.13,62.13,39.81,64,40.41,65.11Z" transform="translate(21.11 7.89)"/><path class="cls-12" d="M38.31,61.51a5.23,5.23,0,0,0,1.61,1.91A5.55,5.55,0,0,0,44,63.9a6.4,6.4,0,0,0,3.41-1.65,7.65,7.65,0,0,0,1.67-4.31c.37-2.45-.5-3.83-2.41-5.28-1.32-1-2.89-2-4.63-1.63C37.4,52,36.38,57.88,38.31,61.51Z" transform="translate(21.11 7.89)"/><path class="cls-13" d="M40.78,59.06a3.11,3.11,0,0,0,1,1.22,3.54,3.54,0,0,0,2.64.31,4.09,4.09,0,0,0,2.19-1.05,5,5,0,0,0,1.07-2.77,3.2,3.2,0,0,0-1.55-3.38,3.76,3.76,0,0,0-3-1C40.19,53,39.54,56.73,40.78,59.06Z" transform="translate(21.11 7.89)"/><path class="cls-13" d="M42.69,57.43a1.71,1.71,0,0,0,.53.63,1.85,1.85,0,0,0,1.37.16,2,2,0,0,0,1.13-.55,2.48,2.48,0,0,0,.56-1.43,1.68,1.68,0,0,0-.8-1.76,2,2,0,0,0-1.54-.54C42.38,54.26,42.05,56.22,42.69,57.43Z" transform="translate(21.11 7.89)"/><path class="cls-12" d="M16.86,72.9a4.69,4.69,0,0,0,1.51,1.79,5.12,5.12,0,0,0,3.87.45,6,6,0,0,0,3.21-1.54A7.26,7.26,0,0,0,27,69.54c.34-2.3-.48-3.6-2.27-5C23.5,63.63,22,62.71,20.4,63,16,63.94,15.05,69.48,16.86,72.9Z" transform="translate(21.11 7.89)"/><path class="cls-13" d="M19.18,70.6a3.15,3.15,0,0,0,1,1.15,3.37,3.37,0,0,0,2.48.29,3.94,3.94,0,0,0,2.06-1,4.64,4.64,0,0,0,1-2.6,3,3,0,0,0-1.46-3.19,3.55,3.55,0,0,0-2.79-1C18.63,64.85,18,68.41,19.18,70.6Z" transform="translate(21.11 7.89)"/><path class="cls-13" d="M21,69.06a1.61,1.61,0,0,0,.5.6,1.77,1.77,0,0,0,1.28.15,2,2,0,0,0,1.07-.52,2.36,2.36,0,0,0,.52-1.35,1.55,1.55,0,0,0-.75-1.65,1.89,1.89,0,0,0-1.45-.51C20.69,66.08,20.37,67.92,21,69.06Z" transform="translate(21.11 7.89)"/><path class="cls-12" d="M22.12,57.94a4.7,4.7,0,0,0,1.5,1.8,5.23,5.23,0,0,0,3.87.45,6,6,0,0,0,3.21-1.54,7.22,7.22,0,0,0,1.57-4.06c.34-2.3-.47-3.6-2.27-5-1.24-.94-2.72-1.87-4.35-1.53C21.26,49,20.3,54.53,22.12,57.94Z" transform="translate(21.11 7.89)"/><path class="cls-13" d="M24.43,55.64a3,3,0,0,0,1,1.15,3.31,3.31,0,0,0,2.48.29,3.83,3.83,0,0,0,2.06-1,4.65,4.65,0,0,0,1-2.6,3,3,0,0,0-1.45-3.18,3.58,3.58,0,0,0-2.79-1C23.88,49.9,23.27,53.45,24.43,55.64Z" transform="translate(21.11 7.89)"/><path class="cls-13" d="M26.23,54.11a1.51,1.51,0,0,0,.5.59,1.69,1.69,0,0,0,1.29.15,2,2,0,0,0,1.07-.51A2.44,2.44,0,0,0,29.61,53a1.57,1.57,0,0,0-.76-1.65,1.82,1.82,0,0,0-1.44-.51C25.94,51.13,25.63,53,26.23,54.11Z" transform="translate(21.11 7.89)"/><path class="cls-12" d="M39.19,47A5.71,5.71,0,0,0,41,49.11a6.18,6.18,0,0,0,4.6.54,7.22,7.22,0,0,0,3.81-1.84A8.64,8.64,0,0,0,51.27,43c.41-2.74-.56-4.29-2.7-5.91-1.48-1.13-3.24-2.22-5.17-1.83C38.17,36.32,37,42.92,39.19,47Z" transform="translate(21.11 7.89)"/><path class="cls-13" d="M42,44.24a3.56,3.56,0,0,0,1.15,1.37A3.92,3.92,0,0,0,46,46a4.52,4.52,0,0,0,2.45-1.18,5.53,5.53,0,0,0,1.2-3.09A3.59,3.59,0,0,0,48,37.89a4.27,4.27,0,0,0-3.32-1.17C41.29,37.41,40.56,41.64,42,44.24Z" transform="translate(21.11 7.89)"/><path class="cls-13" d="M44.08,42.41a1.89,1.89,0,0,0,.6.71,2.07,2.07,0,0,0,1.53.18,2.37,2.37,0,0,0,1.27-.61,2.85,2.85,0,0,0,.62-1.61,1.85,1.85,0,0,0-.9-2,2.21,2.21,0,0,0-1.72-.61C43.75,38.87,43.37,41.06,44.08,42.41Z" transform="translate(21.11 7.89)"/><path class="cls-12" d="M13.39,54.61A4.69,4.69,0,0,0,14.9,56.4a5.17,5.17,0,0,0,3.87.45A5.91,5.91,0,0,0,22,55.31a7.27,7.27,0,0,0,1.58-4.06c.34-2.3-.48-3.6-2.27-5-1.25-.94-2.73-1.86-4.36-1.53C12.53,45.65,11.57,51.19,13.39,54.61Z" transform="translate(21.11 7.89)"/><path class="cls-13" d="M15.7,52.31a3.18,3.18,0,0,0,1,1.15,3.31,3.31,0,0,0,2.48.28,3.89,3.89,0,0,0,2.06-1,4.72,4.72,0,0,0,1-2.6A3,3,0,0,0,20.76,47,3.53,3.53,0,0,0,18,46C15.15,46.56,14.54,50.12,15.7,52.31Z" transform="translate(21.11 7.89)"/><path class="cls-13" d="M17.5,50.77a1.83,1.83,0,0,0,.5.6,1.79,1.79,0,0,0,1.29.15A2,2,0,0,0,20.36,51a2.36,2.36,0,0,0,.52-1.35A1.57,1.57,0,0,0,20.13,48a1.89,1.89,0,0,0-1.45-.51C17.22,47.79,16.9,49.63,17.5,50.77Z" transform="translate(21.11 7.89)"/><path class="cls-12" d="M33.7,59.45a5,5,0,0,0,1.6,1.91,5.53,5.53,0,0,0,4.12.48,6.35,6.35,0,0,0,3.41-1.64,7.72,7.72,0,0,0,1.67-4.31c.36-2.45-.51-3.84-2.41-5.29-1.33-1-2.9-2-4.63-1.63C32.79,49.93,31.77,55.82,33.7,59.45Z" transform="translate(21.11 7.89)"/><path class="cls-13" d="M36.16,57a3.29,3.29,0,0,0,1,1.22,3.54,3.54,0,0,0,2.64.31A4,4,0,0,0,42,57.48a4.91,4.91,0,0,0,1.08-2.76,3.22,3.22,0,0,0-1.55-3.39,3.81,3.81,0,0,0-3-1C35.58,50.9,34.92,54.68,36.16,57Z" transform="translate(21.11 7.89)"/><path class="cls-13" d="M38.07,55.37a1.67,1.67,0,0,0,.54.64,1.82,1.82,0,0,0,1.36.16,2.18,2.18,0,0,0,1.14-.55,2.61,2.61,0,0,0,.56-1.43,1.66,1.66,0,0,0-.81-1.76,1.94,1.94,0,0,0-1.54-.54C37.77,52.2,37.43,54.16,38.07,55.37Z" transform="translate(21.11 7.89)"/><path class="cls-12" d="M8.87,68a4.09,4.09,0,0,0-.18,2,4.43,4.43,0,0,0,2,2.6,5.06,5.06,0,0,0,2.85,1A6.06,6.06,0,0,0,17,72.14c1.59-1.16,1.9-2.43,1.65-4.33a4.73,4.73,0,0,0-1.67-3.54C13.77,62.15,9.85,64.88,8.87,68Z" transform="translate(21.11 7.89)"/><path class="cls-13" d="M11.64,68a2.62,2.62,0,0,0-.12,1.27A2.85,2.85,0,0,0,12.83,71a3.23,3.23,0,0,0,1.82.65,3.93,3.93,0,0,0,2.17-.94,2.56,2.56,0,0,0,1.06-2.78,3,3,0,0,0-1.07-2.27C14.78,64.28,12.27,66,11.64,68Z" transform="translate(21.11 7.89)"/><path class="cls-13" d="M13.64,68.21a1.35,1.35,0,0,0-.06.66,1.45,1.45,0,0,0,.68.86,1.64,1.64,0,0,0,.94.34,2.05,2.05,0,0,0,1.13-.49,1.33,1.33,0,0,0,.55-1.44A1.59,1.59,0,0,0,16.32,67C15.27,66.26,14,67.17,13.64,68.21Z" transform="translate(21.11 7.89)"/><path class="cls-14" d="M5.26,65.5A4,4,0,0,0,6.54,67a4.37,4.37,0,0,0,3.28.39,5.22,5.22,0,0,0,2.72-1.31,6.2,6.2,0,0,0,1.34-3.45c.29-1.95-.41-3-1.93-4.21a4.7,4.7,0,0,0-3.69-1.3C4.53,57.9,3.72,62.6,5.26,65.5Z" transform="translate(21.11 7.89)"/><path class="cls-15" d="M7.22,63.55a2.68,2.68,0,0,0,.82,1,2.85,2.85,0,0,0,2.11.25,3.27,3.27,0,0,0,1.74-.84,3.92,3.92,0,0,0,.86-2.21A2.56,2.56,0,0,0,11.51,59a3,3,0,0,0-2.36-.83C6.76,58.67,6.24,61.69,7.22,63.55Z" transform="translate(21.11 7.89)"/><path class="cls-15" d="M8.75,62.24a1.25,1.25,0,0,0,.43.51,1.46,1.46,0,0,0,1.09.13,1.67,1.67,0,0,0,.9-.44,2,2,0,0,0,.45-1.14A1.36,1.36,0,0,0,11,59.89a1.63,1.63,0,0,0-1.23-.43C8.51,59.72,8.24,61.28,8.75,62.24Z" transform="translate(21.11 7.89)"/><path class="cls-16" d="M12.16,65.22a4,4,0,0,0,1.28,1.52,4.32,4.32,0,0,0,3.28.38,5.08,5.08,0,0,0,2.72-1.31,6.14,6.14,0,0,0,1.34-3.44c.29-1.95-.41-3.06-1.93-4.21a4.72,4.72,0,0,0-3.69-1.31C11.43,57.62,10.62,62.32,12.16,65.22Z" transform="translate(21.11 7.89)"/><path class="cls-17" d="M14.12,63.27a2.66,2.66,0,0,0,.82,1,2.85,2.85,0,0,0,2.11.25,3.27,3.27,0,0,0,1.74-.84,4,4,0,0,0,.86-2.21,2.56,2.56,0,0,0-1.24-2.7,3,3,0,0,0-2.36-.84C13.66,58.39,13.14,61.41,14.12,63.27Z" transform="translate(21.11 7.89)"/><path class="cls-17" d="M15.65,62a1.31,1.31,0,0,0,.42.51,1.44,1.44,0,0,0,1.1.12,1.65,1.65,0,0,0,.9-.43A2.09,2.09,0,0,0,18.52,61a1.34,1.34,0,0,0-.65-1.4,1.59,1.59,0,0,0-1.22-.43C15.41,59.43,15.14,61,15.65,62Z" transform="translate(21.11 7.89)"/><path class="cls-2" d="M37.07,5c-1.82,5.05-1.9,10.56-2.8,15.83-.45,2.63-1.12,5.2-1.72,7.8-.65,2.85-1.58,5.73-.26,8.51a3,3,0,0,0,4.63,1c4.18-3.56,3.26-11.78,3.34-16.77.08-5.46.27-11.34-2-16.42A.66.66,0,0,0,37.07,5Z" transform="translate(21.11 7.89)"/><g class="cls-18"><path class="cls-19" d="M36.91-2c.73,5.17,1.9,10.11,2.18,15.36.13,2.41.21,4.85.1,7.27s-.86,5-.59,7.49a2.21,2.21,0,0,0,4,.87c2.64-4.25,1.82-11.24,1.25-16a66.09,66.09,0,0,0-1.33-8.28,13.5,13.5,0,0,0-4.56-7.19.59.59,0,0,0-1,.48Z" transform="translate(21.11 7.89)"/><path class="cls-11" d="M36.17-.6c-2,.73-2.31,3.9-2.61,5.7-.51,3-.83,6.06-1.37,9.08s-1,5.87-1.71,8.78-1.49,5.78-.64,8.65a1.19,1.19,0,0,0,1.92.69c2.48-2.09,3.3-5.36,4-8.4a103,103,0,0,0,1.94-10.14c.17-1.37,2-15.62-1.54-14.36Z" transform="translate(21.11 7.89)"/></g><path class="cls-12" d="M15.83,77.51A4,4,0,0,0,17.11,79a4.37,4.37,0,0,0,3.28.39,5.22,5.22,0,0,0,2.72-1.31,6.2,6.2,0,0,0,1.34-3.45c.29-2-.41-3-1.93-4.21-1.06-.8-2.31-1.59-3.69-1.3C15.1,69.91,14.29,74.61,15.83,77.51Z" transform="translate(21.11 7.89)"/><path class="cls-13" d="M17.79,75.56a2.68,2.68,0,0,0,.82,1,2.85,2.85,0,0,0,2.11.25,3.27,3.27,0,0,0,1.74-.84,3.92,3.92,0,0,0,.86-2.21A2.56,2.56,0,0,0,22.08,71a3,3,0,0,0-2.36-.83C17.33,70.68,16.81,73.7,17.79,75.56Z" transform="translate(21.11 7.89)"/><path class="cls-13" d="M19.32,74.25a1.31,1.31,0,0,0,.42.51,1.49,1.49,0,0,0,1.1.13,1.67,1.67,0,0,0,.9-.44,2.09,2.09,0,0,0,.45-1.14,1.35,1.35,0,0,0-.65-1.41,1.59,1.59,0,0,0-1.22-.43C19.08,71.72,18.81,73.29,19.32,74.25Z" transform="translate(21.11 7.89)"/><path class="cls-12" d="M19.28,69.29a4.77,4.77,0,0,0,1.51,1.79,5.17,5.17,0,0,0,3.87.45A5.91,5.91,0,0,0,27.86,70a7.27,7.27,0,0,0,1.58-4.06c.34-2.3-.48-3.6-2.27-5-1.25-.94-2.73-1.86-4.36-1.53C18.42,60.33,17.46,65.87,19.28,69.29Z" transform="translate(21.11 7.89)"/><path class="cls-13" d="M21.59,67a3.18,3.18,0,0,0,1,1.15,3.31,3.31,0,0,0,2.48.28,3.89,3.89,0,0,0,2.06-1,4.72,4.72,0,0,0,1-2.6,3,3,0,0,0-1.46-3.19,3.53,3.53,0,0,0-2.79-1C21,61.24,20.43,64.8,21.59,67Z" transform="translate(21.11 7.89)"/><path class="cls-13" d="M23.39,65.45a1.83,1.83,0,0,0,.5.6,1.79,1.79,0,0,0,1.29.15,2,2,0,0,0,1.07-.52,2.36,2.36,0,0,0,.52-1.35A1.57,1.57,0,0,0,26,62.68a1.89,1.89,0,0,0-1.45-.51C23.11,62.47,22.79,64.31,23.39,65.45Z" transform="translate(21.11 7.89)"/><path class="cls-14" d="M25.22,77.31a4.8,4.8,0,0,0,1.51,1.8,5.21,5.21,0,0,0,3.87.45A6,6,0,0,0,33.8,78,7.24,7.24,0,0,0,35.38,74c.34-2.3-.48-3.61-2.27-5-1.25-.95-2.73-1.87-4.36-1.53C24.36,68.35,23.4,73.9,25.22,77.31Z" transform="translate(21.11 7.89)"/><path class="cls-15" d="M27.53,75a3.1,3.1,0,0,0,1,1.15,3.31,3.31,0,0,0,2.48.29,3.83,3.83,0,0,0,2.06-1,4.66,4.66,0,0,0,1-2.6,3,3,0,0,0-1.46-3.18,3.57,3.57,0,0,0-2.79-1C27,69.27,26.37,72.82,27.53,75Z" transform="translate(21.11 7.89)"/><path class="cls-15" d="M29.33,73.47a1.64,1.64,0,0,0,.5.6,1.7,1.7,0,0,0,1.29.15,2,2,0,0,0,1.07-.51,2.42,2.42,0,0,0,.52-1.35A1.57,1.57,0,0,0,32,70.71a1.82,1.82,0,0,0-1.45-.51C29.05,70.49,28.73,72.34,29.33,73.47Z" transform="translate(21.11 7.89)"/><path class="cls-16" d="M28.21,69.38a4.69,4.69,0,0,0,1.51,1.79,5.15,5.15,0,0,0,3.86.45,5.9,5.9,0,0,0,3.21-1.54A7.19,7.19,0,0,0,38.36,66c.34-2.3-.47-3.6-2.27-5-1.24-.94-2.72-1.86-4.35-1.53C27.35,60.42,26.39,66,28.21,69.38Z" transform="translate(21.11 7.89)"/><path class="cls-17" d="M30.52,67.08a3.18,3.18,0,0,0,1,1.15,3.36,3.36,0,0,0,2.48.29,4,4,0,0,0,2.06-1,4.63,4.63,0,0,0,1-2.6,3,3,0,0,0-1.45-3.19,3.54,3.54,0,0,0-2.79-1C30,61.33,29.36,64.89,30.52,67.08Z" transform="translate(21.11 7.89)"/><path class="cls-17" d="M32.32,65.54a1.61,1.61,0,0,0,.5.6,1.79,1.79,0,0,0,1.29.15,2,2,0,0,0,1.07-.52,2.36,2.36,0,0,0,.52-1.35,1.57,1.57,0,0,0-.76-1.65,1.85,1.85,0,0,0-1.44-.51C32,62.56,31.72,64.4,32.32,65.54Z" transform="translate(21.11 7.89)"/><path class="cls-12" d="M34.36,75.51a4.87,4.87,0,0,0,1.5,1.8,5.23,5.23,0,0,0,3.87.45,6,6,0,0,0,3.21-1.55,7.18,7.18,0,0,0,1.57-4c.34-2.31-.47-3.61-2.27-5-1.24-1-2.72-1.87-4.35-1.54C33.5,66.55,32.54,72.1,34.36,75.51Z" transform="translate(21.11 7.89)"/><path class="cls-13" d="M36.67,73.21a3.1,3.1,0,0,0,1,1.15,3.31,3.31,0,0,0,2.48.29,3.83,3.83,0,0,0,2.06-1,4.68,4.68,0,0,0,1-2.6,3,3,0,0,0-1.45-3.19,3.61,3.61,0,0,0-2.79-1C36.12,67.47,35.51,71,36.67,73.21Z" transform="translate(21.11 7.89)"/><path class="cls-13" d="M38.47,71.67a1.61,1.61,0,0,0,.5.6,1.79,1.79,0,0,0,1.29.15,2,2,0,0,0,1.07-.52,2.43,2.43,0,0,0,.52-1.34,1.58,1.58,0,0,0-.76-1.66,1.85,1.85,0,0,0-1.44-.51C38.18,68.69,37.87,70.54,38.47,71.67Z" transform="translate(21.11 7.89)"/><path class="cls-12" d="M46.62,39.8A4.57,4.57,0,0,0,48,41.49a4.93,4.93,0,0,0,3.63.42,5.68,5.68,0,0,0,3-1.45,6.76,6.76,0,0,0,1.47-3.81c.32-2.16-.44-3.38-2.13-4.66-1.16-.89-2.55-1.76-4.08-1.44C45.81,31.39,44.92,36.6,46.62,39.8Z" transform="translate(21.11 7.89)"/><path class="cls-13" d="M48.79,37.64a3,3,0,0,0,.91,1.08A3.12,3.12,0,0,0,52,39,3.61,3.61,0,0,0,54,38.06a4.38,4.38,0,0,0,.95-2.44,2.84,2.84,0,0,0-1.37-3,3.35,3.35,0,0,0-2.62-.92C48.28,32.25,47.7,35.58,48.79,37.64Z" transform="translate(21.11 7.89)"/><path class="cls-13" d="M50.48,36.2a1.7,1.7,0,0,0,.47.56,1.63,1.63,0,0,0,1.21.14,1.91,1.91,0,0,0,1-.48,2.24,2.24,0,0,0,.49-1.27,1.46,1.46,0,0,0-.71-1.55,1.72,1.72,0,0,0-1.35-.48C50.21,33.4,49.92,35.13,50.48,36.2Z" transform="translate(21.11 7.89)"/><path class="cls-14" d="M23.62,26.26A4.57,4.57,0,0,0,25,28a4.93,4.93,0,0,0,3.63.42,5.64,5.64,0,0,0,3-1.45,6.84,6.84,0,0,0,1.48-3.81c.32-2.16-.45-3.38-2.13-4.66-1.17-.89-2.56-1.76-4.09-1.44C22.82,17.85,21.92,23.05,23.62,26.26Z" transform="translate(21.11 7.89)"/><path class="cls-15" d="M25.8,24.1a2.87,2.87,0,0,0,.9,1.08,3.13,3.13,0,0,0,2.33.27A3.61,3.61,0,0,0,31,24.52a4.3,4.3,0,0,0,.95-2.44,2.84,2.84,0,0,0-1.37-3,3.35,3.35,0,0,0-2.62-.92C25.28,18.71,24.7,22,25.8,24.1Z" transform="translate(21.11 7.89)"/><path class="cls-15" d="M27.48,22.66a1.34,1.34,0,0,0,1.68.7,1.91,1.91,0,0,0,1-.48,2.24,2.24,0,0,0,.49-1.27,1.45,1.45,0,0,0-.7-1.55,1.74,1.74,0,0,0-1.36-.48C27.22,19.86,26.92,21.59,27.48,22.66Z" transform="translate(21.11 7.89)"/><path class="cls-12" d="M15.34,28.24a4.34,4.34,0,0,0,1.41,1.68,4.9,4.9,0,0,0,3.63.43,5.71,5.71,0,0,0,3-1.45,6.77,6.77,0,0,0,1.48-3.81c.32-2.16-.45-3.38-2.13-4.66-1.17-.89-2.56-1.76-4.09-1.44C14.53,19.83,13.63,25,15.34,28.24Z" transform="translate(21.11 7.89)"/><path class="cls-13" d="M17.51,26.08a2.81,2.81,0,0,0,.91,1.08,3.1,3.1,0,0,0,2.32.27,3.64,3.64,0,0,0,1.94-.93,4.37,4.37,0,0,0,.94-2.44,2.81,2.81,0,0,0-1.36-3,3.35,3.35,0,0,0-2.62-.92C17,20.69,16.42,24,17.51,26.08Z" transform="translate(21.11 7.89)"/><path class="cls-13" d="M19.2,24.63a1.44,1.44,0,0,0,.47.57,1.68,1.68,0,0,0,1.21.14,1.89,1.89,0,0,0,1-.49,2.25,2.25,0,0,0,.49-1.26A1.47,1.47,0,0,0,21.66,22a1.71,1.71,0,0,0-1.36-.48C18.93,21.84,18.63,23.57,19.2,24.63Z" transform="translate(21.11 7.89)"/><path class="cls-12" d="M36,63.94a5.06,5.06,0,0,0,1.61,1.91,5.5,5.5,0,0,0,4.11.48,6.39,6.39,0,0,0,3.41-1.64,7.68,7.68,0,0,0,1.67-4.32c.36-2.44-.5-3.83-2.41-5.28-1.33-1-2.9-2-4.63-1.63C35.09,54.41,34.07,60.31,36,63.94Z" transform="translate(21.11 7.89)"/><path class="cls-13" d="M38.46,61.49a3.33,3.33,0,0,0,1,1.23,3.54,3.54,0,0,0,2.64.3A4.13,4.13,0,0,0,44.32,62a5,5,0,0,0,1.07-2.76,3.22,3.22,0,0,0-1.55-3.39,3.82,3.82,0,0,0-3-1C37.88,55.39,37.23,59.16,38.46,61.49Z" transform="translate(21.11 7.89)"/><path class="cls-13" d="M40.38,59.86a1.71,1.71,0,0,0,.53.63,1.85,1.85,0,0,0,1.37.16,2.1,2.1,0,0,0,1.13-.54A2.61,2.61,0,0,0,44,58.67a1.68,1.68,0,0,0-.8-1.76,2,2,0,0,0-1.54-.54C40.07,56.69,39.73,58.65,40.38,59.86Z" transform="translate(21.11 7.89)"/><path class="cls-12" d="M42.48,69.15a5.23,5.23,0,0,0,1.61,1.91,5.5,5.5,0,0,0,4.11.47,6.32,6.32,0,0,0,3.41-1.64,7.65,7.65,0,0,0,1.67-4.31c.37-2.45-.5-3.83-2.41-5.28-1.32-1-2.89-2-4.63-1.63C41.57,59.62,40.55,65.52,42.48,69.15Z" transform="translate(21.11 7.89)"/><path class="cls-20" d="M45,66.7a3.28,3.28,0,0,0,1,1.22,3.54,3.54,0,0,0,2.64.31,4.09,4.09,0,0,0,2.19-1,5,5,0,0,0,1.07-2.77A3.19,3.19,0,0,0,50.32,61a3.76,3.76,0,0,0-3-1.05C44.36,60.59,43.71,64.37,45,66.7Z" transform="translate(21.11 7.89)"/><path class="cls-20" d="M46.86,65.07a1.71,1.71,0,0,0,.53.63,1.85,1.85,0,0,0,1.37.16,2,2,0,0,0,1.13-.55,2.51,2.51,0,0,0,.56-1.43,1.67,1.67,0,0,0-.8-1.76,2,2,0,0,0-1.54-.54C46.55,61.9,46.22,63.86,46.86,65.07Z" transform="translate(21.11 7.89)"/><path class="cls-21" d="M25.27,62.61a4.77,4.77,0,0,0,1.51,1.79,5.17,5.17,0,0,0,3.87.45,5.91,5.91,0,0,0,3.2-1.54,7.23,7.23,0,0,0,1.58-4.06c.34-2.3-.48-3.6-2.27-5-1.25-.94-2.73-1.86-4.36-1.53C24.41,53.65,23.45,59.19,25.27,62.61Z" transform="translate(21.11 7.89)"/><path class="cls-22" d="M27.59,60.3a3,3,0,0,0,1,1.16,3.32,3.32,0,0,0,2.48.28,3.83,3.83,0,0,0,2.06-1,4.66,4.66,0,0,0,1-2.6A3,3,0,0,0,32.64,55a3.53,3.53,0,0,0-2.79-1C27,54.56,26.42,58.12,27.59,60.3Z" transform="translate(21.11 7.89)"/><path class="cls-22" d="M29.38,58.77a1.62,1.62,0,0,0,.51.59,1.67,1.67,0,0,0,1.28.15A2,2,0,0,0,32.24,59a2.36,2.36,0,0,0,.52-1.35A1.57,1.57,0,0,0,32,56a1.89,1.89,0,0,0-1.45-.51C29.1,55.79,28.78,57.63,29.38,58.77Z" transform="translate(21.11 7.89)"/><path class="cls-23" d="M16.55,60a4.69,4.69,0,0,0,1.51,1.79,5.15,5.15,0,0,0,3.86.45,5.9,5.9,0,0,0,3.21-1.54,7.27,7.27,0,0,0,1.58-4.06c.34-2.3-.48-3.6-2.27-5-1.25-1-2.73-1.87-4.36-1.54C15.69,51,14.73,56.57,16.55,60Z" transform="translate(21.11 7.89)"/><path class="cls-24" d="M18.86,57.69a3.18,3.18,0,0,0,1,1.15,3.36,3.36,0,0,0,2.48.29,4,4,0,0,0,2.06-1,4.72,4.72,0,0,0,1-2.6,3,3,0,0,0-1.46-3.19,3.53,3.53,0,0,0-2.79-1C18.31,51.94,17.7,55.5,18.86,57.69Z" transform="translate(21.11 7.89)"/><path class="cls-24" d="M20.66,56.15a1.71,1.71,0,0,0,.5.6,1.79,1.79,0,0,0,1.29.15,2,2,0,0,0,1.07-.52A2.36,2.36,0,0,0,24,55a1.58,1.58,0,0,0-.75-1.65,1.89,1.89,0,0,0-1.45-.51C20.38,53.17,20.06,55,20.66,56.15Z" transform="translate(21.11 7.89)"/><path class="cls-12" d="M.87,58.29a4.69,4.69,0,0,0,1.51,1.79,5.17,5.17,0,0,0,3.87.45A5.91,5.91,0,0,0,9.45,59,7.2,7.2,0,0,0,11,54.93c.34-2.3-.48-3.6-2.27-5C7.51,49,6,48.1,4.4,48.43,0,49.33-.95,54.87.87,58.29Z" transform="translate(21.11 7.89)"/><path class="cls-13" d="M3.19,56a3.06,3.06,0,0,0,1,1.15,3.32,3.32,0,0,0,2.48.28,3.89,3.89,0,0,0,2.06-1,4.72,4.72,0,0,0,1-2.6,3,3,0,0,0-1.46-3.19,3.53,3.53,0,0,0-2.79-1C2.64,50.24,2,53.8,3.19,56Z" transform="translate(21.11 7.89)"/><path class="cls-13" d="M5,54.45a1.74,1.74,0,0,0,.51.6,1.77,1.77,0,0,0,1.28.15,2,2,0,0,0,1.07-.52,2.36,2.36,0,0,0,.52-1.35,1.56,1.56,0,0,0-.75-1.65,1.89,1.89,0,0,0-1.45-.51C4.7,51.47,4.38,53.31,5,54.45Z" transform="translate(21.11 7.89)"/><path class="cls-12" d="M7.51,56.89A4.8,4.8,0,0,0,9,58.69a5.21,5.21,0,0,0,3.87.45,6.06,6.06,0,0,0,3.21-1.55,7.23,7.23,0,0,0,1.57-4.05c.34-2.3-.48-3.61-2.27-5-1.25-1-2.72-1.87-4.36-1.54C6.65,47.93,5.69,53.48,7.51,56.89Z" transform="translate(21.11 7.89)"/><path class="cls-13" d="M9.83,54.59a3,3,0,0,0,1,1.15,3.33,3.33,0,0,0,2.48.29,3.83,3.83,0,0,0,2.06-1,4.69,4.69,0,0,0,1-2.6,3,3,0,0,0-1.46-3.19,3.6,3.6,0,0,0-2.79-1C9.28,48.85,8.66,52.4,9.83,54.59Z" transform="translate(21.11 7.89)"/><path class="cls-13" d="M11.62,53.05a1.65,1.65,0,0,0,.51.6,1.72,1.72,0,0,0,1.28.15,2,2,0,0,0,1.07-.51A2.42,2.42,0,0,0,15,51.94a1.55,1.55,0,0,0-.75-1.65,1.86,1.86,0,0,0-1.45-.52C11.34,50.07,11,51.92,11.62,53.05Z" transform="translate(21.11 7.89)"/><path class="cls-12" d="M26.85,55.05a5.51,5.51,0,0,0,1.74,2.08,6,6,0,0,0,4.48.52,6.92,6.92,0,0,0,3.72-1.79,8.36,8.36,0,0,0,1.82-4.69C39,48.5,38.06,47,36,45.41c-1.44-1.09-3.15-2.16-5-1.77C25.85,44.68,24.74,51.1,26.85,55.05Z" transform="translate(21.11 7.89)"/><path class="cls-13" d="M29.53,52.39a3.52,3.52,0,0,0,1.12,1.33,3.84,3.84,0,0,0,2.87.33,4.43,4.43,0,0,0,2.38-1.14,5.36,5.36,0,0,0,1.17-3,3.49,3.49,0,0,0-1.69-3.69,4.09,4.09,0,0,0-3.23-1.14C28.89,45.74,28.18,49.85,29.53,52.39Z" transform="translate(21.11 7.89)"/><path class="cls-13" d="M31.61,50.61a1.93,1.93,0,0,0,.58.69,2,2,0,0,0,1.49.17,2.32,2.32,0,0,0,1.24-.59,2.78,2.78,0,0,0,.6-1.57,1.81,1.81,0,0,0-.87-1.91A2.16,2.16,0,0,0,33,46.81C31.28,47.16,30.91,49.29,31.61,50.61Z" transform="translate(21.11 7.89)"/><path class="cls-16" d="M36.84,38a5.77,5.77,0,0,0,1.81,2.16,6.2,6.2,0,0,0,4.66.54,7.18,7.18,0,0,0,3.85-1.85,8.71,8.71,0,0,0,1.9-4.88c.41-2.77-.57-4.34-2.73-6-1.5-1.14-3.28-2.24-5.24-1.84C35.81,27.18,34.66,33.85,36.84,38Z" transform="translate(21.11 7.89)"/><path class="cls-17" d="M39.63,35.18a3.64,3.64,0,0,0,1.16,1.39,4,4,0,0,0,3,.35,4.66,4.66,0,0,0,2.47-1.19,5.61,5.61,0,0,0,1.22-3.13,3.63,3.63,0,0,0-1.75-3.83,4.33,4.33,0,0,0-3.36-1.19C39,28.28,38.23,32.55,39.63,35.18Z" transform="translate(21.11 7.89)"/><path class="cls-17" d="M41.79,33.34a2,2,0,0,0,.6.71,2,2,0,0,0,1.55.18,2.4,2.4,0,0,0,1.28-.61A2.92,2.92,0,0,0,45.85,32a1.86,1.86,0,0,0-.91-2,2.24,2.24,0,0,0-1.74-.62C41.44,29.75,41.06,32,41.79,33.34Z" transform="translate(21.11 7.89)"/><path class="cls-12" d="M45.45,48.67a5.27,5.27,0,0,0,1.69,2,5.88,5.88,0,0,0,4.35.51,6.77,6.77,0,0,0,3.6-1.74,8,8,0,0,0,1.76-4.55c.39-2.59-.53-4-2.54-5.58-1.4-1.07-3.06-2.1-4.89-1.73C44.48,38.61,43.41,44.84,45.45,48.67Z" transform="translate(21.11 7.89)"/><path class="cls-20" d="M48.05,46.09a3.48,3.48,0,0,0,1.08,1.29,3.78,3.78,0,0,0,2.79.33,4.3,4.3,0,0,0,2.31-1.12,5.18,5.18,0,0,0,1.13-2.92,3.37,3.37,0,0,0-1.63-3.57A4,4,0,0,0,50.59,39C47.43,39.64,46.74,43.63,48.05,46.09Z" transform="translate(21.11 7.89)"/><path class="cls-20" d="M50.07,44.36a1.74,1.74,0,0,0,.56.67,1.91,1.91,0,0,0,1.45.17,2.19,2.19,0,0,0,1.19-.58,2.62,2.62,0,0,0,.59-1.51A1.76,1.76,0,0,0,53,41.25a2.09,2.09,0,0,0-1.62-.57C49.75,41,49.39,43.09,50.07,44.36Z" transform="translate(21.11 7.89)"/><path class="cls-16" d="M46.55,59.8a5.61,5.61,0,0,0,1.75,2.08,6,6,0,0,0,4.48.52,7,7,0,0,0,3.72-1.79,8.39,8.39,0,0,0,1.82-4.7c.39-2.66-.55-4.17-2.63-5.75-1.44-1.1-3.15-2.16-5-1.78C45.56,49.42,44.45,55.84,46.55,59.8Z" transform="translate(21.11 7.89)"/><path class="cls-17" d="M49.24,57.13a3.55,3.55,0,0,0,1.12,1.34,3.89,3.89,0,0,0,2.87.33,4.48,4.48,0,0,0,2.38-1.15,5.36,5.36,0,0,0,1.17-3A3.51,3.51,0,0,0,55.09,51a4.16,4.16,0,0,0-3.23-1.14C48.6,50.48,47.89,54.6,49.24,57.13Z" transform="translate(21.11 7.89)"/><path class="cls-17" d="M51.32,55.35a1.7,1.7,0,0,0,.58.69,2,2,0,0,0,1.49.18,2.27,2.27,0,0,0,1.23-.6,2.72,2.72,0,0,0,.61-1.56,1.8,1.8,0,0,0-.87-1.91,2.12,2.12,0,0,0-1.68-.59C51,51.9,50.62,54,51.32,55.35Z" transform="translate(21.11 7.89)"/><path class="cls-25" d="M38.44,53a5.66,5.66,0,0,0,1.8,2.14,6.16,6.16,0,0,0,4.59.53,7.13,7.13,0,0,0,3.82-1.83A8.67,8.67,0,0,0,50.52,49c.4-2.73-.57-4.28-2.7-5.9-1.48-1.13-3.24-2.22-5.18-1.83C37.42,42.36,36.28,49,38.44,53Z" transform="translate(21.11 7.89)"/><path class="cls-26" d="M41.2,50.28a3.53,3.53,0,0,0,1.15,1.36,3.93,3.93,0,0,0,2.94.35,4.62,4.62,0,0,0,2.45-1.18,5.53,5.53,0,0,0,1.2-3.09,3.59,3.59,0,0,0-1.73-3.79,4.27,4.27,0,0,0-3.32-1.17C40.54,43.45,39.81,47.67,41.2,50.28Z" transform="translate(21.11 7.89)"/><path class="cls-26" d="M43.33,48.45a2,2,0,0,0,.6.71,2.07,2.07,0,0,0,1.53.18,2.44,2.44,0,0,0,1.27-.61,2.93,2.93,0,0,0,.62-1.61,1.86,1.86,0,0,0-.9-2,2.18,2.18,0,0,0-1.72-.61C43,44.91,42.62,47.1,43.33,48.45Z" transform="translate(21.11 7.89)"/><path class="cls-27" d="M29.52,45.5a5.7,5.7,0,0,0,1.79,2.13,6.14,6.14,0,0,0,4.58.53,7.11,7.11,0,0,0,3.8-1.83,8.57,8.57,0,0,0,1.87-4.8c.4-2.73-.57-4.27-2.69-5.89-1.48-1.12-3.23-2.21-5.16-1.82C28.5,34.89,27.37,41.46,29.52,45.5Z" transform="translate(21.11 7.89)"/><path class="cls-28" d="M32.27,42.77a3.62,3.62,0,0,0,1.14,1.37,3.93,3.93,0,0,0,2.94.34,4.58,4.58,0,0,0,2.44-1.17A5.52,5.52,0,0,0,40,40.23a3.58,3.58,0,0,0-1.72-3.78A4.21,4.21,0,0,0,35,35.29C31.61,36,30.89,40.18,32.27,42.77Z" transform="translate(21.11 7.89)"/><path class="cls-28" d="M34.4,41a1.78,1.78,0,0,0,.59.71,2,2,0,0,0,1.52.18,2.44,2.44,0,0,0,1.27-.61,2.89,2.89,0,0,0,.62-1.6,1.86,1.86,0,0,0-.9-2,2.2,2.2,0,0,0-1.71-.6C34.06,37.42,33.68,39.61,34.4,41Z" transform="translate(21.11 7.89)"/><path class="cls-12" d="M29.58,33.38a5.58,5.58,0,0,0,1.79,2.12A6.13,6.13,0,0,0,36,36a7.11,7.11,0,0,0,3.8-1.83,8.52,8.52,0,0,0,1.86-4.81c.41-2.72-.56-4.27-2.69-5.88-1.47-1.12-3.22-2.22-5.15-1.82C28.56,22.76,27.43,29.33,29.58,33.38Z" transform="translate(21.11 7.89)"/><path class="cls-13" d="M32.32,30.65A3.61,3.61,0,0,0,33.47,32a4,4,0,0,0,2.94.35,4.56,4.56,0,0,0,2.43-1.18A5.5,5.5,0,0,0,40,28.1a3.55,3.55,0,0,0-1.73-3.77A4.23,4.23,0,0,0,35,23.16C31.67,23.85,30.94,28.06,32.32,30.65Z" transform="translate(21.11 7.89)"/><path class="cls-13" d="M34.45,28.83a2.05,2.05,0,0,0,.6.71,2,2,0,0,0,1.52.17,2.29,2.29,0,0,0,1.26-.6,2.78,2.78,0,0,0,.62-1.6,1.84,1.84,0,0,0-.89-2,2.21,2.21,0,0,0-1.71-.61C34.11,25.3,33.74,27.48,34.45,28.83Z" transform="translate(21.11 7.89)"/><path class="cls-16" d="M5.62,37.26a4.81,4.81,0,0,0,1.55,1.85,5.34,5.34,0,0,0,4,.47A6.24,6.24,0,0,0,14.46,38a7.39,7.39,0,0,0,1.62-4.18c.36-2.37-.48-3.72-2.33-5.12-1.29-1-2.81-1.93-4.49-1.58C4.73,28,3.75,33.75,5.62,37.26Z" transform="translate(21.11 7.89)"/><path class="cls-17" d="M8,34.89a3.3,3.3,0,0,0,1,1.19,3.47,3.47,0,0,0,2.56.3,4.06,4.06,0,0,0,2.12-1,4.81,4.81,0,0,0,1-2.68,3.11,3.11,0,0,0-1.5-3.29,3.68,3.68,0,0,0-2.87-1C7.44,29,6.81,32.64,8,34.89Z" transform="translate(21.11 7.89)"/><path class="cls-17" d="M9.86,33.31a1.59,1.59,0,0,0,.51.61,1.75,1.75,0,0,0,1.33.16,2.07,2.07,0,0,0,1.1-.53,2.54,2.54,0,0,0,.54-1.39,1.61,1.61,0,0,0-.78-1.7,1.91,1.91,0,0,0-1.49-.53C9.56,30.24,9.24,32.14,9.86,33.31Z" transform="translate(21.11 7.89)"/><path class="cls-12" d="M18.33,50.08a6,6,0,0,0,1.9,2.25,6.47,6.47,0,0,0,4.86.57,7.56,7.56,0,0,0,4-1.94,9.05,9.05,0,0,0,2-5.1c.43-2.89-.6-4.53-2.85-6.25-1.57-1.18-3.43-2.34-5.48-1.92C17.25,38.82,16.05,45.79,18.33,50.08Z" transform="translate(21.11 7.89)"/><path class="cls-13" d="M21.24,47.18a3.83,3.83,0,0,0,1.22,1.45,4.17,4.17,0,0,0,3.11.36,4.81,4.81,0,0,0,2.59-1.24,5.89,5.89,0,0,0,1.27-3.27c.27-1.85-.39-2.9-1.83-4a4.48,4.48,0,0,0-3.51-1.24C20.55,40,19.78,44.43,21.24,47.18Z" transform="translate(21.11 7.89)"/><path class="cls-13" d="M23.5,45.25a2.09,2.09,0,0,0,.63.75,2.16,2.16,0,0,0,1.62.19,2.49,2.49,0,0,0,1.34-.65,3,3,0,0,0,.66-1.69,2,2,0,0,0-.95-2.08A2.35,2.35,0,0,0,25,41.13C23.14,41.51,22.74,43.82,23.5,45.25Z" transform="translate(21.11 7.89)"/><path class="cls-21" d="M10,47.2a5.61,5.61,0,0,0,1.75,2.08,6,6,0,0,0,4.48.52A6.92,6.92,0,0,0,20,48a8.39,8.39,0,0,0,1.82-4.7c.39-2.66-.55-4.17-2.63-5.75-1.44-1.1-3.15-2.16-5-1.78C9,36.82,7.92,43.24,10,47.2Z" transform="translate(21.11 7.89)"/><path class="cls-22" d="M12.71,44.53a3.55,3.55,0,0,0,1.12,1.34,3.89,3.89,0,0,0,2.87.33,4.44,4.44,0,0,0,2.38-1.15,5.33,5.33,0,0,0,1.17-3,3.51,3.51,0,0,0-1.69-3.69,4.12,4.12,0,0,0-3.23-1.13C12.07,37.88,11.36,42,12.71,44.53Z" transform="translate(21.11 7.89)"/><path class="cls-22" d="M14.79,42.75a1.78,1.78,0,0,0,.58.69,2,2,0,0,0,1.49.18,2.27,2.27,0,0,0,1.23-.6,2.72,2.72,0,0,0,.61-1.56,1.81,1.81,0,0,0-.87-1.91A2.12,2.12,0,0,0,16.15,39C14.46,39.3,14.09,41.44,14.79,42.75Z" transform="translate(21.11 7.89)"/><path class="cls-12" d="M3.05,48.7a4.69,4.69,0,0,0,1.49,1.78,5.14,5.14,0,0,0,3.82.44,5.93,5.93,0,0,0,3.18-1.52,7.14,7.14,0,0,0,1.55-4c.34-2.28-.47-3.57-2.24-4.92-1.23-.93-2.7-1.85-4.31-1.52C2.2,39.84,1.25,45.33,3.05,48.7Z" transform="translate(21.11 7.89)"/><path class="cls-13" d="M5.34,46.43a3,3,0,0,0,1,1.13,3.27,3.27,0,0,0,2.46.29,3.8,3.8,0,0,0,2-1,4.58,4.58,0,0,0,1-2.57,3,3,0,0,0-1.44-3.15,3.54,3.54,0,0,0-2.76-1C4.79,40.75,4.19,44.26,5.34,46.43Z" transform="translate(21.11 7.89)"/><path class="cls-13" d="M7.12,44.91a1.56,1.56,0,0,0,.49.59,1.69,1.69,0,0,0,1.27.14,2,2,0,0,0,1.06-.5,2.51,2.51,0,0,0,.52-1.34,1.55,1.55,0,0,0-.75-1.63,1.84,1.84,0,0,0-1.43-.51C6.83,42,6.52,43.78,7.12,44.91Z" transform="translate(21.11 7.89)"/><path class="cls-21" d="M22,37a5.66,5.66,0,0,0,1.82,2.17,6.2,6.2,0,0,0,4.66.54,7.18,7.18,0,0,0,3.87-1.86A8.78,8.78,0,0,0,34.22,33c.41-2.77-.58-4.35-2.74-6-1.5-1.14-3.28-2.25-5.25-1.85C20.93,26.24,19.78,32.93,22,37Z" transform="translate(21.11 7.89)"/><path class="cls-22" d="M24.76,34.27a3.76,3.76,0,0,0,1.17,1.39,4,4,0,0,0,3,.34,4.65,4.65,0,0,0,2.48-1.19,5.6,5.6,0,0,0,1.21-3.13,3.63,3.63,0,0,0-1.75-3.84,4.31,4.31,0,0,0-3.37-1.19C24.1,27.35,23.36,31.63,24.76,34.27Z" transform="translate(21.11 7.89)"/><path class="cls-22" d="M26.93,32.42a2,2,0,0,0,.6.72,2.13,2.13,0,0,0,1.55.18,2.41,2.41,0,0,0,1.29-.62A2.85,2.85,0,0,0,31,31.07a1.88,1.88,0,0,0-.91-2,2.24,2.24,0,0,0-1.74-.62C26.58,28.82,26.2,31.05,26.93,32.42Z" transform="translate(21.11 7.89)"/><path class="cls-12" d="M12.93,37.18a5.67,5.67,0,0,0,1.79,2.12,6.14,6.14,0,0,0,4.58.54A7.14,7.14,0,0,0,23.11,38,8.59,8.59,0,0,0,25,33.2c.4-2.73-.56-4.27-2.69-5.89-1.48-1.12-3.23-2.21-5.16-1.82C11.91,26.56,10.78,33.13,12.93,37.18Z" transform="translate(21.11 7.89)"/><path class="cls-20" d="M15.68,34.45a3.59,3.59,0,0,0,1.14,1.36,3.93,3.93,0,0,0,2.94.34A4.58,4.58,0,0,0,22.2,35a5.49,5.49,0,0,0,1.19-3.08,3.58,3.58,0,0,0-1.72-3.78A4.24,4.24,0,0,0,18.36,27C15,27.64,14.3,31.85,15.68,34.45Z" transform="translate(21.11 7.89)"/><path class="cls-20" d="M17.81,32.63a1.82,1.82,0,0,0,.59.7,2.07,2.07,0,0,0,1.53.18,2.3,2.3,0,0,0,1.26-.61,2.82,2.82,0,0,0,.62-1.6,1.84,1.84,0,0,0-.89-1.95,2.19,2.19,0,0,0-1.72-.61C17.47,29.09,17.09,31.28,17.81,32.63Z" transform="translate(21.11 7.89)"/><g class="cls-29"><path class="cls-30" d="M31.84,79.91c-4.09-9.58-7.23-20-6.55-30.49.35-5.35,1.56-10.59,5-14.8A35.45,35.45,0,0,1,36,29.47c1.41-1.11,4.53-4,6.43-3.07,1.62.83,3.06-1.34,2.31-2.72,2.18-2.76,1.94-7.5-2.15-8.53a29.46,29.46,0,0,0-13.82-.32A5.92,5.92,0,0,0,22.65,14C8,19.74-3.2,33.11-4.78,49c-.82,8.26,1.4,16.22,5,23.61,1.89,3.89,4.24,8.2,9,8.79a7.62,7.62,0,0,0,2.63-.08c.43.76.88,1.49,1.36,2.2a13.25,13.25,0,0,0,1.61,2.15l.12.15h0a13.15,13.15,0,0,0,1.16,1.06A5.14,5.14,0,0,0,23,86.73a11.18,11.18,0,0,0,3.41,1C30.67,88.27,33.41,83.59,31.84,79.91ZM7,70.42l-.07.17a.33.33,0,0,0,0-.14Z" transform="translate(21.11 7.89)"/><path class="cls-30" d="M21.64,79.67c-4.58-10.77-8-22.5-6.91-34.49.55-6.08,2.13-12.07,6.33-17a44.48,44.48,0,0,1,6.91-6c1.7-1.3,5.46-4.72,7.69-3.67,1.88.9,3.65-1.61,2.8-3.16C41.11,12.2,41,6.82,36.15,5.76a36.11,36.11,0,0,0-16.32,0A7.15,7.15,0,0,0,12.56,5c-17.47,7-31.07,22.47-33.36,40.55-1.19,9.41,1.21,18.4,5.24,26.7,2.13,4.38,4.79,9.2,10.42,9.75A9.84,9.84,0,0,0-2,81.8c.48.84,1,1.67,1.55,2.46a14.44,14.44,0,0,0,1.84,2.4l.15.17h0A12.63,12.63,0,0,0,2.85,88,6.3,6.3,0,0,0,11,87.67a13.14,13.14,0,0,0,4,1C20,89.21,23.4,83.81,21.64,79.67ZM-7.53,69.57l-.08.19a1,1,0,0,0,0-.16Z" transform="translate(21.11 7.89)"/></g><path class="cls-31" d="M48.32,63c4.56-6.34,6.45-15.2,3.36-22.59-1.57-3.75-5.35-6.44-9.48-5.23s-5.83,5.58-5.72,9.59a14.85,14.85,0,0,1-.75,5.9c-3.61,2.18-6.28,5-9.19,8.09-1.76,1.89-3.19,3.77-3.15,6.48a7.43,7.43,0,0,0,5.15,6.8C36.33,74.84,44,69,48.32,63Z" transform="translate(21.11 7.89)"/><path class="cls-31" d="M46,56.06a10.73,10.73,0,0,0,1.5-10.12,3.59,3.59,0,0,0-4.24-2.34c-1.88.55-2.62,2.5-2.57,4.29a6.58,6.58,0,0,1-.33,2.65,18.87,18.87,0,0,0-4.12,3.62,4.08,4.08,0,0,0-1.41,2.9,3.31,3.31,0,0,0,2.3,3C40.61,61.36,44,58.76,46,56.06Z" transform="translate(21.11 7.89)"/><path class="cls-32" d="M47.15,46.91A4.22,4.22,0,0,1,46,49.33c-.53.51-1.71,1.11-1.31,2a.88.88,0,0,0,.72.51,2.73,2.73,0,0,0,2.9-2.26,2.32,2.32,0,0,0-1.07-2.73.08.08,0,0,0-.12,0Z" transform="translate(21.11 7.89)"/><path class="cls-32" d="M37.27,43.06a1.47,1.47,0,0,0,2.65-1.25,1.47,1.47,0,0,0-2.65,1.25Z" transform="translate(21.11 7.89)"/><path class="cls-32" d="M43.7,36.29a.59.59,0,0,0,1.06-.5.59.59,0,0,0-1.06.5Z" transform="translate(21.11 7.89)"/></g></g></g></g></svg>